<svg xmlns="http://www.w3.org/2000/svg" version="1.2"><font><font-face font-family="Navigo" ascent="750" descent="-250" font-style="normal" font-weight="900" cap-height="750" x-height="508" underline-position="-50" underline-thickness="50"/><glyph glyph-name="NULL"/><glyph glyph-name="CR" horiz-adv-x="250"/><glyph glyph-name="space" horiz-adv-x="214"/><glyph glyph-name="exclam" unicode="!" horiz-adv-x="331" d="M74 261h183l10 489H64l10-489zM72 0h187v188H72V0z"/><glyph glyph-name="quotedbl" unicode="&quot;" horiz-adv-x="501" d="M69 425h132l27 325H42l27-325zm231 0h132l27 325H273l27-325z"/><glyph glyph-name="numbersign" unicode="#" horiz-adv-x="731" d="M357 0h173l24 160h108v149h-86l16 112h100v149h-78l27 180H468l-27-180h-85l27 180H210l-27-180H66V421h95l-16-112H36V160h86L99 0h173l23 160h86L357 0zm46 309h-85l16 112h85l-16-112z"/><glyph glyph-name="dollar" unicode="$" horiz-adv-x="664" d="M634 231c0 131-96 200-239 222l5 136c30-15 40-41 46-72h165v78c-15 90-93 149-204 167l5 114H297l-4-109C135 755 35 670 35 525c0-130 84-197 224-217l15-2-6-149c-37 13-56 38-68 76H36v-79C62 72 132 5 261-13l-5-130h115l5 127C532-2 634 91 634 231zM226 535c0 34 20 55 60 63l-5-125c-47 15-55 38-55 62zm218-318c0-35-17-57-61-65l5 133c43-16 56-40 56-68z"/><glyph glyph-name="percent" unicode="%" horiz-adv-x="1107" d="M251 326c139 0 223 100 223 222 0 123-85 220-223 220-139 0-223-96-223-220 0-122 84-222 223-222zM216-26h186l482 788H698L216-26zm35 495c-42 0-61 36-61 79 0 42 20 77 61 77 42 0 60-34 60-77s-18-79-60-79zM856-18c138 0 223 99 223 221 0 124-85 221-223 221-139 0-224-97-224-221 0-122 84-221 224-221zm0 143c-42 0-61 36-61 78 0 43 19 78 61 78 41 0 60-35 60-78 0-42-18-78-60-78z"/><glyph glyph-name="ampersand" unicode="&amp;" horiz-adv-x="783" d="M563 0h198v70l-98 92c46 63 76 138 88 219H554c-4-31-14-62-28-90l-73 70c73 44 132 120 132 207 0 104-72 200-235 200-146 0-244-83-244-208 0-65 21-118 58-166-34-14-131-66-131-191C33 76 129-19 308-19c81 0 154 21 217 57l38-38zM293 550c0 37 21 60 56 60 29 0 50-25 50-58 0-35-22-66-59-87-31 30-47 57-47 85zm27-402c-55 0-85 29-85 78 0 35 25 60 36 68l130-128c-21-11-54-18-81-18z"/><glyph glyph-name="quotesingle" unicode="'" horiz-adv-x="270" d="M69 425h132l27 325H42l27-325z"/><glyph glyph-name="parenleft" unicode="(" horiz-adv-x="393" d="M367-230v149C259-44 219 116 219 268s40 312 148 349v149C155 711 33 532 33 268s122-443 334-498z"/><glyph glyph-name="parenright" unicode=")" horiz-adv-x="392" d="M26-230C237-175 359 4 359 268S237 711 26 766V617c108-37 147-197 147-349S134-44 26-81v-149z"/><glyph glyph-name="asterisk" unicode="*" horiz-adv-x="534" d="M199 299l68 125 68-125 126 95-96 100 139 25-47 150-133-60 20 141H184l19-138-126 57-47-150 139-25-97-100 127-95z"/><glyph glyph-name="plus" unicode="+" horiz-adv-x="559" d="M527 229v148H358v172H200V377H32V229h168V57h158v172h169z"/><glyph glyph-name="comma" unicode="," horiz-adv-x="298" d="M55-140h121L243 3v185H55v-328z"/><glyph glyph-name="hyphen" unicode="-" horiz-adv-x="403" d="M54 225h295v148H54V225z"/><glyph glyph-name="period" unicode="." horiz-adv-x="296" d="M54 0h188v188H54V0z"/><glyph glyph-name="slash" unicode="/" horiz-adv-x="629" d="M20-250h195L609 819H414L20-250z"/><glyph glyph-name="zero" unicode="0" horiz-adv-x="688" d="M344-18c184 0 296 126 296 282v222c0 157-109 283-296 282-184 0-296-125-296-282V264C48 108 157-18 344-18zm0 174c-67 0-101 48-101 108v222c0 60 36 108 101 108 67 0 101-48 101-108V264c0-60-36-108-101-108z"/><glyph glyph-name="one" unicode="1" horiz-adv-x="448" d="M171 0h203v750H215L11 615v-78h146l14 11V0z"/><glyph glyph-name="two" unicode="2" horiz-adv-x="610" d="M566 0v185H309l100 102c105 106 146 160 146 271 0 129-107 210-252 210-164 0-244-98-260-183v-78h164c6 41 30 87 82 87 37 0 63-25 63-70 0-50-33-98-79-142L47 166V0h519z"/><glyph glyph-name="three" unicode="3" horiz-adv-x="638" d="M316-18c175 0 284 98 284 238 0 88-50 152-133 173 69 28 109 91 109 167 0 127-111 208-261 208-168 0-251-97-267-181v-79h163c6 42 33 86 90 86 43 0 72-26 72-70 0-41-27-71-82-71h-68V304h85c61 0 89-28 89-70 0-46-27-76-83-76-63 0-101 51-113 92H37v-79C55 77 160-18 316-18z"/><glyph glyph-name="four" unicode="4" horiz-adv-x="674" d="M641 136v157h-92v457H369L19 281V136h343V-10h187v146h92zM362 293H221l141 191V293z"/><glyph glyph-name="five" unicode="5" horiz-adv-x="617" d="M297-18c180 0 288 111 288 271 0 153-102 249-258 249-30 0-55-5-72-9l8 89h271v168H103L69 371l138-55s26 27 83 27c59 0 92-44 92-91 0-48-29-94-86-94-71 0-93 51-99 90H32v-78C51 71 149-18 297-18z"/><glyph glyph-name="six" unicode="6" horiz-adv-x="636" d="M324-18c181 0 291 122 291 276 0 144-97 244-258 252-6 0-11-1-15-3 23 25 56 60 89 99l78 86v68H330L189 591C89 470 34 376 34 251 34 105 139-18 324-18zm1 175c-63 0-97 41-97 96s34 96 96 96c63 0 97-41 97-96s-35-96-96-96z"/><glyph glyph-name="seven" unicode="7" horiz-adv-x="527" d="M88-10h181c65 163 158 403 234 594v166H24V574h273C221 390 144 201 88 65v-75z"/><glyph glyph-name="eight" unicode="8" horiz-adv-x="666" d="M333-18c187 0 296 106 296 236 0 68-32 148-114 184 50 32 84 87 84 157 0 115-97 210-266 210-172 0-269-95-269-210 0-56 23-117 85-157C69 364 37 286 37 218 37 88 146-18 333-18zm0 490c-49 0-73 32-73 70 0 37 25 69 73 69s72-32 72-69c0-38-24-70-72-70zm0-327c-60 0-91 37-91 84s32 84 91 84 90-37 90-84-31-84-90-84z"/><glyph glyph-name="nine" unicode="9" horiz-adv-x="637" d="M128-10h180c9 12 143 173 150 181 91 112 145 206 145 329 0 145-106 268-291 268-180 0-291-122-291-268 0-152 98-251 261-260 4 0 8 1 11 3-20-23-49-55-78-88-6-7-79-88-87-97v-68zm184 411c-62 0-96 42-96 96 0 55 34 97 95 97 63 0 97-42 97-97 0-54-34-96-96-96z"/><glyph glyph-name="colon" unicode=":" horiz-adv-x="296" d="M54 321h188v187H54V321zM54 0h188v188H54V0z"/><glyph glyph-name="semicolon" unicode=";" horiz-adv-x="296" d="M54 321h188v187H54V321zm0-495h121L242 3v185H54v-362z"/><glyph glyph-name="less" unicode="&lt;" horiz-adv-x="467" d="M415 39v150L227 305l188 115v150h-70L29 368V241L345 39h70z"/><glyph glyph-name="equal" unicode="=" horiz-adv-x="590" d="M56 350h478v149H56V350zm0-227h478v149H56V123z"/><glyph glyph-name="greater" unicode="&gt;" horiz-adv-x="467" d="M121 39l317 202v127L121 570H52V420l188-115L52 189V39h69z"/><glyph glyph-name="question" unicode="?" horiz-adv-x="554" d="M178 261h187c-1 2-8 17-8 34 0 78 168 97 168 267 0 125-104 206-244 206-159 0-235-98-252-183v-78h165c0 40 22 87 69 87 37 0 58-26 58-60 0-96-152-102-152-228 0-14 3-30 9-45zm0-261h188v188H178V0z"/><glyph glyph-name="at" unicode="@" horiz-adv-x="1111" d="M517-258c111 0 170 18 231 47v157c-62-23-124-44-235-44-168 0-297 116-297 335 0 210 130 358 351 358 230 0 325-137 325-277 0-96-32-155-113-160l34 302H668l-13-34c-18 19-53 49-123 49-138 1-230-99-244-229C271 98 327-9 455-9c78 0 118 44 146 83l9-74h109c211 0 355 121 355 334 0 241-201 424-507 424-335 0-533-234-533-520 0-310 200-496 483-496zm7 384c-49 0-63 42-54 111 7 54 34 111 89 111 29 0 47-10 59-17l-11-96c-6-63-34-109-83-109z"/><glyph glyph-name="A" unicode="A" horiz-adv-x="722" d="M178 0l43 132h261L524 0h186v80L473 750H248L10 70V0h168zm253 298H273l80 252 78-252z"/><glyph glyph-name="B" unicode="B" horiz-adv-x="713" d="M72 0h342c166 0 265 86 265 224 0 78-52 143-132 166 62 22 102 83 102 158 0 122-91 202-239 202H72V0zm194 458v130h108c48 0 79-21 79-66 0-41-33-64-80-64H266zm0-296v143h120c63 0 94-30 94-70s-33-73-94-73H266z"/><glyph glyph-name="C" unicode="C" horiz-adv-x="724" d="M403-18c167 0 270 84 295 185v78H534c-12-48-57-88-130-88-98 0-164 75-164 218 0 147 67 219 164 219 74 0 115-36 125-84h164v78c-19 82-101 180-290 180-220 0-366-147-366-394C37 132 181-18 403-18z"/><glyph glyph-name="D" unicode="D" horiz-adv-x="762" d="M72 0h284c229 0 370 170 370 378 0 205-141 372-370 372H72V0zm203 175v400h78c107 0 162-89 162-197 0-112-55-203-162-203h-78z"/><glyph glyph-name="E" unicode="E" horiz-adv-x="618" d="M72 0h499v175H275v131h257v158H275v111h296v175H72V0z"/><glyph glyph-name="F" unicode="F" horiz-adv-x="590" d="M72 0h203v296h249v158H275v121h279v175H72V0z"/><glyph glyph-name="G" unicode="G" horiz-adv-x="769" d="M428-18c142 0 253 57 290 111v331H415V270h117v-95c-29-12-61-18-102-18-119 0-191 88-191 218s69 219 182 219c75 0 123-41 133-80h165v78c-19 98-126 176-298 176-235 0-385-158-385-394C36 132 181-18 428-18z"/><glyph glyph-name="H" unicode="H" horiz-adv-x="800" d="M72 0h203v298h250V0h203v750H525V472H275v278H72V0z"/><glyph glyph-name="I" unicode="I" horiz-adv-x="347" d="M72 0h203v750H72V0z"/><glyph glyph-name="J" unicode="J" horiz-adv-x="567" d="M255-18c154 0 245 86 245 270v498H297V244c0-67-20-87-58-87-39 0-55 27-55 68H19v-78C32 76 91-18 255-18z"/><glyph glyph-name="K" unicode="K" horiz-adv-x="723" d="M275 304L519 0h193v79L457 394l224 278v78H509L275 451v299H72V0h203v304z"/><glyph glyph-name="L" unicode="L" horiz-adv-x="583" d="M72 0h490v175H275v575H72V0z"/><glyph glyph-name="M" unicode="M" horiz-adv-x="939" d="M397 136h135l132 307V0h203v750H619L470 394 320 750H72V0h193v443l132-307z"/><glyph glyph-name="N" unicode="N" horiz-adv-x="809" d="M72 0h193v404L544 0h193v750H544V338L265 750H72V0z"/><glyph glyph-name="O" unicode="O" horiz-adv-x="816" d="M408-18c223 0 372 159 372 396 0 234-149 390-372 390S36 612 36 378C36 141 185-18 408-18zm0 174c-104 0-169 88-169 222 0 130 65 216 169 216 103 0 169-86 169-216 0-134-66-222-169-222z"/><glyph glyph-name="P" unicode="P" horiz-adv-x="673" d="M72 0h203v224h66c203 0 305 131 305 267 0 159-118 259-305 259H72V0zm199 395v185h69c64 0 103-34 103-89 0-57-40-96-103-96h-69z"/><glyph glyph-name="Q" unicode="Q" horiz-adv-x="816" d="M741-21L668 81c71 70 112 173 112 297 0 234-149 390-372 390S36 612 36 378C36 141 185-18 408-18c40 0 77 5 112 15l69-98h152v80zM239 378c0 130 65 216 169 216 103 0 169-86 169-216 0-51-10-95-27-131l-58 82H340v-80l66-93c-102 0-167 88-167 222z"/><glyph glyph-name="R" unicode="R" horiz-adv-x="703" d="M275 0v237h50L483 0h189v79L521 290c81 46 125 121 125 203 0 158-117 257-304 257H72V0h203zm-4 399v180h70c64 0 102-33 102-86 0-56-39-94-102-94h-70z"/><glyph glyph-name="S" unicode="S" horiz-adv-x="683" d="M343-18c181 0 302 96 302 249 0 132-98 210-242 231l-74 11c-65 10-85 33-85 62 0 44 35 67 95 67 73 0 108-37 117-85h165v78c-18 110-131 173-281 173-179 0-295-87-295-243 0-130 85-206 224-226l80-11c68-10 97-34 97-71 0-45-38-69-100-69-75 0-118 29-136 85H46v-79C77 57 167-18 343-18z"/><glyph glyph-name="T" unicode="T" horiz-adv-x="641" d="M219 0h203v575h198v175H21V575h198V0z"/><glyph glyph-name="U" unicode="U" horiz-adv-x="760" d="M386-18c185 0 309 133 309 296v472H502V277c0-66-41-121-119-121-73 0-115 55-115 121v473H65V278C65 115 189-18 386-18z"/><glyph glyph-name="V" unicode="V" horiz-adv-x="721" d="M241 0h239l230 680v70H520L362 245 212 750H13v-80L241 0z"/><glyph glyph-name="W" unicode="W" horiz-adv-x="1025" d="M618 0h221l167 680v70H816l-95-488-112 488H428L309 262l-89 488H21v-80L186 0h221l105 398L618 0z"/><glyph glyph-name="X" unicode="X" horiz-adv-x="709" d="M22 0h172l150 238L496 0h193v79L478 386l195 286v78H501L371 524 228 750H33v-79l201-293L22 78V0z"/><glyph glyph-name="Y" unicode="Y" horiz-adv-x="675" d="M237 0h203v289l228 383v78H497L351 471 198 750H4v-79l233-381V0z"/><glyph glyph-name="Z" unicode="Z" horiz-adv-x="660" d="M621 0v175H278l330 410v165H53V575h316L39 165V0h582z"/><glyph glyph-name="bracketleft" unicode="[" horiz-adv-x="392" d="M70-230h294v149H256v682h108v149H70v-980z"/><glyph glyph-name="backslash" unicode="\" horiz-adv-x="629" d="M414-250h195L215 819H20L414-250z"/><glyph glyph-name="bracketright" unicode="]" horiz-adv-x="392" d="M28-230h294v980H28V601h108V-81H28v-149z"/><glyph glyph-name="asciicircum" unicode="^" horiz-adv-x="543" d="M357 414h150v65L335 750H208L36 479v-65h150l85 138 86-138z"/><glyph glyph-name="underscore" unicode="_" horiz-adv-x="530" d="M0-231h530v140H0v-140z"/><glyph glyph-name="grave" unicode="`" horiz-adv-x="332" d="M175 594h145v60l-66 96H75v-60l100-96z"/><glyph glyph-name="a" unicode="a" horiz-adv-x="571" d="M194-18c77 0 121 33 146 76l8-58h173v305c0 146-80 222-248 222C96 527 56 408 56 408v-69h146s15 35 69 35c43 0 65-21 65-63v-17s-35 8-80 8c-150 0-227-59-227-161C29 54 83-18 194-18zm70 139c-31 0-53 12-53 43 0 27 17 46 62 46 37 0 63-4 63-4v-20c0-29-18-65-72-65z"/><glyph glyph-name="b" unicode="b" horiz-adv-x="653" d="M397-18c143 0 223 125 223 279 0 147-84 266-220 266-71 0-126-30-159-80v303H56V0h175l7 68c30-52 86-86 159-86zm-60 169c-57 0-96 43-96 103 0 59 39 103 95 103 61 0 99-45 99-104 0-58-38-102-98-102z"/><glyph glyph-name="c" unicode="c" horiz-adv-x="552" d="M301-18c179 0 219 135 219 135v69H375s-9-43-74-43c-57 0-84 47-84 108 0 62 27 115 84 115 62 0 73-42 73-42h145v69s-37 134-218 134C132 527 32 402 32 251c0-147 89-269 269-269z"/><glyph glyph-name="d" unicode="d" horiz-adv-x="653" d="M252-18c72 0 133 34 163 86l7-68h175v750H412V447c-33 50-84 80-155 80-133 0-224-118-224-274 0-150 80-271 219-271zm63 169c-60 0-97 44-97 102 0 59 37 104 98 104 56 0 96-44 96-103 0-60-40-103-97-103z"/><glyph glyph-name="e" unicode="e" horiz-adv-x="599" d="M312-18C508-18 556 93 556 93v69H403s-12-36-87-36c-55 0-87 32-98 80h338s10 33 10 70c0 142-78 251-257 251-176 0-278-125-278-276 0-149 92-269 281-269zm-93 326c11 44 38 75 88 75 55 0 83-39 83-75H219z"/><glyph glyph-name="f" unicode="f" horiz-adv-x="470" d="M109 0h185v360h161v148H294v39c0 41 13 60 45 60 31 0 40-17 40-30h142v69c-21 71-81 114-183 114-144 0-229-84-229-213v-39H27V360h82V0z"/><glyph glyph-name="g" unicode="g" horiz-adv-x="652" d="M320-260c162 0 277 111 277 278v490H423l-8-67c-29 51-87 86-157 86-137 0-225-119-225-271C33 114 117-2 252-2c71 0 129 24 161 72V13c0-61-29-111-99-111-78 0-91 56-91 56H65v-68s42-150 255-150zm-4 419c-61 0-98 43-98 100 0 56 37 98 97 98 57 0 98-40 98-98s-41-100-97-100z"/><glyph glyph-name="h" unicode="h" horiz-adv-x="615" d="M56 0h185v277c0 40 19 81 76 81 46 0 62-32 62-77V0h185v324c0 105-44 203-176 203-73 0-125-42-147-80v303H56V0z"/><glyph glyph-name="i" unicode="i" horiz-adv-x="296" d="M56 0h184v508H56V0zm-2 593h186v161H54V593z"/><glyph glyph-name="j" unicode="j" horiz-adv-x="296" d="M21-260c138 0 219 84 219 212v556H56V-47c0-43-9-60-36-60-24 0-31 22-31 39h-146v-78c24-71 82-114 178-114zm34 853h186v161H55V593z"/><glyph glyph-name="k" unicode="k" horiz-adv-x="583" d="M56 0h185v201L378 0h189v70L418 264l129 175v69H376L241 317v433H56V0z"/><glyph glyph-name="l" unicode="l" horiz-adv-x="297" d="M56 0h185v750H56V0z"/><glyph glyph-name="m" unicode="m" horiz-adv-x="883" d="M56 0h184v286c0 35 16 72 59 72 40 0 57-25 57-63V0h176v288c0 34 16 70 58 70 43 0 57-28 57-68V0h185v317c0 115-50 210-178 210-76 0-122-46-146-91-18 50-64 91-138 91-69 0-111-42-133-83l-7 64H56V0z"/><glyph glyph-name="n" unicode="n" horiz-adv-x="615" d="M56 0h185v277c0 40 19 81 76 81 46 0 62-32 62-77V0h185v324c0 105-44 203-176 203-77 0-129-46-150-86l-7 67H56V0z"/><glyph glyph-name="o" unicode="o" horiz-adv-x="612" d="M306-18c173 0 275 123 275 273 0 151-102 272-275 272S31 406 31 255C31 105 133-18 306-18zm0 161c-62 0-90 51-90 112s28 111 90 111 91-50 91-111-29-112-91-112z"/><glyph glyph-name="p" unicode="p" horiz-adv-x="653" d="M56-250h185V62c34-52 89-80 160-80 131 0 219 118 219 274 0 150-79 271-219 271-72 0-133-35-163-87l-7 68H56v-758zm281 401c-56 0-96 44-96 104s40 102 97 102c60 0 97-44 97-101 0-60-37-105-98-105z"/><glyph glyph-name="q" unicode="q" horiz-adv-x="652" d="M412-250h185v758H422l-7-67c-30 51-87 86-157 86-137 0-225-121-225-274 0-150 84-271 219-271 71 0 127 28 160 80v-312zm-96 401c-61 0-98 45-98 105 0 57 37 101 97 101 57 0 97-42 97-102s-40-104-96-104z"/><glyph glyph-name="r" unicode="r" horiz-adv-x="504" d="M56 0h185v276c0 52 17 91 59 91 46 0 48-43 49-43h150v77c-7 77-49 126-129 126-68 0-112-45-132-85l-7 66H56V0z"/><glyph glyph-name="s" unicode="s" horiz-adv-x="532" d="M267-18c142 0 233 72 233 179 0 99-62 142-175 154l-72 8c-37 4-51 17-51 38 0 23 19 39 58 39 46 0 70-32 74-49h145v69c-22 61-92 107-215 107-135 0-223-67-223-176 0-97 60-148 170-158l69-6c41-4 58-17 58-40 0-22-18-38-67-38-50 0-85 26-91 50H35V90C55 34 142-18 267-18z"/><glyph glyph-name="t" unicode="t" horiz-adv-x="504" d="M297-18c103 0 165 45 190 116v69H350c0-18-10-33-33-33-26 0-40 12-40 55v171h203v148H277v130H102l-9-130H21V360h71V187C92 63 170-18 297-18z"/><glyph glyph-name="u" unicode="u" horiz-adv-x="607" d="M227-18c73 0 121 45 142 85l7-67h175v508H366V231c0-39-18-81-72-81-43 0-58 32-58 77v281H51V185C51 79 96-18 227-18z"/><glyph glyph-name="v" unicode="v" horiz-adv-x="565" d="M374 0l177 439v69H380l-90-268-94 268H16v-70L190 0h184z"/><glyph glyph-name="w" unicode="w" horiz-adv-x="829" d="M482 0h183l146 439v69H640l-62-273-77 273H338l-74-273-65 273H19v-70L161 0h183l66 254L482 0z"/><glyph glyph-name="x" unicode="x" horiz-adv-x="585" d="M26 0h167l90 126L375 0h184v70L403 256l153 183v69H389l-87-121-89 121H29v-70l152-180L26 69V0z"/><glyph glyph-name="y" unicode="y" horiz-adv-x="578" d="M250-250l319 689v69H403L295 232l-98 276H17v-70L193 24 83-180v-70h167z"/><glyph glyph-name="z" unicode="z" horiz-adv-x="515" d="M475 0v148H258l212 222v138H45V360h207L40 138V0h435z"/><glyph glyph-name="braceleft" unicode="{" horiz-adv-x="415" d="M386-232v149c-62 0-91 27-91 97v47c0 134-57 179-103 198 46 19 103 64 103 198v47c0 70 29 97 91 97v149c-182 0-277-83-277-246v-47c0-109-33-123-101-123V184c68 0 101-14 101-123V14c0-163 95-246 277-246z"/><glyph glyph-name="bar" unicode="|" horiz-adv-x="325" d="M161-250l99 86v897l-98 86-97-86v-897l96-86z"/><glyph glyph-name="braceright" unicode="}" horiz-adv-x="415" d="M29-232c182 0 277 83 277 246v47c0 109 33 123 101 123v150c-68 0-101 14-101 123v47c0 163-95 246-277 246V601c62 0 91-27 91-97v-47c0-134 57-179 103-198-46-19-103-64-103-198V14c0-70-29-97-91-97v-149z"/><glyph glyph-name="asciitilde" unicode="~" horiz-adv-x="573" d="M390 211c98 0 142 83 133 203H389c-6-32-20-47-41-47-58 0-70 52-157 52-92 0-145-84-136-202h134c4 25 16 48 42 48 59 0 76-54 159-54z"/><glyph glyph-name="uni00A0" horiz-adv-x="214"/><glyph glyph-name="exclamdown" unicode="¡" horiz-adv-x="329" d="M73 349h183l10-489H63l10 489zm-2 261h187V422H71v188z"/><glyph glyph-name="cent" unicode="¢" horiz-adv-x="587" d="M552 117v69H415s-7-38-66-49l12 231c47-12 53-44 53-44h137v69s-32 109-182 130l7 126h-99l-6-125C118 505 30 389 30 251c0-127 71-235 213-262l-7-132h99l7 126C513-6 552 117 552 117zM206 251c0 45 17 89 56 110l-11-209c-31 21-45 59-45 99z"/><glyph glyph-name="sterling" unicode="£" horiz-adv-x="622" d="M578 151H254c45 21 71 71 77 137v4h158v132H306c-12 26-24 54-24 106 0 46 28 77 77 77 63 0 74-50 74-50h148v70s-39 141-236 141c-154 0-251-90-251-227 0-51 12-86 25-117H49V292h100v-4c-9-67-48-116-101-137V0h530v151z"/><glyph glyph-name="yen" unicode="¥" horiz-adv-x="725" d="M629 84v123H465v54h164v123H510l184 288v78H523L377 493 224 750H30v-79l187-287H99V261h163v-54H99V84h163V0h203v84h164z"/><glyph glyph-name="brokenbar" unicode="¦" horiz-adv-x="325" d="M65 397h195v336l-98 86-97-86V397zm96-647l99 86v348H65v-348l96-86z"/><glyph glyph-name="section" unicode="§" horiz-adv-x="600" d="M294-127c159 0 253 84 253 214 0 56-18 99-49 129 37 26 58 72 58 120 0 90-66 150-178 165l-75 11c-45 7-61 17-61 41s23 41 64 41c49 0 72-30 72-56h164v79c-13 72-93 151-236 151-152 0-253-80-253-215 0-55 18-96 48-128-36-26-57-72-57-119 0-99 66-150 178-165l75-11c45-7 61-18 61-41 0-24-19-41-61-41-52 0-75 30-75 55H57V25c14-72 94-152 237-152zm10 413c-2 0-15 3-17 4-46 8-64 22-64 47 0 11 3 20 10 27l59-8 15-3c50-8 70-22 70-48 0-11-4-20-10-27l-63 8z"/><glyph glyph-name="dieresis" unicode="¨" horiz-adv-x="440" d="M41 593h169v161H41V593zm222 0h170v161H263V593z"/><glyph glyph-name="copyright" unicode="©" horiz-adv-x="1006" d="M503-210c269 0 469 209 469 464 0 254-200 462-469 462-268 0-469-208-469-462C34-1 235-210 503-210zm0 142C321-68 184 77 184 254c0 176 137 320 319 320 184 0 320-144 320-320C823 77 687-68 503-68zm5 66c173 0 213 123 213 123v67H580s-10-42-72-42c-56 0-82 46-82 105 0 60 26 112 82 112 60 0 71-41 71-41h141v67s-37 121-212 121c-160 0-254-117-254-259C254 113 338-2 508-2z"/><glyph glyph-name="ordfeminine" unicode="ª" horiz-adv-x="513" d="M177 297c66 0 103 29 124 65l7-49h151v259c0 124-68 188-214 188C92 760 57 660 57 660v-60h128s12 30 57 30c36 0 56-18 56-53v-9s-29 6-67 6c-131 0-198-56-198-141 0-75 48-136 144-136zm60 119c-28 0-44 11-44 33 0 20 14 37 52 37 31 0 53-3 53-3v-12c0-24-25-55-61-55z"/><glyph glyph-name="guillemotleft" unicode="«" horiz-adv-x="702" d="M367 43v65L229 270l138 162v65H213L22 270 213 43h154zm289 0v65L518 270l138 162v65H503L312 270 503 43h153z"/><glyph glyph-name="uni00AD" unicode="­" horiz-adv-x="403" d="M54 225h295v148H54V225z"/><glyph glyph-name="registered" unicode="®" horiz-adv-x="711" d="M356 129c173 0 316 143 316 325S529 779 356 779 39 636 39 454s144-325 317-325zm0 113c-117 0-201 95-201 212s84 212 201 212c116 0 201-95 201-212s-85-212-201-212zm-25 161h10l65-96h86v33l-63 89c34 20 52 46 52 78 0 64-51 104-132 104H237V307h94v96zm-2 72v62h18c25 0 40-11 40-31 0-18-15-31-40-31h-18z"/><glyph glyph-name="macron" unicode="¯" horiz-adv-x="474" d="M75 604h309v132H75V604z"/><glyph glyph-name="degree" unicode="°" horiz-adv-x="442" d="M221 393c112 0 194 85 194 188s-82 188-194 188S27 684 27 581s82-188 194-188zm0 135c-31 0-51 24-51 53s20 53 51 53 50-24 50-53-19-53-50-53z"/><glyph glyph-name="plusminus" unicode="±" horiz-adv-x="595" d="M545 341v149H377v144H219V490H50V341h169V197h158v144h168zM58 7h487v148H58V7z"/><glyph glyph-name="acute" unicode="´" horiz-adv-x="379" d="M71 594h145l100 96v60H137l-66-96v-60z"/><glyph glyph-name="paragraph" unicode="¶" horiz-adv-x="758" d="M278-147h166v722h65v-722h166v897H273c-171 0-247-94-247-227 0-141 95-224 232-224h20v-446z"/><glyph glyph-name="periodcentered" unicode="·" horiz-adv-x="297" d="M54 258h189v187H54V258z"/><glyph glyph-name="cedilla" unicode="¸" horiz-adv-x="500" d="M179-231h95c93 9 155 30 155 107 0 52-45 77-98 84V0H183v-73c37 0 71-7 71-34 0-29-29-37-75-37v-87z"/><glyph glyph-name="ordmasculine" unicode="º" horiz-adv-x="527" d="M263 302c147 0 236 104 236 230s-89 228-236 228C115 760 28 658 28 532s87-230 235-230zm0 136c-53 0-75 42-75 94s22 92 75 92c52 0 76-40 76-92s-24-94-76-94z"/><glyph glyph-name="guillemotright" unicode="»" horiz-adv-x="702" d="M200 43l191 227-191 227H46v-65l138-162L46 108V43h154zm289 0l191 227-191 227H335v-65l139-162-139-162V43h154z"/><glyph glyph-name="onequarter" unicode="¼" horiz-adv-x="1099" d="M219-40h184l469 830H688L219-40zm106 323v484H202L26 640v-75h126l7 6V283h166zm742-225v112h-64v277H852L627 158V58h218v-95h158v95h64zM845 170h-64l64 86v-86z"/><glyph glyph-name="onehalf" unicode="½" horiz-adv-x="1100" d="M219-40h184l469 830H688L219-40zm-60 323h166v484H202L26 640v-75h126l7 6V283zM1064 0v138H925l14 12c69 47 106 93 106 168 0 87-72 145-191 145-114 0-169-70-181-134v-46h123c2 18 17 40 46 40 26 0 41-12 41-37 0-21-19-40-41-56L674 117V0h390z"/><glyph glyph-name="threequarters" unicode="¾" horiz-adv-x="1148" d="M272-40h184l469 830H741L272-40zm-37 318c130 0 211 61 211 149 0 54-30 94-82 107 42 18 67 56 67 103 0 83-85 131-197 131-122 0-185-59-195-111v-53h138c3 21 16 43 46 43 27 0 44-13 44-36 0-19-15-33-47-33h-44V472h53c37 0 53-13 53-32 0-25-15-40-49-40-36 0-56 25-62 47H33v-52c11-59 88-117 202-117zm885-220v112h-64v277H905L680 158V58h218v-95h158v95h64zM898 170h-64l64 86v-86z"/><glyph glyph-name="questiondown" unicode="¿" horiz-adv-x="553" d="M375 349H188c1-2 8-17 8-34 0-78-168-97-168-267 0-125 104-206 244-206 159 0 235 98 252 183v78H359c0-40-22-87-69-87-37 0-58 26-58 60 0 96 152 102 152 228 0 14-3 30-9 45zm0 261H187V422h188v188z"/><glyph glyph-name="Agrave" unicode="À" horiz-adv-x="722" d="M178 0l43 132h261L524 0h186v80L473 750H248L10 70V0h168zm253 298H273l80 252 78-252zM289 805h166v60l-58 80H197v-60l92-80z"/><glyph glyph-name="Aacute" unicode="Á" horiz-adv-x="722" d="M178 0l43 132h261L524 0h186v80L473 750H248L10 70V0h168zm253 298H273l80 252 78-252zM268 805h166l92 80v60H326l-58-80v-60z"/><glyph glyph-name="Acircumflex" unicode="Â" horiz-adv-x="722" d="M178 0l43 132h261L524 0h186v80L473 750H248L10 70V0h168zm253 298H273l80 252 78-252zm-30 505h153v60l-92 80H255l-92-80v-60h154l42 53 42-53z"/><glyph glyph-name="Atilde" unicode="Ã" horiz-adv-x="722" d="M178 0l43 132h261L524 0h186v80L473 750H248L10 70V0h168zm253 298H273l80 252 78-252zm11 493c84 0 117 66 108 156H430c-4-17-18-24-34-24-39 0-62 29-120 29-79 0-121-69-112-156h120c4 14 14 24 35 24 40 0 67-29 123-29z"/><glyph glyph-name="Adieresis" unicode="Ä" horiz-adv-x="722" d="M178 0l43 132h261L524 0h186v80L473 750H248L10 70V0h168zm253 298H273l80 252 78-252zM160 797h178v152H160V797zm222 0h178v152H382V797z"/><glyph glyph-name="Aring" unicode="Å" horiz-adv-x="722" d="M178 0l43 132h261L524 0h186v80L473 750H248L10 70V0h168zm253 298H273l80 252 78-252zm-73 487c121 0 166 39 166 93 0 53-45 93-166 93-120 0-165-40-165-93 0-54 45-93 165-93zm0 67c-24 0-47 10-47 26s23 26 47 26c25 0 47-10 47-26s-22-26-47-26z"/><glyph glyph-name="AE" unicode="Æ" horiz-adv-x="1017" d="M7 78V0h156l69 124h239V0h499v175H674v131h257v158H674v111h296v175H374L7 78zm315 212l149 275V290H322z"/><glyph glyph-name="Ccedilla" unicode="Ç" horiz-adv-x="724" d="M570-124c0 52-45 77-98 84v27C598 7 677 81 698 167v78H534c-12-48-57-88-130-88-98 0-164 75-164 218 0 147 67 219 164 219 74 0 115-36 125-84h164v78c-19 82-101 180-290 180-220 0-366-147-366-394C37 162 147 21 324-11v-62c37 0 71-7 71-34 0-29-29-37-75-37v-87h95c93 9 155 30 155 107z"/><glyph glyph-name="Egrave" unicode="È" horiz-adv-x="618" d="M72 0h499v175H275v131h257v158H275v111h296v175H72V0zm187 805h166v60l-58 80H167v-60l92-80z"/><glyph glyph-name="Eacute" unicode="É" horiz-adv-x="618" d="M72 0h499v175H275v131h257v158H275v111h296v175H72V0zm169 805h166l92 80v60H299l-58-80v-60z"/><glyph glyph-name="Ecircumflex" unicode="Ê" horiz-adv-x="618" d="M72 0h499v175H275v131h257v158H275v111h296v175H72V0zm290 803h153v60l-92 80H216l-92-80v-60h154l42 53 42-53z"/><glyph glyph-name="Edieresis" unicode="Ë" horiz-adv-x="618" d="M72 0h499v175H275v131h257v158H275v111h296v175H72V0zm50 797h178v152H122V797zm222 0h178v152H344V797z"/><glyph glyph-name="Igrave" unicode="Ì" horiz-adv-x="347" d="M72 0h203v750H72V0zm25 805h166v60l-58 80H5v-60l92-80z"/><glyph glyph-name="Iacute" unicode="Í" horiz-adv-x="347" d="M72 0h203v750H72V0zm18 805h166l92 80v60H148l-58-80v-60z"/><glyph glyph-name="Icircumflex" unicode="Î" horiz-adv-x="347" d="M215 803h153v60l-92 80H69l-92-80v-60h154l42 53 42-53zM72 0h203v750H72V0z"/><glyph glyph-name="Idieresis" unicode="Ï" horiz-adv-x="347" d="M-26 797h178v152H-26V797zm222 0h178v152H196V797zM72 0h203v750H72V0z"/><glyph glyph-name="Eth" unicode="Ð" horiz-adv-x="779" d="M743 378c0 205-141 372-370 372H89V448H16V299h73V0h284c229 0 370 170 370 378zM292 175v124h90v149h-90v127h78c107 0 162-89 162-197 0-112-55-203-162-203h-78z"/><glyph glyph-name="Ntilde" unicode="Ñ" horiz-adv-x="809" d="M72 0h193v404L544 0h193v750H544V338L265 750H72V0zm434 791c84 0 117 66 108 156H494c-4-17-18-24-34-24-39 0-62 29-120 29-79 0-121-69-112-156h120c4 14 14 24 35 24 40 0 67-29 123-29z"/><glyph glyph-name="Ograve" unicode="Ò" horiz-adv-x="816" d="M408-18c223 0 372 159 372 396 0 234-149 390-372 390S36 612 36 378C36 141 185-18 408-18zm0 174c-104 0-169 88-169 222 0 130 65 216 169 216 103 0 169-86 169-216 0-134-66-222-169-222zm-87 649h166v60l-58 80H229v-60l92-80z"/><glyph glyph-name="Oacute" unicode="Ó" horiz-adv-x="816" d="M408-18c223 0 372 159 372 396 0 234-149 390-372 390S36 612 36 378C36 141 185-18 408-18zm0 174c-104 0-169 88-169 222 0 130 65 216 169 216 103 0 169-86 169-216 0-134-66-222-169-222zm-72 649h166l92 80v60H394l-58-80v-60z"/><glyph glyph-name="Ocircumflex" unicode="Ô" horiz-adv-x="816" d="M408-18c223 0 372 159 372 396 0 234-149 390-372 390S36 612 36 378C36 141 185-18 408-18zm0 174c-104 0-169 88-169 222 0 130 65 216 169 216 103 0 169-86 169-216 0-134-66-222-169-222zm43 647h153v60l-92 80H305l-92-80v-60h154l42 53 42-53z"/><glyph glyph-name="Otilde" unicode="Õ" horiz-adv-x="816" d="M408-18c223 0 372 159 372 396 0 234-149 390-372 390S36 612 36 378C36 141 185-18 408-18zm0 174c-104 0-169 88-169 222 0 130 65 216 169 216 103 0 169-86 169-216 0-134-66-222-169-222zm84 635c84 0 117 66 108 156H480c-4-17-18-24-34-24-39 0-62 29-120 29-79 0-121-69-112-156h120c4 14 14 24 35 24 40 0 67-29 123-29z"/><glyph glyph-name="Odieresis" unicode="Ö" horiz-adv-x="816" d="M408-18c223 0 372 159 372 396 0 234-149 390-372 390S36 612 36 378C36 141 185-18 408-18zm0 174c-104 0-169 88-169 222 0 130 65 216 169 216 103 0 169-86 169-216 0-134-66-222-169-222zM205 797h178v152H205V797zm222 0h178v152H427V797z"/><glyph glyph-name="multiply" unicode="×" horiz-adv-x="580" d="M441 42l104 114-143 137 144 137-104 114-152-145-152 145L34 430l144-137L35 156 139 42l151 144L441 42z"/><glyph glyph-name="Oslash" unicode="Ø" horiz-adv-x="816" d="M408-18c223 0 372 159 372 396 0 113-36 208-97 277l88 135H585l-32-48c-43 17-92 26-145 26-223 0-372-156-372-390 0-115 35-212 97-281L43-40h186l32 49c44-18 93-27 147-27zM230 378c0 135 69 224 178 224 17 0 34-2 49-8L249 276c-13 29-19 64-19 102zm178-230c-19 0-36 2-51 8l211 320c11-28 17-61 17-98 0-139-69-230-177-230z"/><glyph glyph-name="Ugrave" unicode="Ù" horiz-adv-x="760" d="M386-18c185 0 309 133 309 296v472H502V277c0-66-41-121-119-121-73 0-115 55-115 121v473H65V278C65 115 189-18 386-18zm-85 823h166v60l-58 80H209v-60l92-80z"/><glyph glyph-name="Uacute" unicode="Ú" horiz-adv-x="760" d="M386-18c185 0 309 133 309 296v472H502V277c0-66-41-121-119-121-73 0-115 55-115 121v473H65V278C65 115 189-18 386-18zm-88 823h166l92 80v60H356l-58-80v-60z"/><glyph glyph-name="Ucircumflex" unicode="Û" horiz-adv-x="760" d="M386-18c185 0 309 133 309 296v472H502V277c0-66-41-121-119-121-73 0-115 55-115 121v473H65V278C65 115 189-18 386-18zm38 821h153v60l-92 80H278l-92-80v-60h154l42 53 42-53z"/><glyph glyph-name="Udieresis" unicode="Ü" horiz-adv-x="760" d="M386-18c185 0 309 133 309 296v472H502V277c0-66-41-121-119-121-73 0-115 55-115 121v473H65V278C65 115 189-18 386-18zM182 797h178v152H182V797zm222 0h178v152H404V797z"/><glyph glyph-name="Yacute" unicode="Ý" horiz-adv-x="675" d="M237 0h203v289l228 383v78H497L351 471 198 750H4v-79l233-381V0zm22 805h166l92 80v60H317l-58-80v-60z"/><glyph glyph-name="Thorn" unicode="Þ" horiz-adv-x="670" d="M72 0h203v79c249 4 370 119 370 297 0 179-121 295-370 299v75H72V0zm195 245v263c125-3 175-49 175-132 0-82-50-128-175-131z"/><glyph glyph-name="germandbls" unicode="ß" horiz-adv-x="633" d="M380-18c160 0 222 115 222 225 0 85-50 155-134 178 59 35 95 99 95 163 0 141-106 212-252 212-159 0-255-92-255-238V0h185v521c0 51 22 90 67 90 47 0 66-31 66-75 0-50-30-93-81-96V299c77-1 119-25 119-91 0-40-21-74-67-74-38 0-62 15-66 16V0c4-1 44-18 101-18z"/><glyph glyph-name="agrave" unicode="à" horiz-adv-x="571" d="M194-18c77 0 121 33 146 76l8-58h173v305c0 146-80 222-248 222C96 527 56 408 56 408v-69h146s15 35 69 35c43 0 65-21 65-63v-17s-35 8-80 8c-150 0-227-59-227-161C29 54 83-18 194-18zm70 139c-31 0-53 12-53 43 0 27 17 46 62 46 37 0 63-4 63-4v-20c0-29-18-65-72-65zm-33 473h145v60l-66 96H131v-60l100-96z"/><glyph glyph-name="aacute" unicode="á" horiz-adv-x="571" d="M194-18c77 0 121 33 146 76l8-58h173v305c0 146-80 222-248 222C96 527 56 408 56 408v-69h146s15 35 69 35c43 0 65-21 65-63v-17s-35 8-80 8c-150 0-227-59-227-161C29 54 83-18 194-18zm70 139c-31 0-53 12-53 43 0 27 17 46 62 46 37 0 63-4 63-4v-20c0-29-18-65-72-65zm-48 473h145l100 96v60H282l-66-96v-60z"/><glyph glyph-name="acircumflex" unicode="â" horiz-adv-x="571" d="M194-18c77 0 121 33 146 76l8-58h173v305c0 146-80 222-248 222C96 527 56 408 56 408v-69h146s15 35 69 35c43 0 65-21 65-63v-17s-35 8-80 8c-150 0-227-59-227-161C29 54 83-18 194-18zm70 139c-31 0-53 12-53 43 0 27 17 46 62 46 37 0 63-4 63-4v-20c0-29-18-65-72-65zm66 473h136v60l-92 96H184l-92-96v-60h137l50 77 51-77z"/><glyph glyph-name="atilde" unicode="ã" horiz-adv-x="571" d="M194-18c77 0 121 33 146 76l8-58h173v305c0 146-80 222-248 222C96 527 56 408 56 408v-69h146s15 35 69 35c43 0 65-21 65-63v-17s-35 8-80 8c-150 0-227-59-227-161C29 54 83-18 194-18zm70 139c-31 0-53 12-53 43 0 27 17 46 62 46 37 0 63-4 63-4v-20c0-29-18-65-72-65zm105 472c84 0 117 67 108 156H365c-4-23-17-32-34-32-48 0-56 37-128 37-79 0-121-68-112-156h112c4 18 14 33 35 33 50 0 61-38 131-38z"/><glyph glyph-name="adieresis" unicode="ä" horiz-adv-x="571" d="M194-18c77 0 121 33 146 76l8-58h173v305c0 146-80 222-248 222C96 527 56 408 56 408v-69h146s15 35 69 35c43 0 65-21 65-63v-17s-35 8-80 8c-150 0-227-59-227-161C29 54 83-18 194-18zm70 139c-31 0-53 12-53 43 0 27 17 46 62 46 37 0 63-4 63-4v-20c0-29-18-65-72-65zM89 593h169v161H89V593zm222 0h170v161H311V593z"/><glyph glyph-name="aring" unicode="å" horiz-adv-x="571" d="M194-18c77 0 121 33 146 76l8-58h173v305c0 146-80 222-248 222C96 527 56 408 56 408v-69h146s15 35 69 35c43 0 65-21 65-63v-17s-35 8-80 8c-150 0-227-59-227-161C29 54 83-18 194-18zm70 139c-31 0-53 12-53 43 0 27 17 46 62 46 37 0 63-4 63-4v-20c0-29-18-65-72-65zm24 448c115 0 157 44 157 98 0 53-42 98-157 98-114 0-157-45-157-98 0-54 43-98 157-98zm0 68c-20 0-38 11-38 30s18 30 38 30 39-11 39-30-19-30-39-30z"/><glyph glyph-name="ae" unicode="æ" horiz-adv-x="905" d="M618-18C814-18 862 93 862 93v69H708s-12-36-86-36c-55 0-87 32-98 80h338s9 33 9 70c0 142-77 251-249 251-73 0-131-28-172-71-38 45-97 71-177 71C96 527 56 408 56 408v-69h145s16 35 69 35c44 0 69-21 69-63v-11s-36 8-81 8c-152 0-229-65-229-167 0-93 77-159 198-159 92 0 158 27 204 79 41-50 103-79 187-79zm-93 326c11 44 37 75 88 75 55 0 82-39 82-75H525zM265 113c-34 0-54 12-54 40 0 21 15 44 64 44 38 0 64-5 64-5v-12c0-31-29-67-74-67z"/><glyph glyph-name="ccedilla" unicode="ç" horiz-adv-x="552" d="M472-124c0 52-45 77-98 84v31c117 29 146 126 146 126v69H375s-9-43-74-43c-57 0-84 47-84 108 0 62 27 115 84 115 62 0 73-42 73-42h145v69s-37 134-218 134C132 527 32 402 32 251 32 126 96 19 226-10v-63c37 0 71-7 71-34 0-29-29-37-75-37v-87h95c93 9 155 30 155 107z"/><glyph glyph-name="egrave" unicode="è" horiz-adv-x="599" d="M312-18C508-18 556 93 556 93v69H403s-12-36-87-36c-55 0-87 32-98 80h338s10 33 10 70c0 142-78 251-257 251-176 0-278-125-278-276 0-149 92-269 281-269zm-93 326c11 44 38 75 88 75 55 0 83-39 83-75H219zm18 286h145v60l-66 96H137v-60l100-96z"/><glyph glyph-name="eacute" unicode="é" horiz-adv-x="599" d="M312-18C508-18 556 93 556 93v69H403s-12-36-87-36c-55 0-87 32-98 80h338s10 33 10 70c0 142-78 251-257 251-176 0-278-125-278-276 0-149 92-269 281-269zm-93 326c11 44 38 75 88 75 55 0 83-39 83-75H219zm13 286h145l100 96v60H298l-66-96v-60z"/><glyph glyph-name="ecircumflex" unicode="ê" horiz-adv-x="599" d="M312-18C508-18 556 93 556 93v69H403s-12-36-87-36c-55 0-87 32-98 80h338s10 33 10 70c0 142-78 251-257 251-176 0-278-125-278-276 0-149 92-269 281-269zm-93 326c11 44 38 75 88 75 55 0 83-39 83-75H219zm140 286h136v60l-92 96H213l-92-96v-60h137l50 77 51-77z"/><glyph glyph-name="edieresis" unicode="ë" horiz-adv-x="599" d="M312-18C508-18 556 93 556 93v69H403s-12-36-87-36c-55 0-87 32-98 80h338s10 33 10 70c0 142-78 251-257 251-176 0-278-125-278-276 0-149 92-269 281-269zm-93 326c11 44 38 75 88 75 55 0 83-39 83-75H219zM112 593h169v161H112V593zm222 0h170v161H334V593z"/><glyph glyph-name="igrave" unicode="ì" horiz-adv-x="296" d="M56 0h184v508H56V0zm39 594h145v60l-66 96H-5v-60l100-96z"/><glyph glyph-name="iacute" unicode="í" horiz-adv-x="296" d="M56 0h184v508H56V0zm1 594h145l100 96v60H123l-66-96v-60z"/><glyph glyph-name="icircumflex" unicode="î" horiz-adv-x="296" d="M56 0h184v508H56V0zm142 594h136v60l-92 96H52l-92-96v-60H97l50 77 51-77z"/><glyph glyph-name="idieresis" unicode="ï" horiz-adv-x="296" d="M56 0h184v508H56V0zM-49 593h169v161H-49V593zm222 0h170v161H173V593z"/><glyph glyph-name="eth" unicode="ð" horiz-adv-x="619" d="M307-18c173 0 275 118 275 323 0 141-49 245-120 319l58 23v109l-151-60c-42 25-85 43-128 54H96v-69c38-10 76-26 112-47l-69-27V499l164 64c27-27 49-55 67-87-28 20-63 31-106 31-142 0-232-116-232-262C32 100 134-18 307-18zm0 161c-62 0-90 45-90 102 0 56 28 101 90 101s91-45 91-100c0-56-29-103-91-103z"/><glyph glyph-name="ntilde" unicode="ñ" horiz-adv-x="615" d="M56 0h185v277c0 40 19 81 76 81 46 0 62-32 62-77V0h185v324c0 105-44 203-176 203-77 0-129-46-150-86l-7 67H56V0zm337 593c84 0 117 67 108 156H389c-4-23-17-32-34-32-48 0-56 37-128 37-79 0-121-68-112-156h112c4 18 14 33 35 33 50 0 61-38 131-38z"/><glyph glyph-name="ograve" unicode="ò" horiz-adv-x="612" d="M306-18c173 0 275 123 275 273 0 151-102 272-275 272S31 406 31 255C31 105 133-18 306-18zm0 161c-62 0-90 51-90 112s28 111 90 111 91-50 91-111-29-112-91-112zm-69 451h145v60l-66 96H137v-60l100-96z"/><glyph glyph-name="oacute" unicode="ó" horiz-adv-x="612" d="M230 594h145l100 96v60H296l-66-96v-60zm76-612c173 0 275 123 275 273 0 151-102 272-275 272S31 406 31 255C31 105 133-18 306-18zm0 161c-62 0-90 51-90 112s28 111 90 111 91-50 91-111-29-112-91-112z"/><glyph glyph-name="ocircumflex" unicode="ô" horiz-adv-x="612" d="M358 594h136v60l-92 96H212l-92-96v-60h137l50 77 51-77zM306-18c173 0 275 123 275 273 0 151-102 272-275 272S31 406 31 255C31 105 133-18 306-18zm0 161c-62 0-90 51-90 112s28 111 90 111 91-50 91-111-29-112-91-112z"/><glyph glyph-name="otilde" unicode="õ" horiz-adv-x="612" d="M390 593c84 0 117 67 108 156H386c-4-23-17-32-34-32-48 0-56 37-128 37-79 0-121-68-112-156h112c4 18 14 33 35 33 50 0 61-38 131-38zM306-18c173 0 275 123 275 273 0 151-102 272-275 272S31 406 31 255C31 105 133-18 306-18zm0 161c-62 0-90 51-90 112s28 111 90 111 91-50 91-111-29-112-91-112z"/><glyph glyph-name="odieresis" unicode="ö" horiz-adv-x="612" d="M111 593h169v161H111V593zm222 0h170v161H333V593zM306-18c173 0 275 123 275 273 0 151-102 272-275 272S31 406 31 255C31 105 133-18 306-18zm0 161c-62 0-90 51-90 112s28 111 90 111 91-50 91-111-29-112-91-112z"/><glyph glyph-name="divide" unicode="÷" horiz-adv-x="595" d="M203 437h188v188H203V437zM33 243h529v149H33V243zM203 11h188v187H203V11z"/><glyph glyph-name="oslash" unicode="ø" horiz-adv-x="612" d="M306-18c173 0 275 123 275 273 0 80-28 152-81 201l68 104H452l-35-53c-33 13-70 20-111 20-173 0-275-121-275-272 0-80 29-153 83-203L40-59h117l40 59c32-12 69-18 109-18zM205 258c0 62 37 115 100 115 8 0 15 0 21-2L214 203c-9 16-9 35-9 55zm100-128c-8 0-14 1-20 3l113 169c6-13 8-28 8-44 0-68-37-128-101-128z"/><glyph glyph-name="ugrave" unicode="ù" horiz-adv-x="607" d="M227-18c73 0 121 45 142 85l7-67h175v508H366V231c0-39-18-81-72-81-43 0-58 32-58 77v281H51V185C51 79 96-18 227-18zm1 612h145v60l-66 96H128v-60l100-96z"/><glyph glyph-name="uacute" unicode="ú" horiz-adv-x="607" d="M227-18c73 0 121 45 142 85l7-67h175v508H366V231c0-39-18-81-72-81-43 0-58 32-58 77v281H51V185C51 79 96-18 227-18zm3 612h145l100 96v60H296l-66-96v-60z"/><glyph glyph-name="ucircumflex" unicode="û" horiz-adv-x="607" d="M350 594h136v60l-92 96H204l-92-96v-60h137l50 77 51-77zM227-18c73 0 121 45 142 85l7-67h175v508H366V231c0-39-18-81-72-81-43 0-58 32-58 77v281H51V185C51 79 96-18 227-18z"/><glyph glyph-name="udieresis" unicode="ü" horiz-adv-x="607" d="M103 593h169v161H103V593zm222 0h170v161H325V593zM227-18c73 0 121 45 142 85l7-67h175v508H366V231c0-39-18-81-72-81-43 0-58 32-58 77v281H51V185C51 79 96-18 227-18z"/><glyph glyph-name="yacute" unicode="ý" horiz-adv-x="578" d="M229 594h145l100 96v60H295l-66-96v-60zm21-844l319 689v69H403L295 232l-98 276H17v-70L193 24 83-180v-70h167z"/><glyph glyph-name="thorn" unicode="þ" horiz-adv-x="653" d="M56-250h185V62c34-52 89-80 160-80 131 0 219 118 219 274 0 150-79 271-219 271-72 0-133-35-163-87l3 310H56V-250zm281 401c-56 0-96 44-96 104s40 102 97 102c60 0 97-44 97-101 0-60-37-105-98-105z"/><glyph glyph-name="ydieresis" unicode="ÿ" horiz-adv-x="578" d="M100 593h169v161H100V593zm222 0h170v161H322V593zm-72-843l319 689v69H403L295 232l-98 276H17v-70L193 24 83-180v-70h167z"/><glyph glyph-name="Amacron" unicode="Ā" horiz-adv-x="722" d="M178 0l43 132h261L524 0h186v80L473 750H248L10 70V0h168zm253 298H273l80 252 78-252zM187 805h343v124H187V805z"/><glyph glyph-name="amacron" unicode="ā" horiz-adv-x="571" d="M194-18c77 0 121 33 146 76l8-58h173v305c0 146-80 222-248 222C96 527 56 408 56 408v-69h146s15 35 69 35c43 0 65-21 65-63v-17s-35 8-80 8c-150 0-227-59-227-161C29 54 83-18 194-18zm70 139c-31 0-53 12-53 43 0 27 17 46 62 46 37 0 63-4 63-4v-20c0-29-18-65-72-65zM136 604h309v132H136V604z"/><glyph glyph-name="Abreve" unicode="Ă" horiz-adv-x="722" d="M178 0l43 132h261L524 0h186v80L473 750H248L10 70V0h168zm253 298H273l80 252 78-252zm-71 495c135 0 163 70 163 70v78h-87s-11-35-76-35-80 35-80 35h-87v-78s29-70 167-70z"/><glyph glyph-name="abreve" unicode="ă" horiz-adv-x="571" d="M194-18c77 0 121 33 146 76l8-58h173v305c0 146-80 222-248 222C96 527 56 408 56 408v-69h146s15 35 69 35c43 0 65-21 65-63v-17s-35 8-80 8c-150 0-227-59-227-161C29 54 83-18 194-18zm70 139c-31 0-53 12-53 43 0 27 17 46 62 46 37 0 63-4 63-4v-20c0-29-18-65-72-65zm21 468c126 0 163 78 163 78v78h-87s-19-35-76-35c-56 0-80 35-80 35h-87v-78s38-78 167-78z"/><glyph glyph-name="Aogonek" unicode="Ą" horiz-adv-x="722" d="M481-99c0-78 73-100 160-107h87v96c-40 0-84 9-84 54 0 33 25 48 66 56v80L473 750H248L10 70V0h168l43 132h261L524 0h63c-67-7-106-45-106-99zm-50 397H273l80 252 78-252z"/><glyph glyph-name="aogonek" unicode="ą" horiz-adv-x="571" d="M292-99c0-78 73-100 160-107h87v96c-40 0-84 9-84 54 0 33 25 48 66 56v305c0 146-80 222-248 222C96 527 56 408 56 408v-69h146s15 35 69 35c43 0 65-21 65-63v-17s-35 8-80 8c-150 0-227-59-227-161C29 54 83-18 194-18c77 0 121 33 146 76l8-58h50c-67-7-106-45-106-99zm-28 220c-31 0-53 12-53 43 0 27 17 46 62 46 37 0 63-4 63-4v-20c0-29-18-65-72-65z"/><glyph glyph-name="Cacute" unicode="Ć" horiz-adv-x="724" d="M403-18c167 0 270 84 295 185v78H534c-12-48-57-88-130-88-98 0-164 75-164 218 0 147 67 219 164 219 74 0 115-36 125-84h164v78c-19 82-101 180-290 180-220 0-366-147-366-394C37 132 181-18 403-18zm-82 823h166l92 80v60H379l-58-80v-60z"/><glyph glyph-name="cacute" unicode="ć" horiz-adv-x="552" d="M301-18c179 0 219 135 219 135v69H375s-9-43-74-43c-57 0-84 47-84 108 0 62 27 115 84 115 62 0 73-42 73-42h145v69s-37 134-218 134C132 527 32 402 32 251c0-147 89-269 269-269zm-84 612h145l100 96v60H283l-66-96v-60z"/><glyph glyph-name="Ccircumflex" unicode="Ĉ" horiz-adv-x="724" d="M403-18c167 0 270 84 295 185v78H534c-12-48-57-88-130-88-98 0-164 75-164 218 0 147 67 219 164 219 74 0 115-36 125-84h164v78c-19 82-101 180-290 180-220 0-366-147-366-394C37 132 181-18 403-18zm36 821h153v60l-92 80H293l-92-80v-60h154l42 53 42-53z"/><glyph glyph-name="ccircumflex" unicode="ĉ" horiz-adv-x="552" d="M301-18c179 0 219 135 219 135v69H375s-9-43-74-43c-57 0-84 47-84 108 0 62 27 115 84 115 62 0 73-42 73-42h145v69s-37 134-218 134C132 527 32 402 32 251c0-147 89-269 269-269zm48 612h136v60l-92 96H203l-92-96v-60h137l50 77 51-77z"/><glyph glyph-name="Cdotaccent" unicode="Ċ" horiz-adv-x="724" d="M403-18c167 0 270 84 295 185v78H534c-12-48-57-88-130-88-98 0-164 75-164 218 0 147 67 219 164 219 74 0 115-36 125-84h164v78c-19 82-101 180-290 180-220 0-366-147-366-394C37 132 181-18 403-18zM301 807h203v152H301V807z"/><glyph glyph-name="cdotaccent" unicode="ċ" horiz-adv-x="552" d="M301-18c179 0 219 135 219 135v69H375s-9-43-74-43c-57 0-84 47-84 108 0 62 27 115 84 115 62 0 73-42 73-42h145v69s-37 134-218 134C132 527 32 402 32 251c0-147 89-269 269-269zM197 593h186v161H197V593z"/><glyph glyph-name="Ccaron" unicode="Č" horiz-adv-x="724" d="M403-18c167 0 270 84 295 185v78H534c-12-48-57-88-130-88-98 0-164 75-164 218 0 147 67 219 164 219 74 0 115-36 125-84h164v78c-19 82-101 180-290 180-220 0-366-147-366-394C37 132 181-18 403-18zm95 821l91 80v60H436l-42-52-42 52H198v-60l93-80h207z"/><glyph glyph-name="ccaron" unicode="č" horiz-adv-x="552" d="M301-18c179 0 219 135 219 135v69H375s-9-43-74-43c-57 0-84 47-84 108 0 62 27 115 84 115 62 0 73-42 73-42h145v69s-37 134-218 134C132 527 32 402 32 251c0-147 89-269 269-269zm91 612l91 96v60H347l-50-77-51 77H109v-60l93-96h190z"/><glyph glyph-name="Dcaron" unicode="Ď" horiz-adv-x="762" d="M72 0h284c229 0 370 170 370 378 0 205-141 372-370 372H72V0zm203 175v400h78c107 0 162-89 162-197 0-112-55-203-162-203h-78zm180 628l91 80v60H393l-42-52-42 52H155v-60l93-80h207z"/><glyph glyph-name="dcaron" unicode="ď" horiz-adv-x="665" d="M252-18c72 0 133 34 163 86l7-68h175v750H412V447c-33 50-84 80-155 80-133 0-224-118-224-274 0-150 80-271 219-271zm63 169c-60 0-97 44-97 102 0 59 37 104 98 104 56 0 96-44 96-103 0-60-40-103-97-103zm332 401h119l49 101v97H638l9-198z"/><glyph glyph-name="Dcroat" unicode="Đ" horiz-adv-x="779" d="M743 378c0 205-141 372-370 372H89V448H16V299h73V0h284c229 0 370 170 370 378zM292 175v124h90v149h-90v127h78c107 0 162-89 162-197 0-112-55-203-162-203h-78z"/><glyph glyph-name="dcroat" unicode="đ" horiz-adv-x="653" d="M415 68l7-68h175v563h64v123h-64v64H412v-64H289V563h123V447c-33 50-84 80-155 80-133 0-224-118-224-274 0-150 80-271 219-271 72 0 133 34 163 86zm-100 83c-60 0-97 44-97 102 0 59 37 104 98 104 56 0 96-44 96-103 0-60-40-103-97-103z"/><glyph glyph-name="Emacron" unicode="Ē" horiz-adv-x="618" d="M72 0h499v175H275v131h257v158H275v111h296v175H72V0zm78 805h343v124H150V805z"/><glyph glyph-name="emacron" unicode="ē" horiz-adv-x="599" d="M312-18C508-18 556 93 556 93v69H403s-12-36-87-36c-55 0-87 32-98 80h338s10 33 10 70c0 142-78 251-257 251-176 0-278-125-278-276 0-149 92-269 281-269zm-93 326c11 44 38 75 88 75 55 0 83-39 83-75H219zm-65 296h309v132H154V604z"/><glyph glyph-name="Ebreve" unicode="Ĕ" horiz-adv-x="618" d="M72 0h499v175H275v131h257v158H275v111h296v175H72V0zm251 793c135 0 163 70 163 70v78h-87s-11-35-76-35-80 35-80 35h-87v-78s29-70 167-70z"/><glyph glyph-name="ebreve" unicode="ĕ" horiz-adv-x="599" d="M312-18C508-18 556 93 556 93v69H403s-12-36-87-36c-55 0-87 32-98 80h338s10 33 10 70c0 142-78 251-257 251-176 0-278-125-278-276 0-149 92-269 281-269zm-93 326c11 44 38 75 88 75 55 0 83-39 83-75H219zm93 281c126 0 163 78 163 78v78h-87s-19-35-76-35c-56 0-80 35-80 35h-87v-78s38-78 167-78z"/><glyph glyph-name="Edotaccent" unicode="Ė" horiz-adv-x="618" d="M72 0h499v175H275v131h257v158H275v111h296v175H72V0zm155 797h203v152H227V797z"/><glyph glyph-name="edotaccent" unicode="ė" horiz-adv-x="599" d="M312-18C508-18 556 93 556 93v69H403s-12-36-87-36c-55 0-87 32-98 80h338s10 33 10 70c0 142-78 251-257 251-176 0-278-125-278-276 0-149 92-269 281-269zm-93 326c11 44 38 75 88 75 55 0 83-39 83-75H219zm-3 285h186v161H216V593z"/><glyph glyph-name="Eogonek" unicode="Ę" horiz-adv-x="618" d="M342-99c0-78 73-100 160-107h87v96c-40 0-84 9-84 54 0 33 25 48 66 56v175H275v131h257v158H275v111h296v175H72V0h376c-67-7-106-45-106-99z"/><glyph glyph-name="eogonek" unicode="ę" horiz-adv-x="600" d="M536-127c-40 0-84 15-84 57 0 43 21 75 48 102 42 30 56 61 56 61v69H403s-12-36-87-36c-55 0-87 32-98 80h338s10 33 10 70c0 142-78 251-257 251-176 0-278-125-278-276 0-149 92-269 281-269 14 0 26 1 38 2-40-17-61-46-61-83 0-78 73-100 160-107h87v79zM219 308c11 44 38 75 88 75 55 0 83-39 83-75H219z"/><glyph glyph-name="Ecaron" unicode="Ě" horiz-adv-x="618" d="M72 0h499v175H275v131h257v158H275v111h296v175H72V0zm356 803l91 80v60H366l-42-52-42 52H128v-60l93-80h207z"/><glyph glyph-name="ecaron" unicode="ě" horiz-adv-x="599" d="M405 594l91 96v60H360l-50-77-51 77H122v-60l93-96h190zM312-18C508-18 556 93 556 93v69H403s-12-36-87-36c-55 0-87 32-98 80h338s10 33 10 70c0 142-78 251-257 251-176 0-278-125-278-276 0-149 92-269 281-269zm-93 326c11 44 38 75 88 75 55 0 83-39 83-75H219z"/><glyph glyph-name="Gcircumflex" unicode="Ĝ" horiz-adv-x="769" d="M428-18c142 0 253 57 290 111v331H415V270h117v-95c-29-12-61-18-102-18-119 0-191 88-191 218s69 219 182 219c75 0 123-41 133-80h165v78c-19 98-126 176-298 176-235 0-385-158-385-394C36 132 181-18 428-18zm22 821h153v60l-92 80H304l-92-80v-60h154l42 53 42-53z"/><glyph glyph-name="gcircumflex" unicode="ĝ" horiz-adv-x="652" d="M320-260c162 0 277 111 277 278v490H423l-8-67c-29 51-87 86-157 86-137 0-225-119-225-271C33 114 117-2 252-2c71 0 129 24 161 72V13c0-61-29-111-99-111-78 0-91 56-91 56H65v-68s42-150 255-150zm-4 419c-61 0-98 43-98 100 0 56 37 98 97 98 57 0 98-40 98-98s-41-100-97-100zm77 435h136v60l-92 96H247l-92-96v-60h137l50 77 51-77z"/><glyph glyph-name="Gbreve" unicode="Ğ" horiz-adv-x="769" d="M428-18c142 0 253 57 290 111v331H415V270h117v-95c-29-12-61-18-102-18-119 0-191 88-191 218s69 219 182 219c75 0 123-41 133-80h165v78c-19 98-126 176-298 176-235 0-385-158-385-394C36 132 181-18 428-18zm-16 811c135 0 163 70 163 70v78h-87s-11-35-76-35-80 35-80 35h-87v-78s29-70 167-70z"/><glyph glyph-name="gbreve" unicode="ğ" horiz-adv-x="652" d="M320-260c162 0 277 111 277 278v490H423l-8-67c-29 51-87 86-157 86-137 0-225-119-225-271C33 114 117-2 252-2c71 0 129 24 161 72V13c0-61-29-111-99-111-78 0-91 56-91 56H65v-68s42-150 255-150zm-4 419c-61 0-98 43-98 100 0 56 37 98 97 98 57 0 98-40 98-98s-41-100-97-100zm25 430c126 0 163 78 163 78v78h-87s-19-35-76-35c-56 0-80 35-80 35h-87v-78s38-78 167-78z"/><glyph glyph-name="Gdotaccent" unicode="Ġ" horiz-adv-x="769" d="M428-18c142 0 253 57 290 111v331H415V270h117v-95c-29-12-61-18-102-18-119 0-191 88-191 218s69 219 182 219c75 0 123-41 133-80h165v78c-19 98-126 176-298 176-235 0-385-158-385-394C36 132 181-18 428-18zM312 797h203v152H312V797z"/><glyph glyph-name="gdotaccent" unicode="ġ" horiz-adv-x="652" d="M320-260c162 0 277 111 277 278v490H423l-8-67c-29 51-87 86-157 86-137 0-225-119-225-271C33 114 117-2 252-2c71 0 129 24 161 72V13c0-61-29-111-99-111-78 0-91 56-91 56H65v-68s42-150 255-150zm-4 419c-61 0-98 43-98 100 0 56 37 98 97 98 57 0 98-40 98-98s-41-100-97-100zm-57 434h186v161H259V593z"/><glyph glyph-name="Gcommaaccent" unicode="Ģ" horiz-adv-x="769" d="M428-18c142 0 253 57 290 111v331H415V270h117v-95c-29-12-61-18-102-18-119 0-191 88-191 218s69 219 182 219c75 0 123-41 133-80h165v78c-19 98-126 176-298 176-235 0-385-158-385-394C36 132 181-18 428-18zm-83-187h123l65 81v72H337l8-153z"/><glyph glyph-name="gcommaaccent" unicode="ģ" horiz-adv-x="652" d="M320-260c162 0 277 111 277 278v490H423l-8-67c-29 51-87 86-157 86-137 0-225-119-225-271C33 114 117-2 252-2c71 0 129 24 161 72V13c0-61-29-111-99-111-78 0-91 56-91 56H65v-68s42-150 255-150zm-4 419c-61 0-98 43-98 100 0 56 37 98 97 98 57 0 98-40 98-98s-41-100-97-100zm114 604H307l-65-81v-72h196l-8 153z"/><glyph glyph-name="Hcircumflex" unicode="Ĥ" horiz-adv-x="800" d="M72 0h203v298h250V0h203v750H525V472H275v278H72V0zm370 803h153v60l-92 80H296l-92-80v-60h154l42 53 42-53z"/><glyph glyph-name="hcircumflex" unicode="ĥ" horiz-adv-x="615" d="M56 0h185v277c0 40 19 81 76 81 46 0 62-32 62-77V0h185v324c0 105-44 203-176 203-73 0-125-42-147-80v303H56V0zm285 803h153v60l-92 80H195l-92-80v-60h154l42 53 42-53z"/><glyph glyph-name="Hbar" unicode="Ħ" horiz-adv-x="832" d="M291 298h250V0h203v543h73v133h-73v74H541v-74H291v74H88v-74H15V543h73V0h203v298zm0 174v71h250v-71H291z"/><glyph glyph-name="hbar" unicode="ħ" horiz-adv-x="615" d="M241 277c0 40 19 81 76 81 46 0 62-32 62-77V0h185v324c0 105-44 203-176 203-73 0-125-42-147-80v116h148v123H241v64H56v-64H-8V563h64V0h185v277z"/><glyph glyph-name="Itilde" unicode="Ĩ" horiz-adv-x="347" d="M259 791c84 0 117 66 108 156H247c-4-17-18-24-34-24-39 0-62 29-120 29-79 0-121-69-112-156h120c4 14 14 24 35 24 40 0 67-29 123-29zM72 0h203v750H72V0z"/><glyph glyph-name="itilde" unicode="ĩ" horiz-adv-x="296" d="M56 0h184v508H56V0zm181 593c84 0 117 67 108 156H233c-4-23-17-32-34-32-48 0-56 37-128 37-79 0-121-68-112-156H71c4 18 14 33 35 33 50 0 61-38 131-38z"/><glyph glyph-name="Imacron" unicode="Ī" horiz-adv-x="347" d="M2 805h343v124H2V805zM72 0h203v750H72V0z"/><glyph glyph-name="imacron" unicode="ī" horiz-adv-x="296" d="M56 0h184v508H56V0zM-6 604h309v132H-6V604z"/><glyph glyph-name="Ibreve" unicode="Ĭ" horiz-adv-x="347" d="M175 793c135 0 163 70 163 70v78h-87s-11-35-76-35-80 35-80 35H8v-78s29-70 167-70zM72 0h203v750H72V0z"/><glyph glyph-name="ibreve" unicode="ĭ" horiz-adv-x="296" d="M56 0h184v508H56V0zm95 589c126 0 163 78 163 78v78h-87s-19-35-76-35c-56 0-80 35-80 35h-87v-78s38-78 167-78z"/><glyph glyph-name="Iogonek" unicode="Į" horiz-adv-x="347" d="M47-99c0-78 73-100 160-107h87v96c-40 0-84 9-84 54 0 33 25 48 66 56h-1v750H72V0h81C86-7 47-45 47-99z"/><glyph glyph-name="iogonek" unicode="į" horiz-adv-x="296" d="M54 593h186v161H54V593zM3-99c0-78 73-100 160-107h87v96c-40 0-84 9-84 54 0 33 25 48 66 56h8v508H56V0h53C42-7 3-45 3-99z"/><glyph glyph-name="Idotaccent" unicode="İ" horiz-adv-x="347" d="M72 797h203v152H72V797zM72 0h203v750H72V0z"/><glyph glyph-name="dotlessi" unicode="ı" horiz-adv-x="296" d="M56 0h184v508H56V0z"/><glyph glyph-name="IJ" unicode="Ĳ" horiz-adv-x="859" d="M72 0h203v750H72V0zm475-18c154 0 245 86 245 270v498H589V244c0-67-20-87-58-87-39 0-55 27-55 68H311v-78c13-71 72-165 236-165z"/><glyph glyph-name="ij" unicode="ĳ" horiz-adv-x="557" d="M56 0h184v508H56V0zm-2 593h186v161H54V593zm228-853c138 0 219 84 219 212v556H317V-47c0-43-9-60-36-60-24 0-31 22-31 39H104v-78c24-71 82-114 178-114zm34 853h186v161H316V593z"/><glyph glyph-name="Jcircumflex" unicode="Ĵ" horiz-adv-x="567" d="M255-18c154 0 245 86 245 270v498H297V244c0-67-20-87-58-87-39 0-55 27-55 68H19v-78C32 76 91-18 255-18zm184 821h153v60l-92 80H293l-92-80v-60h154l42 53 42-53z"/><glyph glyph-name="jcircumflex" unicode="ĵ" horiz-adv-x="296" d="M21-260c138 0 219 84 219 212v556H56V-47c0-43-9-60-36-60-24 0-31 22-31 39h-146v-78c24-71 82-114 178-114zm178 854h136v60l-92 96H53l-92-96v-60H98l50 77 51-77z"/><glyph glyph-name="Kcommaaccent" unicode="Ķ" horiz-adv-x="723" d="M301-205h123l65 81v72H293l8-153zm-26 509L519 0h193v79L457 394l224 278v78H509L275 451v299H72V0h203v304z"/><glyph glyph-name="kcommaaccent" unicode="ķ" horiz-adv-x="583" d="M56 0h185v201L378 0h189v70L418 264l129 175v69H376L241 317v433H56V0zm163-205h123l65 81v72H211l8-153z"/><glyph glyph-name="Lacute" unicode="Ĺ" horiz-adv-x="583" d="M72 0h490v175H275v575H72V0zm1 805h166l92 80v60H131l-58-80v-60z"/><glyph glyph-name="lacute" unicode="ĺ" horiz-adv-x="296" d="M56 0h185v750H56V0zm2 805h153l85 80v60H111l-53-80v-60z"/><glyph glyph-name="Lcommaaccent" unicode="Ļ" horiz-adv-x="583" d="M72 0h490v175H275v575H72V0zm168-205h123l65 81v72H232l8-153z"/><glyph glyph-name="lcommaaccent" unicode="ļ" horiz-adv-x="297" d="M56 0h185v750H56V0zm0-205h115l60 81v72H48l8-153z"/><glyph glyph-name="Lcaron" unicode="Ľ" horiz-adv-x="597" d="M72 0h490v175H275v575H72V0zm320 552h119l49 101v97H383l9-198z"/><glyph glyph-name="lcaron" unicode="ľ" horiz-adv-x="309" d="M56 0h185v750H56V0zm226 552h119l49 101v97H273l9-198z"/><glyph glyph-name="Ldot" unicode="Ŀ" horiz-adv-x="606" d="M380 316h189v187H380V316zM72 0h490v175H275v575H72V0z"/><glyph glyph-name="ldot" unicode="ŀ" horiz-adv-x="472" d="M56 0h185v750H56V0zm239 258h189v187H295V258z"/><glyph glyph-name="Lslash" unicode="Ł" horiz-adv-x="610" d="M589 175H302v155l108 41v175l-108-41v245H99V427l-73-28V224l73 28V0h490v175z"/><glyph glyph-name="lslash" unicode="ł" horiz-adv-x="390" d="M353 338v161l-64-30v281H104V384l-65-30V193l65 30V0h185v308l64 30z"/><glyph glyph-name="Nacute" unicode="Ń" horiz-adv-x="809" d="M72 0h193v404L544 0h193v750H544V338L265 750H72V0zm250 805h166l92 80v60H380l-58-80v-60z"/><glyph glyph-name="nacute" unicode="ń" horiz-adv-x="615" d="M56 0h185v277c0 40 19 81 76 81 46 0 62-32 62-77V0h185v324c0 105-44 203-176 203-77 0-129-46-150-86l-7 67H56V0zm159 594h145l100 96v60H281l-66-96v-60z"/><glyph glyph-name="Ncommaaccent" unicode="Ņ" horiz-adv-x="809" d="M72 0h193v404L544 0h193v750H544V338L265 750H72V0zm239-205h123l65 81v72H303l8-153z"/><glyph glyph-name="ncommaaccent" unicode="ņ" horiz-adv-x="615" d="M56 0h185v277c0 40 19 81 76 81 46 0 62-32 62-77V0h185v324c0 105-44 203-176 203-77 0-129-46-150-86l-7 67H56V0zm160-205h123l65 81v72H208l8-153z"/><glyph glyph-name="Ncaron" unicode="Ň" horiz-adv-x="809" d="M72 0h193v404L544 0h193v750H544V338L265 750H72V0zm430 803l91 80v60H440l-42-52-42 52H202v-60l93-80h207z"/><glyph glyph-name="ncaron" unicode="ň" horiz-adv-x="615" d="M56 0h185v277c0 40 19 81 76 81 46 0 62-32 62-77V0h185v324c0 105-44 203-176 203-77 0-129-46-150-86l-7 67H56V0zm330 594l91 96v60H341l-50-77-51 77H103v-60l93-96h190z"/><glyph glyph-name="napostrophe" unicode="ŉ" horiz-adv-x="615" d="M51 552h119l49 101v97H42l9-198zM56 0h185v277c0 40 19 81 76 81 46 0 62-32 62-77V0h185v324c0 105-44 203-176 203-77 0-129-46-150-86l-7 67H56V0z"/><glyph glyph-name="Eng" unicode="Ŋ" horiz-adv-x="809" d="M544 750V338L265 750H72V0h193v404L544 0v-48c0-27-12-43-36-43-25 0-38 21-38 38H305v-70c15-55 71-137 206-137 148 0 226 83 226 258v752H544z"/><glyph glyph-name="eng" unicode="ŋ" horiz-adv-x="615" d="M388 527c-77 0-129-46-150-86l-7 67H56V0h185v277c0 40 19 81 76 81 46 0 62-32 62-77V-17c0-64-17-90-67-90v-153c181 0 252 96 252 242v342c0 105-44 203-176 203z"/><glyph glyph-name="Omacron" unicode="Ō" horiz-adv-x="816" d="M408-18c223 0 372 159 372 396 0 234-149 390-372 390S36 612 36 378C36 141 185-18 408-18zm0 174c-104 0-169 88-169 222 0 130 65 216 169 216 103 0 169-86 169-216 0-134-66-222-169-222zM236 805h343v124H236V805z"/><glyph glyph-name="omacron" unicode="ō" horiz-adv-x="612" d="M306-18c173 0 275 123 275 273 0 151-102 272-275 272S31 406 31 255C31 105 133-18 306-18zm0 161c-62 0-90 51-90 112s28 111 90 111 91-50 91-111-29-112-91-112zM153 604h309v132H153V604z"/><glyph glyph-name="Obreve" unicode="Ŏ" horiz-adv-x="816" d="M408-18c223 0 372 159 372 396 0 234-149 390-372 390S36 612 36 378C36 141 185-18 408-18zm0 174c-104 0-169 88-169 222 0 130 65 216 169 216 103 0 169-86 169-216 0-134-66-222-169-222zm1 637c135 0 163 70 163 70v78h-87s-11-35-76-35-80 35-80 35h-87v-78s29-70 167-70z"/><glyph glyph-name="obreve" unicode="ŏ" horiz-adv-x="612" d="M306-18c173 0 275 123 275 273 0 151-102 272-275 272S31 406 31 255C31 105 133-18 306-18zm0 161c-62 0-90 51-90 112s28 111 90 111 91-50 91-111-29-112-91-112zm1 446c126 0 163 78 163 78v78h-87s-19-35-76-35c-56 0-80 35-80 35h-87v-78s38-78 167-78z"/><glyph glyph-name="Ohungarumlaut" unicode="Ő" horiz-adv-x="816" d="M408-18c223 0 372 159 372 396 0 234-149 390-372 390S36 612 36 378C36 141 185-18 408-18zm0 174c-104 0-169 88-169 222 0 130 65 216 169 216 103 0 169-86 169-216 0-134-66-222-169-222zM214 804h155l42 80 22 60H245l-31-80v-60zm215 0h155l92 80v60H487l-58-80v-60z"/><glyph glyph-name="ohungarumlaut" unicode="ő" horiz-adv-x="612" d="M129 594h146l43 88 22 68H160l-31-96v-60zm207 0h137l92 96v60H394l-58-96v-60zM306-18c173 0 275 123 275 273 0 151-102 272-275 272S31 406 31 255C31 105 133-18 306-18zm0 161c-62 0-90 51-90 112s28 111 90 111 91-50 91-111-29-112-91-112z"/><glyph glyph-name="OE" unicode="Œ" horiz-adv-x="1044" d="M997 0v175H701v131h257v158H701v111h296v175H515c-33 8-69 10-107 10-223 0-372-162-372-385C36 155 185-10 408-10c38 0 74 2 107 10h482zM230 375c0 124 69 210 178 210 33 0 63-2 90-9V177c-27-9-58-12-90-12-109 0-178 88-178 210z"/><glyph glyph-name="oe" unicode="œ" horiz-adv-x="965" d="M678-18C874-18 922 93 922 93v69H768s-12-36-86-36c-55 0-87 32-98 80h338s9 33 9 70c0 142-77 251-256 251-82 0-145-32-188-83-41 51-104 83-181 83-173 0-275-121-275-272C31 105 133-18 306-18c76 0 136 31 178 80 42-50 107-80 194-80zm-93 326c11 44 37 75 88 75 55 0 82-39 82-75H585zM306 143c-62 0-90 51-90 112s28 111 90 111 91-50 91-111-29-112-91-112z"/><glyph glyph-name="Racute" unicode="Ŕ" horiz-adv-x="703" d="M275 0v237h50L483 0h189v79L521 290c81 46 125 121 125 203 0 158-117 257-304 257H72V0h203zm-4 399v180h70c64 0 102-33 102-86 0-56-39-94-102-94h-70zm-36 406h166l92 80v60H293l-58-80v-60z"/><glyph glyph-name="racute" unicode="ŕ" horiz-adv-x="504" d="M56 0h185v276c0 52 17 91 59 91 46 0 48-43 49-43h150v77c-7 77-49 126-129 126-68 0-112-45-132-85l-7 66H56V0zm160 594h145l100 96v60H282l-66-96v-60z"/><glyph glyph-name="Rcommaaccent" unicode="Ŗ" horiz-adv-x="703" d="M275 0v237h50L483 0h189v79L521 290c81 46 125 121 125 203 0 158-117 257-304 257H72V0h203zm-4 399v180h70c64 0 102-33 102-86 0-56-39-94-102-94h-70zm19-604h123l65 81v72H282l8-153z"/><glyph glyph-name="rcommaaccent" unicode="ŗ" horiz-adv-x="504" d="M56 0h185v276c0 52 17 91 59 91 46 0 48-43 49-43h150v77c-7 77-49 126-129 126-68 0-112-45-132-85l-7 66H56V0zm9-205h114l61 81v72H57l8-153z"/><glyph glyph-name="Rcaron" unicode="Ř" horiz-adv-x="703" d="M275 0v237h50L483 0h189v79L521 290c81 46 125 121 125 203 0 158-117 257-304 257H72V0h203zm-4 399v180h70c64 0 102-33 102-86 0-56-39-94-102-94h-70zm163 404l91 80v60H372l-42-52-42 52H134v-60l93-80h207z"/><glyph glyph-name="rcaron" unicode="ř" horiz-adv-x="504" d="M56 0h185v276c0 52 17 91 59 91 46 0 48-43 49-43h150v77c-7 77-49 126-129 126-68 0-112-45-132-85l-7 66H56V0zm312 594l91 96v60H323l-50-77-51 77H85v-60l93-96h190z"/><glyph glyph-name="Sacute" unicode="Ś" horiz-adv-x="683" d="M343-18c181 0 302 96 302 249 0 132-98 210-242 231l-74 11c-65 10-85 33-85 62 0 44 35 67 95 67 73 0 108-37 117-85h165v78c-18 110-131 173-281 173-179 0-295-87-295-243 0-130 85-206 224-226l80-11c68-10 97-34 97-71 0-45-38-69-100-69-75 0-118 29-136 85H46v-79C77 57 167-18 343-18zm-91 823h166l92 80v60H310l-58-80v-60z"/><glyph glyph-name="sacute" unicode="ś" horiz-adv-x="532" d="M267-18c142 0 233 72 233 179 0 99-62 142-175 154l-72 8c-37 4-51 17-51 38 0 23 19 39 58 39 46 0 70-32 74-49h145v69c-22 61-92 107-215 107-135 0-223-67-223-176 0-97 60-148 170-158l69-6c41-4 58-17 58-40 0-22-18-38-67-38-50 0-85 26-91 50H35V90C55 34 142-18 267-18zm-81 612h145l100 96v60H252l-66-96v-60z"/><glyph glyph-name="Scircumflex" unicode="Ŝ" horiz-adv-x="683" d="M343-18c181 0 302 96 302 249 0 132-98 210-242 231l-74 11c-65 10-85 33-85 62 0 44 35 67 95 67 73 0 108-37 117-85h165v78c-18 110-131 173-281 173-179 0-295-87-295-243 0-130 85-206 224-226l80-11c68-10 97-34 97-71 0-45-38-69-100-69-75 0-118 29-136 85H46v-79C77 57 167-18 343-18zm42 821h153v60l-92 80H239l-92-80v-60h154l42 53 42-53z"/><glyph glyph-name="scircumflex" unicode="ŝ" horiz-adv-x="532" d="M267-18c142 0 233 72 233 179 0 99-62 142-175 154l-72 8c-37 4-51 17-51 38 0 23 19 39 58 39 46 0 70-32 74-49h145v69c-22 61-92 107-215 107-135 0-223-67-223-176 0-97 60-148 170-158l69-6c41-4 58-17 58-40 0-22-18-38-67-38-50 0-85 26-91 50H35V90C55 34 142-18 267-18zm49 612h136v60l-92 96H170l-92-96v-60h137l50 77 51-77z"/><glyph glyph-name="Scedilla" unicode="Ş" horiz-adv-x="683" d="M504-124c0 52-45 77-98 84v26C552 6 645 97 645 231c0 132-98 210-242 231l-74 11c-65 10-85 33-85 62 0 44 35 67 95 67 73 0 108-37 117-85h165v78c-18 110-131 173-281 173-179 0-295-87-295-243 0-130 85-206 224-226l80-11c68-10 97-34 97-71 0-45-38-69-100-69-75 0-118 29-136 85H46v-79C72 74 137 9 258-11v-62c37 0 71-7 71-34 0-29-29-37-75-37v-87h95c93 9 155 30 155 107z"/><glyph glyph-name="scedilla" unicode="ş" horiz-adv-x="532" d="M441-123c0 52-45 77-98 84v29c98 21 157 85 157 171 0 99-62 142-175 154l-72 8c-37 4-51 17-51 38 0 23 19 39 58 39 46 0 70-32 74-49h145v69c-22 61-92 107-215 107-135 0-223-67-223-176 0-97 60-148 170-158l69-6c41-4 58-17 58-40 0-22-18-38-67-38-50 0-85 26-91 50H35V90C51 46 109 4 195-12v-60c37 0 71-7 71-34 0-29-29-37-75-37v-87h95c93 9 155 30 155 107z"/><glyph glyph-name="Scaron" unicode="Š" horiz-adv-x="683" d="M343-18c181 0 302 96 302 249 0 132-98 210-242 231l-74 11c-65 10-85 33-85 62 0 44 35 67 95 67 73 0 108-37 117-85h165v78c-18 110-131 173-281 173-179 0-295-87-295-243 0-130 85-206 224-226l80-11c68-10 97-34 97-71 0-45-38-69-100-69-75 0-118 29-136 85H46v-79C77 57 167-18 343-18zm109 821l91 80v60H390l-42-52-42 52H152v-60l93-80h207z"/><glyph glyph-name="scaron" unicode="š" horiz-adv-x="532" d="M267-18c142 0 233 72 233 179 0 99-62 142-175 154l-72 8c-37 4-51 17-51 38 0 23 19 39 58 39 46 0 70-32 74-49h145v69c-22 61-92 107-215 107-135 0-223-67-223-176 0-97 60-148 170-158l69-6c41-4 58-17 58-40 0-22-18-38-67-38-50 0-85 26-91 50H35V90C55 34 142-18 267-18zm93 612l91 96v60H315l-50-77-51 77H77v-60l93-96h190z"/><glyph glyph-name="Tcommaaccent" unicode="Ţ" horiz-adv-x="641" d="M219 0h203v575h198v175H21V575h198V0zm12-205h123l65 81v72H223l8-153z"/><glyph glyph-name="tcommaaccent" unicode="ţ" horiz-adv-x="504" d="M205-205h123l65 81v72H197l8-153zm92 187c103 0 165 45 190 116v69H350c0-18-10-33-33-33-26 0-40 12-40 55v171h203v148H277v130H102l-9-130H21V360h71V187C92 63 170-18 297-18z"/><glyph glyph-name="Tcaron" unicode="Ť" horiz-adv-x="641" d="M219 0h203v575h198v175H21V575h198V0zm206 803l91 80v60H363l-42-52-42 52H125v-60l93-80h207z"/><glyph glyph-name="tcaron" unicode="ť" horiz-adv-x="504" d="M369 552h119l49 101v97H360l9-198zM297-18c103 0 165 45 190 116v69H350c0-18-10-33-33-33-26 0-40 12-40 55v171h203v148H277v130H102l-9-130H21V360h71V187C92 63 170-18 297-18z"/><glyph glyph-name="Tbar" unicode="Ŧ" horiz-adv-x="655" d="M559 280v149H429v146h198v175H28V575h198V429H97V280h129V0h203v280h130z"/><glyph glyph-name="tbar" unicode="ŧ" horiz-adv-x="507" d="M489 98v69H352c0-18-10-33-33-33-26 0-40 12-40 55v33h202v98H279v40h203v148H279v130H104l-9-130H23V360h71v-40H22v-98h72v-35C94 63 172-18 299-18c103 0 165 45 190 116z"/><glyph glyph-name="Utilde" unicode="Ũ" horiz-adv-x="760" d="M386-18c185 0 309 133 309 296v472H502V277c0-66-41-121-119-121-73 0-115 55-115 121v473H65V278C65 115 189-18 386-18zm81 809c84 0 117 66 108 156H455c-4-17-18-24-34-24-39 0-62 29-120 29-79 0-121-69-112-156h120c4 14 14 24 35 24 40 0 67-29 123-29z"/><glyph glyph-name="utilde" unicode="ũ" horiz-adv-x="607" d="M227-18c73 0 121 45 142 85l7-67h175v508H366V231c0-39-18-81-72-81-43 0-58 32-58 77v281H51V185C51 79 96-18 227-18zm160 611c84 0 117 67 108 156H383c-4-23-17-32-34-32-48 0-56 37-128 37-79 0-121-68-112-156h112c4 18 14 33 35 33 50 0 61-38 131-38z"/><glyph glyph-name="Umacron" unicode="Ū" horiz-adv-x="760" d="M386-18c185 0 309 133 309 296v472H502V277c0-66-41-121-119-121-73 0-115 55-115 121v473H65V278C65 115 189-18 386-18zM211 805h343v124H211V805z"/><glyph glyph-name="umacron" unicode="ū" horiz-adv-x="607" d="M227-18c73 0 121 45 142 85l7-67h175v508H366V231c0-39-18-81-72-81-43 0-58 32-58 77v281H51V185C51 79 96-18 227-18zm-78 622h309v132H149V604z"/><glyph glyph-name="Ubreve" unicode="Ŭ" horiz-adv-x="760" d="M386-18c185 0 309 133 309 296v472H502V277c0-66-41-121-119-121-73 0-115 55-115 121v473H65V278C65 115 189-18 386-18zm-2 811c135 0 163 70 163 70v78h-87s-11-35-76-35-80 35-80 35h-87v-78s29-70 167-70z"/><glyph glyph-name="ubreve" unicode="ŭ" horiz-adv-x="607" d="M227-18c73 0 121 45 142 85l7-67h175v508H366V231c0-39-18-81-72-81-43 0-58 32-58 77v281H51V185C51 79 96-18 227-18zm75 607c126 0 163 78 163 78v78h-87s-19-35-76-35c-56 0-80 35-80 35h-87v-78s38-78 167-78z"/><glyph glyph-name="Uring" unicode="Ů" horiz-adv-x="760" d="M381 783c121 0 166 39 166 93 0 53-45 93-166 93-120 0-165-40-165-93 0-54 45-93 165-93zm0 67c-24 0-47 10-47 26s23 26 47 26c25 0 47-10 47-26s-22-26-47-26zm5-868c185 0 309 133 309 296v472H502V277c0-66-41-121-119-121-73 0-115 55-115 121v473H65V278C65 115 189-18 386-18z"/><glyph glyph-name="uring" unicode="ů" horiz-adv-x="607" d="M227-18c73 0 121 45 142 85l7-67h175v508H366V231c0-39-18-81-72-81-43 0-58 32-58 77v281H51V185C51 79 96-18 227-18zm78 586c115 0 157 44 157 98 0 53-42 98-157 98-114 0-157-45-157-98 0-54 43-98 157-98zm0 68c-20 0-38 11-38 30s18 30 38 30 39-11 39-30-19-30-39-30z"/><glyph glyph-name="Uhungarumlaut" unicode="Ű" horiz-adv-x="760" d="M386-18c185 0 309 133 309 296v472H502V277c0-66-41-121-119-121-73 0-115 55-115 121v473H65V278C65 115 189-18 386-18zM188 805h155l42 80 22 60H219l-31-80v-60zm215 0h155l92 80v60H461l-58-80v-60z"/><glyph glyph-name="uhungarumlaut" unicode="ű" horiz-adv-x="607" d="M227-18c73 0 121 45 142 85l7-67h175v508H366V231c0-39-18-81-72-81-43 0-58 32-58 77v281H51V185C51 79 96-18 227-18zm-95 612h146l43 88 22 68H163l-31-96v-60zm207 0h137l92 96v60H397l-58-96v-60z"/><glyph glyph-name="Uogonek" unicode="Ų" horiz-adv-x="760" d="M513-110c-40 0-83 9-83 51 0 28 15 41 49 53 132 36 216 150 216 284v472H502V277c0-66-41-121-119-121-73 0-115 55-115 121v473H65V278C65 129 169 5 337-15c-45-14-70-44-70-84 0-78 72-100 159-107h87v96z"/><glyph glyph-name="uogonek" unicode="ų" horiz-adv-x="607" d="M322-99c0-78 73-100 160-107h87v96c-40 0-84 9-84 54 0 33 25 48 66 56v508H366V231c0-39-18-81-72-81-43 0-58 32-58 77v281H51V185C51 79 96-18 227-18c73 0 121 45 142 85l7-67h52c-67-7-106-45-106-99z"/><glyph glyph-name="Wcircumflex" unicode="Ŵ" horiz-adv-x="1025" d="M618 0h221l167 680v70H816l-95-488-112 488H428L309 262l-89 488H21v-80L186 0h221l105 398L618 0zm-58 803h153v60l-92 80H414l-92-80v-60h154l42 53 42-53z"/><glyph glyph-name="wcircumflex" unicode="ŵ" horiz-adv-x="829" d="M482 0h183l146 439v69H640l-62-273-77 273H338l-74-273-65 273H19v-70L161 0h183l66 254L482 0zm-15 594h136v60l-92 96H321l-92-96v-60h137l50 77 51-77z"/><glyph glyph-name="Ycircumflex" unicode="Ŷ" horiz-adv-x="675" d="M237 0h203v289l228 383v78H497L351 471 198 750H4v-79l233-381V0zm148 803h153v60l-92 80H239l-92-80v-60h154l42 53 42-53z"/><glyph glyph-name="ycircumflex" unicode="ŷ" horiz-adv-x="578" d="M250-250l319 689v69H403L295 232l-98 276H17v-70L193 24 83-180v-70h167zm100 844h136v60l-92 96H204l-92-96v-60h137l50 77 51-77z"/><glyph glyph-name="Ydieresis" unicode="Ÿ" horiz-adv-x="675" d="M237 0h203v289l228 383v78H497L351 471 198 750H4v-79l233-381V0zm-95 797h178v152H142V797zm222 0h178v152H364V797z"/><glyph glyph-name="Zacute" unicode="Ź" horiz-adv-x="660" d="M621 0v175H278l330 410v165H53V575h316L39 165V0h582zM243 805h166l92 80v60H301l-58-80v-60z"/><glyph glyph-name="zacute" unicode="ź" horiz-adv-x="515" d="M475 0v148H258l212 222v138H45V360h207L40 138V0h435zM178 594h145l100 96v60H244l-66-96v-60z"/><glyph glyph-name="Zdotaccent" unicode="Ż" horiz-adv-x="660" d="M621 0v175H278l330 410v165H53V575h316L39 165V0h582zM227 797h203v152H227V797z"/><glyph glyph-name="zdotaccent" unicode="ż" horiz-adv-x="515" d="M475 0v148H258l212 222v138H45V360h207L40 138V0h435zM168 593h186v161H168V593z"/><glyph glyph-name="Zcaron" unicode="Ž" horiz-adv-x="660" d="M621 0v175H278l330 410v165H53V575h316L39 165V0h582zM439 803l91 80v60H377l-42-52-42 52H139v-60l93-80h207z"/><glyph glyph-name="zcaron" unicode="ž" horiz-adv-x="515" d="M475 0v148H258l212 222v138H45V360h207L40 138V0h435zM355 594l91 96v60H310l-50-77-51 77H72v-60l93-96h190z"/><glyph glyph-name="florin" unicode="ƒ" horiz-adv-x="810" d="M187-191c150 0 215 87 238 212l53 289h165v148H506l16 89c7 39 20 60 56 60 31 0 40-17 40-30h141v69c-21 71-81 114-183 114-150 0-215-86-239-213l-16-89H216V310h78L241 22c-7-39-20-60-56-61-31 1-40 18-40 31H4v-70c21-70 81-113 183-113z"/><glyph glyph-name="Aringacute" unicode="Ǻ" horiz-adv-x="722" d="M277 1006h166l92 80v60H335l-58-80v-60zM178 0l43 132h261L524 0h186v80L473 750H248L10 70V0h168zm253 298H273l80 252 78-252zm-73 487c121 0 166 39 166 93 0 53-45 93-166 93-120 0-165-40-165-93 0-54 45-93 165-93zm0 67c-24 0-47 10-47 26s23 26 47 26c25 0 47-10 47-26s-22-26-47-26z"/><glyph glyph-name="aringacute" unicode="ǻ" horiz-adv-x="571" d="M194-18c77 0 121 33 146 76l8-58h173v305c0 146-80 222-248 222C96 527 56 408 56 408v-69h146s15 35 69 35c43 0 65-21 65-63v-17s-35 8-80 8c-150 0-227-59-227-161C29 54 83-18 194-18zm70 139c-31 0-53 12-53 43 0 27 17 46 62 46 37 0 63-4 63-4v-20c0-29-18-65-72-65zm24 448c115 0 157 44 157 98 0 53-42 98-157 98-114 0-157-45-157-98 0-54 43-98 157-98zm0 68c-20 0-38 11-38 30s18 30 38 30 39-11 39-30-19-30-39-30zm-76 165h166l92 80v60H270l-58-80v-60z"/><glyph glyph-name="AEacute" unicode="Ǽ" horiz-adv-x="1017" d="M7 78V0h156l69 124h239V0h499v175H674v131h257v158H674v111h296v175H374L7 78zm315 212l149 275V290H322zm273 515h166l92 80v60H653l-58-80v-60z"/><glyph glyph-name="aeacute" unicode="ǽ" horiz-adv-x="905" d="M618-18C814-18 862 93 862 93v69H708s-12-36-86-36c-55 0-87 32-98 80h338s9 33 9 70c0 142-77 251-249 251-73 0-131-28-172-71-38 45-97 71-177 71C96 527 56 408 56 408v-69h145s16 35 69 35c44 0 69-21 69-63v-11s-36 8-81 8c-152 0-229-65-229-167 0-93 77-159 198-159 92 0 158 27 204 79 41-50 103-79 187-79zm-93 326c11 44 37 75 88 75 55 0 82-39 82-75H525zM265 113c-34 0-54 12-54 40 0 21 15 44 64 44 38 0 64-5 64-5v-12c0-31-29-67-74-67zm129 481h145l100 96v60H460l-66-96v-60z"/><glyph glyph-name="Oslashacute" unicode="Ǿ" horiz-adv-x="816" d="M408-18c223 0 372 159 372 396 0 113-36 208-97 277l88 135H585l-32-48c-43 17-92 26-145 26-223 0-372-156-372-390 0-115 35-212 97-281L43-40h186l32 49c44-18 93-27 147-27zM230 378c0 135 69 224 178 224 17 0 34-2 49-8L249 276c-13 29-19 64-19 102zm178-230c-19 0-36 2-51 8l211 320c11-28 17-61 17-98 0-139-69-230-177-230zm-77 657h166l92 80v60H389l-58-80v-60z"/><glyph glyph-name="oslashacute" unicode="ǿ" horiz-adv-x="612" d="M306-18c173 0 275 123 275 273 0 80-28 152-81 201l68 104H452l-35-53c-33 13-70 20-111 20-173 0-275-121-275-272 0-80 29-153 83-203L40-59h117l40 59c32-12 69-18 109-18zM205 258c0 62 37 115 100 115 8 0 15 0 21-2L214 203c-9 16-9 35-9 55zm100-128c-8 0-14 1-20 3l113 169c6-13 8-28 8-44 0-68-37-128-101-128zm-72 464h145l100 96v60H299l-66-96v-60z"/><glyph glyph-name="Scommaaccent" unicode="Ș" horiz-adv-x="683" d="M343-18c181 0 302 96 302 249 0 132-98 210-242 231l-74 11c-65 10-85 33-85 62 0 44 35 67 95 67 73 0 108-37 117-85h165v78c-18 110-131 173-281 173-179 0-295-87-295-243 0-130 85-206 224-226l80-11c68-10 97-34 97-71 0-45-38-69-100-69-75 0-118 29-136 85H46v-79C77 57 167-18 343-18zm-82-187h123l65 81v72H253l8-153z"/><glyph glyph-name="scommaaccent" unicode="ș" horiz-adv-x="532" d="M267-18c142 0 233 72 233 179 0 99-62 142-175 154l-72 8c-37 4-51 17-51 38 0 23 19 39 58 39 46 0 70-32 74-49h145v69c-22 61-92 107-215 107-135 0-223-67-223-176 0-97 60-148 170-158l69-6c41-4 58-17 58-40 0-22-18-38-67-38-50 0-85 26-91 50H35V90C55 34 142-18 267-18zm-86-187h123l65 81v72H173l8-153z"/><glyph glyph-name="uni0237" unicode="ȷ" horiz-adv-x="296" d="M21-260c138 0 219 84 219 212v556H56V-47c0-43-9-60-36-60-24 0-31 22-31 39h-146v-78c24-71 82-114 178-114z"/><glyph glyph-name="circumflex" unicode="ˆ" horiz-adv-x="500" d="M266 594h136v60l-92 96H120l-92-96v-60h137l50 77 51-77z"/><glyph glyph-name="caron" unicode="ˇ" horiz-adv-x="424" d="M311 594l91 96v60H266l-50-77-51 77H28v-60l93-96h190z"/><glyph glyph-name="breve" unicode="˘" horiz-adv-x="412" d="M225 589c126 0 163 78 163 78v78h-87s-19-35-76-35c-56 0-80 35-80 35H58v-78s38-78 167-78z"/><glyph glyph-name="dotaccent" unicode="˙" horiz-adv-x="260" d="M75 593h186v161H75V593z"/><glyph glyph-name="ring" unicode="˚" horiz-adv-x="500" d="M210 568c115 0 157 44 157 98 0 53-42 98-157 98-114 0-157-45-157-98 0-54 43-98 157-98zm0 68c-20 0-38 11-38 30s18 30 38 30 39-11 39-30-19-30-39-30z"/><glyph glyph-name="ogonek" unicode="˛" horiz-adv-x="295" d="M181-206h87v96c-40 0-84 9-84 54 0 33 25 48 66 56H127C60-7 21-45 21-99c0-78 73-100 160-107z"/><glyph glyph-name="tilde" unicode="˜" horiz-adv-x="453" d="M345 593c84 0 117 67 108 156H341c-4-23-17-32-34-32-48 0-56 37-128 37-79 0-121-68-112-156h112c4 18 14 33 35 33 50 0 61-38 131-38z"/><glyph glyph-name="hungarumlaut" unicode="˝" horiz-adv-x="484" d="M26 594h146l43 88 22 68H57l-31-96v-60zm207 0h137l92 96v60H291l-58-96v-60z"/><glyph glyph-name="afii10023" unicode="Ё" horiz-adv-x="618" d="M72 0h499v175H275v131h257v158H275v111h296v175H72V0zm50 797h178v152H122V797zm222 0h178v152H344V797z"/><glyph glyph-name="afii10051" unicode="Ђ" horiz-adv-x="839" d="M587-10c143 0 234 104 234 252 0 141-87 248-237 248-77 0-132-30-162-68v153h197v175H21V575h198V0h203v211c0 55 39 100 115 100 48 0 81-25 81-75 0-47-24-76-65-76-27 0-51 6-55 7V0c18-5 49-10 89-10z"/><glyph glyph-name="afii10052" unicode="Ѓ" horiz-adv-x="566" d="M248 805h166l92 80v60H306l-58-80v-60zM72 0h203v575h270v175H72V0z"/><glyph glyph-name="afii10053" unicode="Є" horiz-adv-x="734" d="M699 167v78H534c-11-45-57-88-130-88-80 0-143 45-155 142h259v157H250c12 93 76 138 154 138 75 0 115-41 125-84h165v78c-16 85-101 180-290 180-221 0-367-156-367-394C37 132 174-18 404-18c157 0 276 90 295 185z"/><glyph glyph-name="afii10054" unicode="Ѕ" horiz-adv-x="683" d="M343-18c181 0 302 96 302 249 0 132-98 210-242 231l-74 11c-65 10-85 33-85 62 0 44 35 67 95 67 73 0 108-37 117-85h165v78c-18 110-131 173-281 173-179 0-295-87-295-243 0-130 85-206 224-226l80-11c68-10 97-34 97-71 0-45-38-69-100-69-75 0-118 29-136 85H46v-79C77 57 167-18 343-18z"/><glyph glyph-name="afii10055" unicode="І" horiz-adv-x="347" d="M72 0h203v750H72V0z"/><glyph glyph-name="afii10056" unicode="Ї" horiz-adv-x="347" d="M-26 797h178v152H-26V797zm222 0h178v152H196V797zM72 0h203v750H72V0z"/><glyph glyph-name="afii10057" unicode="Ј" horiz-adv-x="567" d="M255-18c154 0 245 86 245 270v498H297V244c0-67-20-87-58-87-39 0-55 27-55 68H19v-78C32 76 91-18 255-18z"/><glyph glyph-name="afii10058" unicode="Љ" horiz-adv-x="1055" d="M20 0h62c174 0 230 150 234 385l3 190h145V0h263c196 0 306 116 306 266 0 135-105 260-306 260h-60v224H137l-6-354c-2-134-25-210-85-210H20V0zm643 170v185h63c65 0 103-38 103-91 0-60-39-94-103-94h-63z"/><glyph glyph-name="afii10059" unicode="Њ" horiz-adv-x="1107" d="M275 313h235V0h280c191 0 297 107 297 246 0 127-102 241-297 241h-77v263H510V487H275v263H72V0h203v313zm434-143v147h80c60 0 95-29 95-72 0-49-36-75-95-75h-80z"/><glyph glyph-name="afii10060" unicode="Ћ" horiz-adv-x="849" d="M219 0h203v210c0 55 33 101 95 101 63 0 95-43 95-103V0h203v229c0 169-90 261-228 261-81 0-137-31-165-68v153h197v175H21V575h198V0z"/><glyph glyph-name="afii10061" unicode="Ќ" horiz-adv-x="723" d="M302 805h166l92 80v60H360l-58-80v-60zm-27-501L519 0h193v79L457 394l224 278v78H509L275 451v299H72V0h203v304z"/><glyph glyph-name="afii10062" unicode="Ў" horiz-adv-x="693" d="M331 0l355 672v78H515L364 445 205 750H11v-79l238-439-89-154V0h171zm33 801c106 0 170 41 186 79v66H404c0-22-17-49-40-49-25 0-41 27-40 49H178v-66c17-38 80-79 186-79z"/><glyph glyph-name="afii10145" unicode="Џ" horiz-adv-x="790" d="M303-150h184V0h231v750H515V175H275v575H72V0h231v-150z"/><glyph glyph-name="afii10017" unicode="А" horiz-adv-x="722" d="M178 0l43 132h261L524 0h186v80L473 750H248L10 70V0h168zm253 298H273l80 252 78-252z"/><glyph glyph-name="afii10018" unicode="Б" horiz-adv-x="676" d="M72 0h283c190 0 297 107 297 247 0 123-102 233-297 233h-80v95h314v175H72V0zm199 170v157h83c59 0 95-32 95-78 0-51-36-79-95-79h-83z"/><glyph glyph-name="afii10019" unicode="В" horiz-adv-x="713" d="M72 0h342c166 0 265 86 265 224 0 78-52 143-132 166 62 22 102 83 102 158 0 122-91 202-239 202H72V0zm194 458v130h108c48 0 79-21 79-66 0-41-33-64-80-64H266zm0-296v143h120c63 0 94-30 94-70s-33-73-94-73H266z"/><glyph glyph-name="afii10020" unicode="Г" horiz-adv-x="566" d="M72 0h203v575h270v175H72V0z"/><glyph glyph-name="afii10021" unicode="Д" horiz-adv-x="837" d="M11-150h185V0h437v-150h185v325H710v575H153l-6-318c-3-142-42-232-75-257H11v-325zm266 325c24 37 50 111 54 244l3 156h172V175H277z"/><glyph glyph-name="afii10022" unicode="Е" horiz-adv-x="618" d="M72 0h499v175H275v131h257v158H275v111h296v175H72V0z"/><glyph glyph-name="afii10024" unicode="Ж" horiz-adv-x="1043" d="M424 304V0h195v304L834 0h193v79L798 395l206 277v78H833L619 452v298H424V452L211 750H34v-79l210-284L20 79V0h189l215 304z"/><glyph glyph-name="afii10025" unicode="З" horiz-adv-x="651" d="M323-18c189 0 291 95 291 238 0 88-48 152-131 174 68 28 107 91 107 164 0 135-107 210-270 210-181 0-261-92-277-177v-78h164c6 53 37 89 102 89 48 0 86-28 86-72 0-41-29-77-89-77h-84V304h101c66 0 97-34 97-76 0-48-37-79-101-79-77 0-115 45-122 95H33v-79C51 70 152-18 323-18z"/><glyph glyph-name="afii10026" unicode="И" horiz-adv-x="811" d="M72 0h203l261 436V0h203v750H536L275 312v438H72V0z"/><glyph glyph-name="afii10027" unicode="Й" horiz-adv-x="811" d="M72 0h203l261 436V0h203v750H536L275 312v438H72V0zm330 801c106 0 170 41 186 79v66H442c0-22-17-49-40-49-25 0-41 27-40 49H216v-66c17-38 80-79 186-79z"/><glyph glyph-name="afii10028" unicode="К" horiz-adv-x="723" d="M275 304L519 0h193v79L457 394l224 278v78H509L275 451v299H72V0h203v304z"/><glyph glyph-name="afii10029" unicode="Л" horiz-adv-x="746" d="M19 0h62c174 0 230 150 234 385l3 190h153V0h203v750H136l-6-354c-2-134-25-210-85-210H19V0z"/><glyph glyph-name="afii10030" unicode="М" horiz-adv-x="939" d="M397 136h135l132 307V0h203v750H619L470 394 320 750H72V0h193v443l132-307z"/><glyph glyph-name="afii10031" unicode="Н" horiz-adv-x="800" d="M72 0h203v298h250V0h203v750H525V472H275v278H72V0z"/><glyph glyph-name="afii10032" unicode="О" horiz-adv-x="816" d="M408-18c223 0 372 159 372 396 0 234-149 390-372 390S36 612 36 378C36 141 185-18 408-18zm0 174c-104 0-169 88-169 222 0 130 65 216 169 216 103 0 169-86 169-216 0-134-66-222-169-222z"/><glyph glyph-name="afii10033" unicode="П" horiz-adv-x="790" d="M72 0h203v575h240V0h203v750H72V0z"/><glyph glyph-name="afii10034" unicode="Р" horiz-adv-x="673" d="M72 0h203v224h66c203 0 305 131 305 267 0 159-118 259-305 259H72V0zm199 395v185h69c64 0 103-34 103-89 0-57-40-96-103-96h-69z"/><glyph glyph-name="afii10035" unicode="С" horiz-adv-x="724" d="M403-18c167 0 270 84 295 185v78H534c-12-48-57-88-130-88-98 0-164 75-164 218 0 147 67 219 164 219 74 0 115-36 125-84h164v78c-19 82-101 180-290 180-220 0-366-147-366-394C37 132 181-18 403-18z"/><glyph glyph-name="afii10036" unicode="Т" horiz-adv-x="641" d="M219 0h203v575h198v175H21V575h198V0z"/><glyph glyph-name="afii10037" unicode="У" horiz-adv-x="693" d="M331 0l355 672v78H515L364 445 205 750H11v-79l238-439-89-154V0h171z"/><glyph glyph-name="afii10038" unicode="Ф" horiz-adv-x="915" d="M356-10h203v76c199 4 330 143 330 310 0 168-131 308-330 312v72H356v-72C157 684 26 545 26 378 26 210 157 70 356 66v-76zm0 238c-89 4-131 70-131 150 0 79 42 145 131 149V228zm203-1v299c89-4 131-69 131-150 0-79-42-145-131-149z"/><glyph glyph-name="afii10039" unicode="Х" horiz-adv-x="709" d="M22 0h172l150 238L496 0h193v79L478 386l195 286v78H501L371 524 228 750H33v-79l201-293L22 78V0z"/><glyph glyph-name="afii10040" unicode="Ц" horiz-adv-x="850" d="M642-150h184v325H718v575H515V175H275v575H72V0h570v-150z"/><glyph glyph-name="afii10041" unicode="Ч" horiz-adv-x="734" d="M459 0h203v750H459V441H359c-85 0-119 41-119 131v178H37V572c0-214 109-301 319-301h103V0z"/><glyph glyph-name="afii10042" unicode="Ш" horiz-adv-x="1067" d="M72 0h923v750H792V175H635v575H432V175H275v575H72V0z"/><glyph glyph-name="afii10043" unicode="Щ" horiz-adv-x="1127" d="M919-150h184v325H995v575H792V175H635v575H432V175H275v575H72V0h847v-150z"/><glyph glyph-name="afii10044" unicode="Ъ" horiz-adv-x="780" d="M453 0c195 0 305 116 305 266 0 135-104 260-305 260h-69v224H21V575h160V0h272zm-73 170v185h72c64 0 103-38 103-91 0-60-39-94-103-94h-72z"/><glyph glyph-name="afii10045" unicode="Ы" horiz-adv-x="976" d="M72 0h272c195 0 305 116 305 266 0 135-105 260-305 260h-69v224H72V0zm629 0h203v750H701V0zM271 170v185h72c64 0 103-38 103-91 0-60-40-94-103-94h-72z"/><glyph glyph-name="afii10046" unicode="Ь" horiz-adv-x="671" d="M72 0h272c195 0 305 116 305 266 0 135-105 260-305 260h-69v224H72V0zm199 170v185h72c64 0 103-38 103-91 0-60-40-94-103-94h-72z"/><glyph glyph-name="afii10047" unicode="Э" horiz-adv-x="733" d="M339-18c225 0 357 151 357 395 0 237-139 391-356 391-193 0-282-104-300-180v-78h164c10 40 57 84 136 84 86 0 136-51 147-138H230V299h256c-12-94-61-142-150-142-76 0-126 47-137 88H34v-78C66 55 179-18 339-18z"/><glyph glyph-name="afii10048" unicode="Ю" horiz-adv-x="1092" d="M695-18c217 0 360 161 360 396 0 232-143 390-360 390-187 0-318-116-352-296h-68v278H72V0h203v298h65C369 108 503-18 695-18zm0 174c-98 0-158 89-158 222 0 129 60 216 157 216 98 0 158-87 158-216 0-133-60-222-157-222z"/><glyph glyph-name="afii10049" unicode="Я" horiz-adv-x="706" d="M431 246V0h203v750H350c-184 0-300-98-300-253 0-98 59-171 133-201L34 79V0h180l158 246h59zm-80 162c-61 0-98 36-98 89 0 52 37 83 98 83h84V408h-84z"/><glyph glyph-name="afii10065" unicode="а" horiz-adv-x="571" d="M194-18c77 0 121 33 146 76l8-58h173v305c0 146-80 222-248 222C96 527 56 408 56 408v-69h146s15 35 69 35c43 0 65-21 65-63v-17s-35 8-80 8c-150 0-227-59-227-161C29 54 83-18 194-18zm70 139c-31 0-53 12-53 43 0 27 17 46 62 46 37 0 63-4 63-4v-20c0-29-18-65-72-65z"/><glyph glyph-name="afii10066" unicode="б" horiz-adv-x="637" d="M324-18c176 0 281 121 281 269 0 159-85 267-237 267-71 0-129-27-161-76 7 89 34 127 127 136l67 6c115 11 156 45 177 110v70H441s-8-16-57-21l-52-4C112 720 43 579 43 360v-78C43 101 147-18 324-18zm0 161c-65 0-96 48-96 108 0 59 30 106 96 106s97-47 97-106c0-60-31-108-97-108z"/><glyph glyph-name="afii10067" unicode="в" horiz-adv-x="567" d="M56 0h291c111 0 188 50 188 153 0 57-34 101-95 119 47 19 75 59 75 110 0 88-73 135-179 135H56V0zm176 325v70h54c29 0 48-9 48-34 0-24-16-36-48-36h-54zm0-203v80h66c37 0 56-13 56-40s-21-40-56-40h-66z"/><glyph glyph-name="afii10068" unicode="г" horiz-adv-x="449" d="M56 0h185v360h188v148H56V0z"/><glyph glyph-name="afii10069" unicode="д" horiz-adv-x="655" d="M18-140h167V0h278v-140h166v288h-72v360H119l-14-215c-6-79-17-126-42-145H18v-288zm213 288c18 33 28 77 31 131l5 85h110V148H231z"/><glyph glyph-name="afii10070" unicode="е" horiz-adv-x="599" d="M312-18C508-18 556 93 556 93v69H403s-12-36-87-36c-55 0-87 32-98 80h338s10 33 10 70c0 142-78 251-257 251-176 0-278-125-278-276 0-149 92-269 281-269zm-93 326c11 44 38 75 88 75 55 0 83-39 83-75H219z"/><glyph glyph-name="afii10072" unicode="ж" horiz-adv-x="858" d="M33 0h181l123 201V0h184v201L644 0h185v70L693 264l126 175v69H648L521 317v191H337V317L209 508H34v-68l131-177L33 70V0z"/><glyph glyph-name="afii10073" unicode="з" horiz-adv-x="525" d="M258-18c148 0 235 56 235 163 0 64-34 109-103 127 62 19 83 59 83 110 0 91-76 145-209 145C87 527 41 423 36 415v-69h150c2 6 14 52 65 52 38 0 53-20 53-42 0-28-15-49-57-49h-63V202h69c53 0 68-22 68-46 0-25-17-47-62-47-63 0-71 47-74 53H31V93c6-8 46-111 227-111z"/><glyph glyph-name="afii10074" unicode="и" horiz-adv-x="629" d="M56 0h183l149 266V0h185v508H390L241 243v265H56V0z"/><glyph glyph-name="afii10075" unicode="й" horiz-adv-x="629" d="M56 0h183l149 266V0h185v508H390L241 243v265H56V0zm257 588c99 0 155 49 169 90v68H352c0-29-9-59-39-59-32 0-40 30-39 59H144v-68c13-41 71-90 169-90z"/><glyph glyph-name="afii10076" unicode="к" horiz-adv-x="587" d="M56 0h185v201L378 0h189v70L418 264l130 175v69H377L241 317v191H56V0z"/><glyph glyph-name="afii10077" unicode="л" horiz-adv-x="591" d="M24 0h53c149 0 182 105 184 244l1 117h88V0h185v508H106l-5-240c-1-71-17-110-68-111h-9V0z"/><glyph glyph-name="afii10078" unicode="м" horiz-adv-x="779" d="M316 66h138l93 222V0h176v508H489l-97-236-99 236H56V0h167v286l93-220z"/><glyph glyph-name="afii10079" unicode="н" horiz-adv-x="619" d="M56 0h185v181h137V0h185v508H378V330H241v178H56V0z"/><glyph glyph-name="afii10080" unicode="о" horiz-adv-x="612" d="M306-18c173 0 275 123 275 273 0 151-102 272-275 272S31 406 31 255C31 105 133-18 306-18zm0 161c-62 0-90 51-90 112s28 111 90 111 91-50 91-111-29-112-91-112z"/><glyph glyph-name="afii10081" unicode="п" horiz-adv-x="609" d="M56 0h185v360h127V0h185v508H56V0z"/><glyph glyph-name="afii10082" unicode="р" horiz-adv-x="653" d="M56-250h185V62c34-52 89-80 160-80 131 0 219 118 219 274 0 150-79 271-219 271-72 0-133-35-163-87l-7 68H56v-758zm281 401c-56 0-96 44-96 104s40 102 97 102c60 0 97-44 97-101 0-60-37-105-98-105z"/><glyph glyph-name="afii10083" unicode="с" horiz-adv-x="554" d="M301-18c179 0 219 135 219 135v69H375s-9-43-74-43c-57 0-84 47-84 108 0 62 27 115 84 115 62 0 73-42 73-42h145v69s-37 134-218 134C132 527 32 402 32 251c0-147 89-269 269-269z"/><glyph glyph-name="afii10084" unicode="т" horiz-adv-x="494" d="M154 0h185v360h135v148H20V360h134V0z"/><glyph glyph-name="afii10085" unicode="у" horiz-adv-x="578" d="M250-250l319 689v69H403L295 232l-98 276H17v-70L193 24 83-180v-70h167z"/><glyph glyph-name="afii10086" unicode="ф" horiz-adv-x="800" d="M308-250h184v232c173 5 277 121 277 271S665 522 492 526v181H308V526C135 521 31 406 31 255 31 106 135-14 308-18v-232zm0 390c-62 3-93 52-93 115s31 110 93 114V140zm184 0v229c61-4 92-52 92-116 0-63-31-109-92-113z"/><glyph glyph-name="afii10087" unicode="х" horiz-adv-x="585" d="M26 0h167l90 126L375 0h184v70L403 256l153 183v69H389l-87-121-89 121H29v-70l152-180L26 69V0z"/><glyph glyph-name="afii10088" unicode="ц" horiz-adv-x="651" d="M458-140h167v288h-72v360H368V148H241v360H56V0h402v-140z"/><glyph glyph-name="afii10089" unicode="ч" horiz-adv-x="583" d="M343 0h184v508H343V304h-63c-42 0-64 17-64 65v139H32V369c0-145 74-213 246-213h65V0z"/><glyph glyph-name="afii10090" unicode="ш" horiz-adv-x="851" d="M56 0h739v508H610V148h-92v360H333V148h-92v360H56V0z"/><glyph glyph-name="afii10091" unicode="щ" horiz-adv-x="892" d="M700-140h166v288h-71v360H610V148h-92v360H333V148h-92v360H56V0h644v-140z"/><glyph glyph-name="afii10092" unicode="ъ" horiz-adv-x="636" d="M388 0c157 0 228 82 228 188 0 104-72 181-226 181h-62v139H20V361h124V0h244zm-60 135v99h46c35 0 55-17 55-48 0-34-21-51-56-51h-45z"/><glyph glyph-name="afii10093" unicode="ы" horiz-adv-x="797" d="M56 0h245c156 0 227 82 227 188 0 104-72 181-225 181h-62v139H56V0zm501 0h184v508H557V0zM241 135v99h45c35 0 56-17 56-48 0-34-22-51-57-51h-44z"/><glyph glyph-name="afii10094" unicode="ь" horiz-adv-x="549" d="M56 0h245c156 0 227 82 227 188 0 104-72 181-225 181h-62v139H56V0zm185 129v110h45c39 0 61-19 61-53 0-39-24-57-62-57h-44z"/><glyph glyph-name="afii10095" unicode="э" horiz-adv-x="554" d="M253-18c181 0 270 122 270 269 0 151-99 276-270 276C76 527 35 401 35 401v-69h146s12 44 72 44c41 0 73-22 75-72H195v-99h134c-3-51-34-75-76-75-61 0-73 47-73 47H34v-69S78-18 253-18z"/><glyph glyph-name="afii10096" unicode="ю" horiz-adv-x="849" d="M544-18c172 0 274 123 274 273 0 151-102 272-274 272-139 0-231-83-258-197h-45v178H56V0h185v182h45C313 67 404-18 544-18zm0 161c-62 0-90 51-90 112s28 110 90 110 90-49 90-110-28-112-90-112z"/><glyph glyph-name="afii10097" unicode="я" horiz-adv-x="572" d="M332 159V0h184v508H263c-156 0-226-81-226-178 0-64 31-114 95-142L39 69V0h154l106 159h33zm-54 117c-38 0-60 18-60 52 0 37 23 55 61 55h53V276h-54z"/><glyph glyph-name="afii10071" unicode="ё" horiz-adv-x="599" d="M312-18C508-18 556 93 556 93v69H403s-12-36-87-36c-55 0-87 32-98 80h338s10 33 10 70c0 142-78 251-257 251-176 0-278-125-278-276 0-149 92-269 281-269zm-93 326c11 44 38 75 88 75 55 0 83-39 83-75H219zM112 593h169v161H112V593zm222 0h170v161H334V593z"/><glyph glyph-name="afii10099" unicode="ђ" horiz-adv-x="615" d="M388 527c-73 0-125-42-147-80v116h148v123H241v64H56v-64H-8V563h64V0h185v277c0 40 19 81 76 81 46 0 62-32 62-77V-17c0-69-30-90-92-90v-153c173 0 277 64 277 242v342c0 105-44 203-176 203z"/><glyph glyph-name="afii10100" unicode="ѓ" horiz-adv-x="449" d="M56 0h185v360h188v148H56V0zm113 587h145l100 96v60H235l-66-96v-60z"/><glyph glyph-name="afii10101" unicode="є" horiz-adv-x="554" d="M520 108v69H375s-9-44-72-44c-41 0-72 25-77 72h132v104H227c5 40 34 66 77 66 59 0 70-43 70-43h145v69s-37 126-218 126C132 527 32 402 32 251c0-147 89-269 269-269 179 0 219 126 219 126z"/><glyph glyph-name="afii10102" unicode="ѕ" horiz-adv-x="532" d="M267-18c142 0 233 72 233 179 0 99-62 142-175 154l-72 8c-37 4-51 17-51 38 0 23 19 39 58 39 46 0 70-32 74-49h145v69c-22 61-92 107-215 107-135 0-223-67-223-176 0-97 60-148 170-158l69-6c41-4 58-17 58-40 0-22-18-38-67-38-50 0-85 26-91 50H35V90C55 34 142-18 267-18z"/><glyph glyph-name="afii10103" unicode="і" horiz-adv-x="296" d="M56 0h184v508H56V0zm-2 593h186v161H54V593z"/><glyph glyph-name="afii10104" unicode="ї" horiz-adv-x="296" d="M-7 593h148v161H-7V593zm176 0h148v161H169V593zM56 0h184v508H56V0z"/><glyph glyph-name="afii10105" unicode="ј" horiz-adv-x="296" d="M21-260c138 0 219 84 219 212v556H56V-47c0-43-9-60-36-60-24 0-31 22-31 39h-146v-78c24-71 82-114 178-114zm34 853h186v161H55V593z"/><glyph glyph-name="afii10106" unicode="љ" horiz-adv-x="843" d="M261 244l1 117h88V0h245c156 0 227 82 227 188 0 104-72 181-225 181h-62v139H106l-5-240c-1-71-17-110-68-111h-9V0h53c149 0 182 105 184 244zm274-114v108h45c39 0 61-18 61-52 0-38-24-56-62-56h-44z"/><glyph glyph-name="afii10107" unicode="њ" horiz-adv-x="865" d="M241 196h134V0h254c150 0 218 74 218 170 0 93-69 162-217 162h-70v176H375V332H241v176H56V0h185v196zm319-74v88h50c32 0 52-18 52-43 0-27-21-45-53-45h-49z"/><glyph glyph-name="afii10108" unicode="ћ" horiz-adv-x="615" d="M241 277c0 40 19 81 76 81 46 0 62-32 62-77V0h185v324c0 105-44 203-176 203-73 0-125-42-147-80v116h148v123H241v64H56v-64H-8V563h64V0h185v277z"/><glyph glyph-name="afii10109" unicode="ќ" horiz-adv-x="587" d="M56 0h185v201L378 0h189v70L418 264l130 175v69H377L241 317v191H56V0zm168 587h145l100 96v60H290l-66-96v-60z"/><glyph glyph-name="afii10110" unicode="ў" horiz-adv-x="578" d="M250-250l319 689v69H403L295 232l-98 276H17v-70L193 24 83-180v-70h167zm50 838c99 0 155 49 169 90v68H339c0-29-9-59-39-59-32 0-40 30-39 59H131v-68c13-41 71-90 169-90z"/><glyph glyph-name="afii10193" unicode="џ" horiz-adv-x="609" d="M221-140h166V0h166v508H368V148H241v360H56V0h165v-140z"/><glyph glyph-name="afii10050" unicode="Ґ" horiz-adv-x="566" d="M360 900V750H72V0h203v575h270v325H360z"/><glyph glyph-name="afii10098" unicode="ґ" horiz-adv-x="449" d="M263 640V508H56V0h185v360h188v280H263z"/><glyph glyph-name="uni0492" unicode="Ғ" horiz-adv-x="589" d="M435 298v150H297v127h270v175H94V448H16V298h78V0h203v298h138z"/><glyph glyph-name="uni0493" unicode="ғ" horiz-adv-x="478" d="M375 173v123H270v64h188v148H85V296H24V173h61V0h185v173h105z"/><glyph glyph-name="uni0496" unicode="Җ" horiz-adv-x="1062" d="M1052-150v325h-96L794 395l198 277v78H820L615 452v298H420V452L215 750H39v-79l201-284L16 79V0h189l215 304V0h195v304L830 0h37v-150h185z"/><glyph glyph-name="uni0497" unicode="җ" horiz-adv-x="879" d="M867-140v288h-91l-85 116 118 175v69H638L519 317v191H335V317L215 508H40v-68l123-177L31 70V0h185l119 201V0h184v201L639 0h62v-140h166z"/><glyph glyph-name="uni0498" unicode="Ҙ" horiz-adv-x="651" d="M614 220c0 88-48 152-131 174 68 28 107 91 107 164 0 135-107 210-270 210-181 0-261-92-277-177v-78h164c6 53 37 89 102 89 48 0 86-28 86-72 0-41-29-77-89-77h-84V304h101c66 0 97-34 97-76 0-48-37-79-101-79-77 0-115 45-122 95H33v-79C48 87 119 13 239-10v-140h184V-8c125 29 191 113 191 228z"/><glyph glyph-name="uni0499" unicode="ҙ" horiz-adv-x="525" d="M493 145c0 64-34 109-103 127 62 19 83 59 83 110 0 91-76 145-209 145C87 527 41 423 36 415v-69h150c2 6 14 52 65 52 38 0 53-20 53-42 0-28-15-49-57-49h-63V202h69c53 0 68-22 68-46 0-25-17-47-62-47-63 0-71 47-74 53H31V93c5-7 34-81 152-104v-139h166V-9c92 19 144 71 144 154z"/><glyph glyph-name="uni049A" unicode="Қ" horiz-adv-x="745" d="M736-150v325h-99L457 394l224 278v78H509L275 451v299H72V0h203v304L519 0h32v-150h185z"/><glyph glyph-name="uni049B" unicode="қ" horiz-adv-x="602" d="M585-140v288h-75l-92 116 130 175v69H377L241 317v191H56V0h185v201L378 0h41v-140h166z"/><glyph glyph-name="uni049C" unicode="Ҝ" horiz-adv-x="860" d="M470 451v146H319V155h151v149L649 0h194v80L650 394l162 278v78H640L470 451zM72 0h203v750H72V0z"/><glyph glyph-name="uni049D" unicode="ҝ" horiz-adv-x="719" d="M404 317v91H280V92h124v109L499 0h189v70L573 264l95 175v69H498l-94-191zM56 0h185v508H56V0z"/><glyph glyph-name="uni04A0" unicode="Ҡ" horiz-adv-x="917" d="M469 304L712 0h194v79L651 394l223 278v78H703L469 451v299H21V576h245V0h203v304z"/><glyph glyph-name="uni04A1" unicode="ҡ" horiz-adv-x="725" d="M194 0h184v201L516 0h188v70L556 264l129 175v69H514L378 317v191H20V360h174V0z"/><glyph glyph-name="uni04A2" unicode="Ң" horiz-adv-x="860" d="M836-150v325H728v575H525V472H275v278H72V0h203v298h250V0h127v-150h184z"/><glyph glyph-name="uni04A3" unicode="ң" horiz-adv-x="661" d="M635-140v288h-72v360H378V330H241v178H56V0h185v181h137V0h90v-140h167z"/><glyph glyph-name="uni04AA" unicode="Ҫ" horiz-adv-x="724" d="M698 167v78H534c-12-48-57-88-130-88-98 0-164 75-164 218 0 147 67 219 164 219 74 0 115-36 125-84h164v78c-19 82-101 180-290 180-220 0-366-147-366-394C37 172 137 34 300-6v-144h184v139c119 23 193 95 214 178z"/><glyph glyph-name="uni04AB" unicode="ҫ" horiz-adv-x="554" d="M520 117v69H375s-9-43-74-43c-57 0-84 47-84 108 0 62 27 115 84 115 62 0 73-42 73-42h145v69s-37 134-218 134C132 527 32 402 32 251 32 132 91 29 209-6v-144h166V-9c117 30 145 126 145 126z"/><glyph glyph-name="uni04AE" unicode="Ү" horiz-adv-x="675" d="M237 0h203v289l228 383v78H497L351 471 198 750H4v-79l233-381V0z"/><glyph glyph-name="uni04AF" unicode="ү" horiz-adv-x="565" d="M374-250V2l176 437v69H379l-90-274-94 274H15v-70L189 3v-253h185z"/><glyph glyph-name="uni04B0" unicode="Ұ" horiz-adv-x="684" d="M582 159v149H456l217 364v78H502L356 471 203 750H9v-79l221-363H104V159h137V0h204v159h137z"/><glyph glyph-name="uni04B1" unicode="ұ" horiz-adv-x="564" d="M494-123V0H372l178 439v69H379l-90-274-94 274H15v-70L191 0H69v-123h120v-127h185v127h120z"/><glyph glyph-name="uni04B2" unicode="Ҳ" horiz-adv-x="736" d="M723-150v325h-99L478 386l195 286v78H501L371 524 227 750H33v-79l201-293L22 78V0h172l150 238L495 0h43v-150h185z"/><glyph glyph-name="uni04B3" unicode="ҳ" horiz-adv-x="599" d="M578-140v288h-84l-91 108 153 183v69H389l-87-121-89 121H29v-70l152-180L26 69V0h167l90 126L375 0h37v-140h166z"/><glyph glyph-name="uni04B6" unicode="Ҷ" horiz-adv-x="794" d="M770-150v325H662v575H459V441H359c-85 0-119 41-119 131v178H37V572c0-214 109-301 319-301h103V0h127v-150h184z"/><glyph glyph-name="uni04B7" unicode="ҷ" horiz-adv-x="625" d="M599-140v288h-72v360H343V304h-63c-42 0-64 17-64 65v139H32V369c0-145 74-213 246-213h65V0h90v-140h166z"/><glyph glyph-name="uni04B8" unicode="Ҹ" horiz-adv-x="785" d="M713 0v750H510V441h-52v141H307V445c-47 11-66 46-66 110v195H38V556c0-193 88-275 269-284V140h151v131h52V0h203z"/><glyph glyph-name="uni04B9" unicode="ҹ" horiz-adv-x="651" d="M595 0v508H410V304h-37v91H249v-87c-22 8-33 26-33 61v139H32V369c0-136 65-205 217-212V70h124v86h37V0h185z"/><glyph glyph-name="uni04BA" unicode="Һ" horiz-adv-x="729" d="M275 750H72V0h203v309h100c85 0 119-41 119-131V0h203v178c0 214-109 301-319 301H275v271z"/><glyph glyph-name="uni04BB" unicode="һ" horiz-adv-x="615" d="M56 0h185v277c0 40 19 81 76 81 46 0 62-32 62-77V0h185v324c0 105-44 203-176 203-73 0-125-42-147-80v303H56V0z"/><glyph glyph-name="uni04C0" unicode="Ӏ" horiz-adv-x="347" d="M72 0h203v750H72V0z"/><glyph glyph-name="uni04C1" unicode="Ӂ" horiz-adv-x="1043" d="M424 304V0h195v304L834 0h193v79L798 395l206 277v78H833L619 452v298H424V452L211 750H34v-79l210-284L20 79V0h189l215 304zm102 497c106 0 170 41 186 79v66H566c0-22-17-49-40-49-25 0-41 27-40 49H340v-66c17-38 80-79 186-79z"/><glyph glyph-name="uni04C2" unicode="ӂ" horiz-adv-x="858" d="M33 0h181l123 201V0h184v201L644 0h185v70L693 264l126 175v69H648L521 317v191H337V317L209 508H34v-68l131-177L33 70V0zm394 590c99 0 155 49 169 90v68H466c0-29-9-59-39-59-32 0-40 30-39 59H258v-68c13-41 71-90 169-90z"/><glyph glyph-name="uni04CF" unicode="ӏ" horiz-adv-x="349" d="M73 0h203v750H73V0z"/><glyph glyph-name="uni04D0" unicode="Ӑ" horiz-adv-x="722" d="M178 0l43 132h261L524 0h186v80L473 750H248L10 70V0h168zm253 298H273l80 252 78-252zm-71 503c106 0 170 41 186 79v66H400c0-22-17-49-40-49-25 0-41 27-40 49H174v-66c17-38 80-79 186-79z"/><glyph glyph-name="uni04D1" unicode="ӑ" horiz-adv-x="571" d="M194-18c77 0 121 33 146 76l8-58h173v305c0 146-80 222-248 222C96 527 56 408 56 408v-69h146s15 35 69 35c43 0 65-21 65-63v-17s-35 8-80 8c-150 0-227-59-227-161C29 54 83-18 194-18zm70 139c-31 0-53 12-53 43 0 27 17 46 62 46 37 0 63-4 63-4v-20c0-29-18-65-72-65zm19 469c99 0 155 49 169 90v68H322c0-29-9-59-39-59-32 0-40 30-39 59H114v-68c13-41 71-90 169-90z"/><glyph glyph-name="uni04D6" unicode="Ӗ" horiz-adv-x="618" d="M72 0h499v175H275v131h257v158H275v111h296v175H72V0zm248 801c106 0 170 41 186 79v66H360c0-22-17-49-40-49-25 0-41 27-40 49H134v-66c17-38 80-79 186-79z"/><glyph glyph-name="uni04D7" unicode="ӗ" horiz-adv-x="599" d="M312-18C508-18 556 93 556 93v69H403s-12-36-87-36c-55 0-87 32-98 80h338s10 33 10 70c0 142-78 251-257 251-176 0-278-125-278-276 0-149 92-269 281-269zm-93 326c11 44 38 75 88 75 55 0 83-39 83-75H219zm91 282c99 0 155 49 169 90v68H349c0-29-9-59-39-59-32 0-40 30-39 59H141v-68c13-41 71-90 169-90z"/><glyph glyph-name="uni04D8" unicode="Ә" horiz-adv-x="768" d="M379-10c217 0 352 159 352 388 0 238-137 390-362 390-195 0-291-94-314-171v-79h164c10 36 61 76 135 76 97 0 153-49 168-157H44s-13-40-13-108C31 143 165-10 379-10zm-9 176c-77 0-132 51-142 122h289c-16-80-68-122-147-122z"/><glyph glyph-name="uni04D9" unicode="ә" horiz-adv-x="599" d="M287 526C91 526 43 415 43 415v-69h153s12 36 87 36c55 0 87-32 98-80H43s-10-33-10-70C33 90 111-19 290-19c176 0 278 125 278 276 0 149-92 269-281 269zm93-326c-11-44-38-75-88-75-55 0-83 39-83 75h171z"/><glyph glyph-name="uni04E2" unicode="Ӣ" horiz-adv-x="811" d="M72 0h203l261 436V0h203v750H536L275 312v438H72V0zm174 805h343v124H246V805z"/><glyph glyph-name="uni04E3" unicode="ӣ" horiz-adv-x="629" d="M56 0h183l149 266V0h185v508H390L241 243v265H56V0zm105 604h309v132H161V604z"/><glyph glyph-name="uni04E6" unicode="Ӧ" horiz-adv-x="816" d="M408-18c223 0 372 159 372 396 0 234-149 390-372 390S36 612 36 378C36 141 185-18 408-18zm0 174c-104 0-169 88-169 222 0 130 65 216 169 216 103 0 169-86 169-216 0-134-66-222-169-222zM205 797h178v152H205V797zm222 0h178v152H427V797z"/><glyph glyph-name="uni04E7" unicode="ӧ" horiz-adv-x="612" d="M306-18c173 0 275 123 275 273 0 151-102 272-275 272S31 406 31 255C31 105 133-18 306-18zm0 161c-62 0-90 51-90 112s28 111 90 111 91-50 91-111-29-112-91-112zM111 593h169v161H111V593zm222 0h170v161H333V593z"/><glyph glyph-name="uni04E8" unicode="Ө" horiz-adv-x="816" d="M408-18c223 0 372 159 372 396 0 234-149 390-372 390S36 612 36 378C36 141 185-18 408-18zm0 620c87 0 149-48 169-148H240c20 100 82 148 168 148zm0-454c-85 0-146 48-167 148h335c-21-100-82-148-168-148z"/><glyph glyph-name="uni04E9" unicode="ө" horiz-adv-x="613" d="M306-18c173 0 276 123 276 273 0 151-103 272-276 272S31 406 31 255C31 105 133-18 306-18zm0 401c49 0 83-28 91-76H216c8 48 42 76 90 76zm0-257c-45 0-79 25-88 71h177c-8-46-43-71-89-71z"/><glyph glyph-name="uni04EE" unicode="Ӯ" horiz-adv-x="693" d="M331 0l355 672v78H515L364 445 205 750H11v-79l238-439-89-154V0h171zM191 805h343v124H191V805z"/><glyph glyph-name="uni04EF" unicode="ӯ" horiz-adv-x="578" d="M250-250l319 689v69H403L295 232l-98 276H17v-70L193 24 83-180v-70h167zM146 604h309v132H146V604z"/><glyph glyph-name="uni04F2" unicode="Ӳ" horiz-adv-x="693" d="M331 0l355 672v78H515L364 445 205 750H11v-79l238-439-89-154V0h171zM172 805h155l42 80 22 60H203l-31-80v-60zm215 0h155l92 80v60H445l-58-80v-60z"/><glyph glyph-name="uni04F3" unicode="ӳ" horiz-adv-x="578" d="M126 594h146l43 88 22 68H157l-31-96v-60zm207 0h137l92 96v60H391l-58-96v-60zm-83-844l319 689v69H403L295 232l-98 276H17v-70L193 24 83-180v-70h167z"/><glyph glyph-name="Wgrave" unicode="Ẁ" horiz-adv-x="1025" d="M618 0h221l167 680v70H816l-95-488-112 488H428L309 262l-89 488H21v-80L186 0h221l105 398L618 0zM442 805h166v60l-58 80H350v-60l92-80z"/><glyph glyph-name="wgrave" unicode="ẁ" horiz-adv-x="829" d="M482 0h183l146 439v69H640l-62-273-77 273H338l-74-273-65 273H19v-70L161 0h183l66 254L482 0zM355 594h145v60l-66 96H255v-60l100-96z"/><glyph glyph-name="Wacute" unicode="Ẃ" horiz-adv-x="1025" d="M618 0h221l167 680v70H816l-95-488-112 488H428L309 262l-89 488H21v-80L186 0h221l105 398L618 0zM429 805h166l92 80v60H487l-58-80v-60z"/><glyph glyph-name="wacute" unicode="ẃ" horiz-adv-x="829" d="M482 0h183l146 439v69H640l-62-273-77 273H338l-74-273-65 273H19v-70L161 0h183l66 254L482 0zM343 594h145l100 96v60H409l-66-96v-60z"/><glyph glyph-name="Wdieresis" unicode="Ẅ" horiz-adv-x="1025" d="M618 0h221l167 680v70H816l-95-488-112 488H428L309 262l-89 488H21v-80L186 0h221l105 398L618 0zM315 797h178v152H315V797zm222 0h178v152H537V797z"/><glyph glyph-name="wdieresis" unicode="ẅ" horiz-adv-x="829" d="M482 0h183l146 439v69H640l-62-273-77 273H338l-74-273-65 273H19v-70L161 0h183l66 254L482 0zM231 593h169v161H231V593zm222 0h170v161H453V593z"/><glyph glyph-name="Ygrave" unicode="Ỳ" horiz-adv-x="675" d="M237 0h203v289l228 383v78H497L351 471 198 750H4v-79l233-381V0zm25 805h166v60l-58 80H170v-60l92-80z"/><glyph glyph-name="ygrave" unicode="ỳ" horiz-adv-x="578" d="M250-250l319 689v69H403L295 232l-98 276H17v-70L193 24 83-180v-70h167zm-23 844h145v60l-66 96H127v-60l100-96z"/><glyph glyph-name="thinspace" horiz-adv-x="94"/><glyph glyph-name="uni2010" unicode="‐" horiz-adv-x="403" d="M54 225h295v148H54V225z"/><glyph glyph-name="uni2011" unicode="‑" horiz-adv-x="403" d="M54 225h295v148H54V225z"/><glyph glyph-name="endash" unicode="–" horiz-adv-x="583" d="M54 225h475v148H54V225z"/><glyph glyph-name="emdash" unicode="—" horiz-adv-x="775" d="M54 225h667v148H54V225z"/><glyph glyph-name="uni2015" unicode="―" horiz-adv-x="775" d="M54 225h667v148H54V225z"/><glyph glyph-name="quoteleft" unicode="‘" horiz-adv-x="292" d="M236 750H115L48 607V422h188v328z"/><glyph glyph-name="quoteright" unicode="’" horiz-adv-x="284" d="M56 422h121l67 143v185H56V422z"/><glyph glyph-name="quotesinglbase" unicode="‚" horiz-adv-x="298" d="M55-140h121L243 3v185H55v-328z"/><glyph glyph-name="quotedblleft" unicode="“" horiz-adv-x="541" d="M485 750H364l-67-143V422h188v328zm-249 0H115L48 607V422h188v328z"/><glyph glyph-name="quotedblright" unicode="”" horiz-adv-x="533" d="M56 422h121l67 143v185H56V422zm249 0h121l67 143v185H305V422z"/><glyph glyph-name="quotedblbase" unicode="„" horiz-adv-x="547" d="M55-140h121L243 3v185H55v-328zm249 0h121L492 3v185H304v-328z"/><glyph glyph-name="dagger" unicode="†" horiz-adv-x="581" d="M245-97h94l70 125-45 384 162-18v178l-162-17 26 195H191l27-195-163 17V394l163 18-45-384 72-125z"/><glyph glyph-name="daggerdbl" unicode="‡" horiz-adv-x="581" d="M191-91h199L364 79l162-17v178l-162-18 43 108-43 108 162-18v178l-162-17 26 169H191l27-169-163 17V420l163 18-42-108 42-108-163 18V62l163 17-27-170z"/><glyph glyph-name="bullet" unicode="•" horiz-adv-x="325" d="M162 224c59 0 95 43 95 96s-36 96-95 96c-58 0-95-43-95-96s37-96 95-96z"/><glyph glyph-name="ellipsis" unicode="…" horiz-adv-x="853" d="M54 0h188v188H54V0zm278 0h188v188H332V0zm279 0h188v188H611V0z"/><glyph glyph-name="perthousand" unicode="‰" horiz-adv-x="1582" d="M251 326c139 0 223 100 223 222 0 123-85 220-223 220-139 0-223-96-223-220 0-122 84-222 223-222zM216-26h186l482 788H698L216-26zm35 495c-42 0-61 36-61 79 0 42 20 77 61 77 42 0 60-34 60-77s-18-79-60-79zM856-18c138 0 223 99 223 221 0 124-85 221-223 221-139 0-224-97-224-221 0-122 84-221 224-221zm475 0c139 0 223 99 223 221 0 124-85 221-223 221-139 0-223-97-223-221 0-122 84-221 223-221zM856 125c-42 0-61 36-61 78 0 43 19 78 61 78 41 0 60-35 60-78 0-42-18-78-60-78zm475 0c-41 0-61 36-61 78 0 43 20 78 61 78 42 0 60-35 60-78 0-42-18-78-60-78z"/><glyph glyph-name="minute" unicode="′" horiz-adv-x="277" d="M47 423h132l80 327H71L47 423z"/><glyph glyph-name="second" unicode="″" horiz-adv-x="509" d="M47 423h132l80 327H71L47 423zm232 0h132l80 327H303l-24-327z"/><glyph glyph-name="guilsinglleft" unicode="‹" horiz-adv-x="413" d="M213 43h154v65L229 270l138 162v65H213L22 270 213 43z"/><glyph glyph-name="guilsinglright" unicode="›" horiz-adv-x="413" d="M46 43h154l191 227-191 227H46v-65l138-162L46 108V43z"/><glyph glyph-name="fraction" unicode="⁄" horiz-adv-x="630" d="M-12-40h184l469 830H457L-12-40z"/><glyph glyph-name="Euro" unicode="€" horiz-adv-x="790" d="M750 133v78H593c-7-28-48-62-124-62-61 0-119 33-133 89h181l26 115H312v39h241l26 116H331c17 63 74 94 138 94 72 0 113-33 119-58h157v78c-13 68-97 146-278 146-170 0-300-87-345-260H32V392h68c0-5-1-12-1-18 0-7 1-14 1-21H32V238h89C165 63 290-18 467-18c159 0 260 83 283 151z"/><glyph glyph-name="uni20B4" unicode="₴" horiz-adv-x="737" d="M695 409v107h-65c12 20 17 47 17 75 0 110-101 177-271 177-152 0-249-58-278-137v-79h165c9 32 38 59 100 59 50 0 85-17 85-54 0-17-7-33-27-41H42V409h653zm-39-280v78H492c-15-44-57-68-115-68-54 0-95 19-95 61 0 18 5 37 23 46h390v107H42V246h51c-5-13-10-42-10-71C83 58 192-18 370-18c166 0 259 69 286 147z"/><glyph glyph-name="uni20B8" unicode="₸" horiz-adv-x="631" d="M29 618h573v132H29V618zM217 0h203v431h182v132H28V431h189V0z"/><glyph glyph-name="uni20BD" unicode="₽" horiz-adv-x="729" d="M522 93v132H348v48h66c191 0 287 116 287 238 0 147-111 239-287 239H145V426H52V273h93v-48H52V93h93V0h203v93h174zM344 426v154h69c54 0 84-29 84-73 0-48-31-81-84-81h-69z"/><glyph glyph-name="afii61352" unicode="№" horiz-adv-x="1277" d="M1011 325c143 0 230 98 230 218 0 122-87 218-230 218s-231-96-231-218c0-120 87-218 231-218zM74 0h193v404L546 0h193v750H546V338L267 750H74V0zm937 467c-47 0-69 35-69 76 0 42 22 76 69 76s69-34 69-76c0-41-21-76-69-76zM802 126h418v149H802V126z"/><glyph glyph-name="trademark" unicode="™" horiz-adv-x="991" d="M619 408h98l52 125V375h159v375H738l-66-152-68 152H413V375h156v155l50-122zm-494-33h170v218h90v157H37V593h88V375z"/><glyph glyph-name="uni2139" unicode="ℹ" horiz-adv-x="1180" d="M535 610h110v110H535V610zm5-610h100v500H540V0z"/><glyph glyph-name="onethird" unicode="⅓" horiz-adv-x="1147" d="M219-40h184l469 830H688L219-40zm-60 323h166v484H202L26 640v-75h126l7 6V283zM901-23c131 0 212 61 212 149 0 54-31 94-83 107 43 18 68 56 68 104 0 82-85 130-197 130-122 0-185-59-195-111v-53h137c4 21 17 43 47 43 27 0 44-13 44-36 0-19-15-33-47-33h-44V172h53c37 0 53-14 53-33 0-25-15-40-50-40s-55 26-61 47H699V94c12-59 89-117 202-117z"/><glyph glyph-name="twothirds" unicode="⅔" horiz-adv-x="1215" d="M292-40h185l469 830H761L292-40zm137 345v138H291l13 12c69 47 107 93 107 168 0 87-72 145-192 145-114 0-169-70-180-134v-46h122c3 18 18 40 47 40 26 0 41-12 41-37 0-21-20-40-41-56L39 423V305h390zM975-23c131 0 211 61 211 149 0 54-30 94-82 107 42 18 67 56 67 104 0 82-85 130-197 130-122 0-185-59-195-111v-53h138c3 21 17 43 47 43 26 0 44-13 44-36 0-19-16-33-48-33h-43V172h52c37 0 53-14 53-33 0-25-15-40-49-40-35 0-55 26-61 47H773V94c12-59 89-117 202-117z"/><glyph glyph-name="oneeighth" unicode="⅛" horiz-adv-x="1135" d="M219-40h184l469 830H688L219-40zm106 323v484H202L26 640v-75h126l7 6V283h166zM899-25c129 0 202 67 202 152 0 40-20 84-69 109 32 13 54 51 54 93 0 80-68 142-187 142-120 0-188-62-188-142 0-32 14-75 55-93-50-26-68-69-68-109 0-85 73-152 201-152zm0 303c-28 0-41 18-41 40 0 20 14 37 41 37s41-17 41-37c0-22-14-40-41-40zm0-185c-29 0-43 19-43 42 0 22 15 40 43 40 29 0 43-18 43-40 0-23-14-42-43-42z"/><glyph glyph-name="threeeighths" unicode="⅜" horiz-adv-x="1183" d="M272-40h184l469 830H741L272-40zm-37 318c130 0 211 61 211 149 0 54-30 94-82 107 42 18 67 56 67 103 0 83-85 131-197 131-122 0-185-59-195-111v-53h138c3 21 16 43 46 43 27 0 44-13 44-36 0-19-15-33-47-33h-44V472h53c37 0 53-13 53-32 0-25-15-40-49-40-36 0-56 25-62 47H33v-52c11-59 88-117 202-117zM952-25c128 0 202 67 202 152 0 40-20 84-69 109 32 13 53 51 53 93 0 80-67 142-186 142-120 0-188-62-188-142 0-32 13-75 55-93-50-26-68-69-68-109 0-85 73-152 201-152zm0 303c-28 0-41 18-41 40 0 20 13 37 41 37 27 0 41-17 41-37 0-22-14-40-41-40zm0-185c-29 0-43 19-43 42 0 22 14 40 43 40 28 0 43-18 43-40 0-23-14-42-43-42z"/><glyph glyph-name="fiveeighths" unicode="⅝" horiz-adv-x="1159" d="M247-40h185l469 830H716L247-40zm-28 324c114 0 198 66 198 164 0 95-75 147-184 147-16 0-30-2-43-5l4 39h193v121H70L48 510l121-30s12 13 40 13c29 0 44-20 44-42s-12-44-44-44c-29 0-45 19-49 40H29v-50c11-61 79-113 190-113zM927-25c129 0 203 67 203 152 0 40-20 84-69 109 31 13 53 51 53 93 0 80-68 142-187 142-120 0-187-62-187-142 0-32 13-75 54-93-50-26-68-69-68-109 0-85 74-152 201-152zm0 303c-27 0-41 18-41 40 0 20 14 37 41 37 28 0 42-17 42-37 0-22-14-40-42-40zm0-185c-28 0-43 19-43 42 0 22 15 40 43 40 29 0 43-18 43-40 0-23-14-42-43-42z"/><glyph glyph-name="seveneighths" unicode="⅞" horiz-adv-x="1104" d="M192-40h184l469 830H661L192-40zm47 331l155 329v130H29V609h192L93 351v-60h146zM872-25c128 0 202 67 202 152 0 40-20 84-69 109 32 13 53 51 53 93 0 80-67 142-186 142-120 0-188-62-188-142 0-32 13-75 55-93-50-26-68-69-68-109 0-85 73-152 201-152zm0 303c-28 0-41 18-41 40 0 20 13 37 41 37 27 0 41-17 41-37 0-22-14-40-41-40zm0-185c-29 0-43 19-43 42 0 22 14 40 43 40 28 0 43-18 43-40 0-23-14-42-43-42z"/><glyph glyph-name="uni2190" unicode="←" horiz-adv-x="1180" d="M614 54L369 315h613v100H369l245 261v65h-71L180 365 543-11h71v65z"/><glyph glyph-name="uni2191" unicode="↑" horiz-adv-x="1180" d="M901 346L640 591V-22H540v613L279 346h-65v71l376 363 376-363v-71h-65z"/><glyph glyph-name="uni2192" unicode="→" horiz-adv-x="1180" d="M565 49l245 261H197v100h613L565 671v65h71l363-376L636-16h-71v65z"/><glyph glyph-name="uni2193" unicode="↓" horiz-adv-x="1192" d="M278 390l261-245v613h100V145l261 245h65v-71L589-44 213 319v71h65z"/><glyph glyph-name="uni2194" unicode="↔" horiz-adv-x="1180" d="M490 180L363 317h454L690 180v-56h61l224 236-224 236h-61v-56l128-137H362l128 137v56h-60L205 360l225-236h60v56z"/><glyph glyph-name="uni2195" unicode="↕" horiz-adv-x="1180" d="M591-25l236 225v60h-56L634 133v454l137-127h56v61L591 745 355 521v-61h56l137 128V132L411 260h-56v-60L591-25z"/><glyph glyph-name="uni2196" unicode="↖" horiz-adv-x="1180" d="M832 51l65 65-422 423 346 4 47 46-47 45H314V127l45-47 46 47 4 346L832 51z"/><glyph glyph-name="uni2197" unicode="↗" horiz-adv-x="1180" d="M348 51l-65 65 422 423-346 4-47 46 47 45h507V127l-45-47-46 47-4 346L348 51z"/><glyph glyph-name="uni2198" unicode="↘" horiz-adv-x="1180" d="M357 659l-65-65 422-423-346-4-47-46 47-45h507v507l-45 47-46-47-4-346-423 422z"/><glyph glyph-name="uni2199" unicode="↙" horiz-adv-x="1093" d="M828 666l65-65-422-423 346-4 47-46-47-45H310v507l45 47 46-47 4-346 423 422z"/><glyph glyph-name="uni21B0" unicode="↰" horiz-adv-x="1180" d="M858 45v241c0 136-73 221-218 221H383l131 141v58h-62L220 463l232-244h62v58L382 419h258c83 0 130-52 130-133V45h88z"/><glyph glyph-name="uni21B1" unicode="↱" horiz-adv-x="1180" d="M325 45v241c0 136 73 221 218 221h257L669 648v58h62l232-243-232-244h-62v58l132 142H543c-83 0-130-52-130-133V45h-88z"/><glyph glyph-name="uni21B2" unicode="↲" horiz-adv-x="1180" d="M858 675V434c0-136-73-221-218-221H383L514 72V14h-62L220 257l232 244h62v-58L382 301h258c83 0 130 52 130 133v241h88z"/><glyph glyph-name="uni21B3" unicode="↳" horiz-adv-x="1180" d="M316 675V434c0-136 73-221 218-221h257L660 72V14h62l232 243-232 244h-62v-58l132-142H534c-83 0-130 52-130 133v241h-88z"/><glyph glyph-name="minus" unicode="−" horiz-adv-x="556" d="M56 229h444v148H56V229z"/><glyph glyph-name="approxequal" unicode="≈" horiz-adv-x="578" d="M394 314c98 0 142 83 133 203H393c-6-32-20-47-41-47-59 0-72 52-162 52-92 0-145-84-136-202h135c4 25 14 48 41 48 61 0 78-54 164-54zm0-230c98 0 142 83 133 203H393c-6-32-20-47-41-47-59 0-72 52-162 52-92 0-145-84-136-202h135c4 25 14 48 41 48 61 0 78-54 164-54z"/><glyph glyph-name="notequal" unicode="≠" horiz-adv-x="590" d="M533 123v149H369l39 78h125v149h-52l57 115H363l-57-115H55V350h177l-39-78H55V123h65L62 7h176l57 116h238z"/><glyph glyph-name="lessequal" unicode="≤" horiz-adv-x="532" d="M469 180v150l-209 80 209 80v150h-69L49 473V347l351-167h69zM50 7h419v148H50V7z"/><glyph glyph-name="greaterequal" unicode="≥" horiz-adv-x="532" d="M132 180l351 167v126L132 640H63V490l209-80-209-80V180h69zM63 7h419v148H63V7z"/><glyph glyph-name="Pcircle" unicode="Ⓟ" horiz-adv-x="849" d="M425-10c224 0 392 175 392 386S649 760 425 760C200 760 32 587 32 376S200-10 425-10zm0 133c-144 0-252 115-252 253s108 251 252 251 252-113 252-251-108-253-252-253zm-128 49h127v118h17c113 0 170 72 170 149 0 81-65 135-170 135H297V172zm127 213v94h13c31 0 49-18 49-45 0-31-19-49-49-49h-13z"/><glyph glyph-name="uni2615" unicode="☕" horiz-adv-x="1180" d="M824 320l30 180H356l58-289h296l18 109h96zm-40 45h-48l15 90h48l-15-90zM336 141h471v45H336v-45z"/><glyph glyph-name="uni267F" unicode="♿" horiz-adv-x="1180" d="M813 64h74L774 322H622l-8 63h127v37l-29 23H607l-17 106-51 40 35 10 20 61-32 62h-72l-23-48 20-84-35-46 10-112c-99-23-155-116-155-212 0-110 90-209 216-209 108 0 206 68 217 200l73-149zM368 222c0 83 42 137 101 156l14-143h197c-1-103-68-165-157-165-95 0-155 70-155 152z"/><glyph glyph-name="uni26FD" unicode="⛽" horiz-adv-x="1180" d="M537 581h-37L306 242c-19-33-31-53-31-92 0-61 43-95 102-95 75 0 112 41 112 119v285l45 71V51h304v624H537v-94zm256 49V483H582v147h211zM323 151c0 28 13 50 38 94l83 149V187c0-60-16-87-64-87-34 0-57 20-57 51z"/><glyph glyph-name="uni2764" unicode="❤" horiz-adv-x="1180" d="M590 98l226 227c30 30 50 72 50 116s-19 87-50 116c-28 27-66 42-109 42-41 0-80-15-108-42l-9-9-9 9c-29 27-67 42-109 42s-80-15-108-42c-31-29-50-72-50-116s19-87 50-116L590 98z"/><glyph glyph-name="uni2B0E" unicode="⬎" horiz-adv-x="1180" d="M265 606h241c136 0 221-73 221-218V131l141 131h58v-62L683-32 439 200v62h58l142-132v258c0 83-52 130-133 130H265v88z"/><glyph glyph-name="uni2B0F" unicode="⬏" horiz-adv-x="1180" d="M288 80h241c136 0 221 73 221 218v257l141-131h58v62L706 718 462 486v-62h58l142 132V298c0-83-52-130-133-130H288V80z"/><glyph glyph-name="uni2B10" unicode="⬐" horiz-adv-x="1180" d="M902 608H661c-136 0-221-73-221-218V133L299 264h-58v-62L484-30l244 232v62h-58L528 132v258c0 83 52 130 133 130h241v88z"/><glyph glyph-name="uni2B11" unicode="⬑" horiz-adv-x="1180" d="M891 66H650c-136 0-221 73-221 218v257L288 410h-58v62l243 232 244-232v-62h-58L517 542V284c0-83 52-130 133-130h241V66z"/><glyph glyph-name="fillframe1" unicode="" horiz-adv-x="1180" d="M231-158h718l156 179v675L949 875H231L75 696V21l156-179z"/><glyph glyph-name="uniE006" unicode="" horiz-adv-x="1180" d="M590-157c138 0 261 51 352 136 102 96 163 236 163 381s-61 285-163 381c-91 85-214 136-352 136s-261-51-352-136C136 645 75 505 75 360S136 75 238-21c91-85 214-136 352-136zm0 70C473-87 360-44 279 34c-82 79-134 194-134 326s52 247 134 326c81 78 194 121 311 121s230-43 311-121c82-79 134-194 134-326S983 113 901 34C820-44 707-87 590-87z"/><glyph glyph-name="fillframeround" unicode="" horiz-adv-x="1180" d="M590-157c138 0 261 51 352 136 102 96 163 236 163 381s-61 285-163 381c-91 85-214 136-352 136s-261-51-352-136C136 645 75 505 75 360S136 75 238-21c91-85 214-136 352-136z"/><glyph glyph-name="noframe1" unicode="" horiz-adv-x="1180" d="M231-158h718l156 179v675L949 875H231L75 696V21l156-179zm24 963h670l110-127V39l-32-37-779 767 31 36zm0-893L145 39v639l34 39L958-50l-33-38H255z"/><glyph glyph-name="regframe1" unicode="" horiz-adv-x="1180" d="M231-158h718l156 179v675L949 875H231L75 696V21l156-179zm24 70L145 39v639l110 127h670l110-127V39L925-88H255z"/><glyph glyph-name="uniE50C" unicode="" horiz-adv-x="1180" d="M459 22l131 25 131-25v40l-93 52 16 236 319-59v51L648 483c0 175-23 267-59 267s-60-92-56-267L217 342v-51l320 59 15-236-93-52V22z"/><glyph glyph-name="uniE519" unicode="" horiz-adv-x="1180" d="M701-31l135 92v658H409V535h45v139h341l-90-60c-2-1-4-4-4-6V370h-48l-74 146 26 5 34 60-27 63h-65l-23-36 12-78-129-26-64-113v-27l30-21 66 111 44 6-117-294-122-11v-51h170l57 118h7l75-101 40-150h62l-32 163-70 128 35 114 33-64h80V-31z"/><glyph glyph-name="uniE51F" unicode="" horiz-adv-x="1180" d="M450 569h48v125l48-45h25v28l-97 93-97-93v-28h25l48 45V569zm255-10l97 93v28h-25l-48-45v125h-48V635l-48 45h-25v-28l97-93zM314 55h552v480H314V55zm45 45v390h462V100H359zm350 40h19v76h9v-76h18l6 76h19l-15 70 22 17-20 77-25 21 17 13-6 28-13 15h-17l-12-15-7-28 18-13-25-21-20-77 23-17-16-70h19l6-76zm-285 0h27v110h20V140h27v122l20 20-5 98-41 23 8 11 6 25-14 18h-22l-14-17 5-26 9-11-41-23-5-99 20-19V140zm136 0h27v110h20V140h27v122l20 20-5 98-41 23 8 11 6 25-14 18h-22l-14-17 5-26 9-11-41-23-5-99 20-19V140z"/><glyph glyph-name="uniE521" unicode="" horiz-adv-x="1180" d="M283 69h50l52 165h11V69h50v165h53l-49 185 22 84 47-82h124v23l-19 19h-63l-58 118-22 31 42 7 19 56-28 59h-58l-25-21-33-78 47-12-63-35-50-172-79-182h80L283 69zm403 350h104l16 22c5-9 15-22 39-22 33 0 43 25 43 45 0 23-15 43-43 43-29 0-39-22-41-38l-33 83h-36l10-63h-39l-96 62-8-36 63-56 21-40zM525 69h50v278h273V69h50v328H525V69z"/><glyph glyph-name="uniE524" unicode="" horiz-adv-x="1180" d="M247 515h46l300 182 301-182h46v46L593 773 247 561v-46zm-2-377h56v60h584v-60h55v253h-55V253H300v213h-55V138zm80 140h535v113l-363 64-33-61-19 34-59 27-56-21-7-61 38-23h83l-11-25H325v-47z"/><glyph glyph-name="uniE527" unicode="" horiz-adv-x="1180" d="M486 79l311 315h110v183H716L613 473l-43 76 28 56-27 44h-53l-19-44 24-54-24-52V357l-91-93H296V79h190zm-135 55v75h82l309 313h109v-73h-80L461 134H351z"/><glyph glyph-name="uniE52A" unicode="" horiz-adv-x="1180" d="M287 88h158v123h122v121h121v121h121v121h99v54H754V508H633V387H511V267H390V143H287V88z"/><glyph glyph-name="uniE52E" unicode="" horiz-adv-x="1180" d="M438 432h312c18 17 27 39 27 64 0 51-33 96-91 96 0 51-43 90-91 90-50 0-92-38-92-90-60 0-92-44-92-96 0-24 8-47 27-64zM584 0h23l120 402H457L584 0z"/><glyph glyph-name="uniE52F" unicode="" horiz-adv-x="1180" d="M414 159h398v45H465l39 52h279l82 277H417l-62 85h-84v-45h53l102-144 43-149-55-76v-45zm71-105c24 0 43 19 43 43s-19 43-43 43c-23 0-43-20-43-43s20-43 43-43zm244 0c24 0 44 19 44 43s-20 43-44 43c-23 0-42-19-42-43s19-43 42-43z"/><glyph glyph-name="uniE530" unicode="" horiz-adv-x="1180" d="M384 147h414l98 321H735l-24 113H468l-24-113H286l98-321zm114 321l11 63h162l11-63H498z"/><glyph glyph-name="uniE536" unicode="" horiz-adv-x="1180" d="M505 97h169v192h193v169H674v193H505V458H313V289h192V97z"/><glyph glyph-name="uniE542" unicode="" horiz-adv-x="1180" d="M287 464c90 91 186 124 303 124s201-33 303-124l46 46c-95 101-211 143-349 143s-268-43-349-143l46-46zm81-81c72 73 146 92 222 92s144-20 222-92l46 46c-63 68-159 110-268 110s-208-43-268-110l46-46zm81-81c46 45 94 58 141 58s105-13 141-58l46 46c-57 58-118 77-187 77s-130-17-187-77l46-46zm51-216h36l39 148v15h-29l-26-100-29 100h-38l-28-98-26 98h-36v-17l39-146h36l31 108 31-108zm158 0h37v64h54v32h-54v35h61v32h-98V86zm-67 0h42v163h-42V86zm183 0h42v163h-42V86z"/><glyph glyph-name="uniE545" unicode="" horiz-adv-x="1180" d="M458 38h216v416l-79 71v36h69l128-66h19v175h-19l-127-60h-70v49h-59v-49h-65L338 490l34-38 122 109h43v-36l-79-72V38z"/><glyph glyph-name="uniE547" unicode="" horiz-adv-x="1180" d="M529 206h100c-6 14-8 28-8 41 0 98 191 100 191 296 0 119-90 195-218 195-166 0-204-137-204-137v-68h78s13 118 123 118c68 0 115-44 115-108 0-163-186-164-186-293 0-14 3-30 9-44zM527 0h116v117H527V0z"/><glyph glyph-name="uniE549" unicode="" horiz-adv-x="1180" d="M847 84l-44 55c-56-53-134-82-213-82s-157 29-213 82c-54 53-89 133-89 221s35 168 89 221c56 53 134 82 213 82 65 0 128-18 180-53l-95-7-18-31 22-27 196 14-14 188-30 18-28-22 5-72c-61 41-136 61-218 61-100 0-191-37-257-96-75-70-117-172-117-276 0-103 42-206 117-276 66-59 157-96 257-96s191 37 257 96zM557 283h-82l31 35c30 34 46 61 46 95 0 42-31 68-75 68-65 0-80-46-80-46v-32h38s3 38 36 38c18 0 27-12 27-30 0-23-6-38-28-63l-71-79v-34h158v48zm198 10v43h-36v142h-52L566 330v-37h106v-61h47v61h36zm79 24c0 21 6 38 31 38 20 0 28-13 28-38v-82h48v97c0 38-20 68-59 68-25 0-40-13-48-24v102h-47V235h47v82zm-215 19l53 77v-77h-53z"/><glyph glyph-name="uniE54A" unicode="" horiz-adv-x="1180" d="M430 234h43L431 85h77l42 149h147l31-149h78l-54 353h113l51 35 12 57-164 33-24 65h-18l-60-191-236-39-115 27-44-19-10-31 127-34-73-256h76l43 149z"/><glyph glyph-name="uniE54B" unicode="" horiz-adv-x="1180" d="M286 63h582v45H689v112c21-8 44-12 69-12 51 0 95 18 129 51 38 33 61 87 61 141 0 53-23 104-61 139-28 26-63 44-103 49-7 18-18 35-32 48-22 20-51 33-84 33-34 0-64-13-85-33-23-22-38-55-39-89-32-5-60-18-81-38-29-28-47-68-47-110s18-83 47-110c26-25 62-40 102-40 21 0 41 4 59 12V108H499v59l56 7v46H378v-46l56-7v-59H286V63z"/><glyph glyph-name="uniE54C" unicode="" horiz-adv-x="1180" d="M889 445h67v65L591 745 225 510v-65h59l306 186 299-186zM454-14h93v153h61c131 0 197 87 197 180 0 99-76 164-197 164H454V-14zm93 231v187h60c67 0 105-42 105-89 0-58-40-98-105-98h-60z"/><glyph glyph-name="uniE54D" unicode="" horiz-adv-x="1180" d="M434 0h98v257h81c157 0 235 111 235 230 0 129-91 213-235 213H434V0zm98 341v275h81c88 0 137-62 137-132 0-86-53-143-137-143h-81z"/><glyph glyph-name="uniE565" unicode="" horiz-adv-x="1180" d="M746 449l45 162-51-30-32 55c-8 13-15 16-31 16H547c9-3 21-18 29-31l59-101-58-31 169-40zm-240-2l73 126-29 49c-8 14-21 25-41 25-25 0-34-12-42-26l-66-114 105-60zm286-199h57c30 0 50 17 50 46 0 6-2 15-8 26l-67 116-105-61 73-127zm-441-81c1 7 3 14 9 24l64 111 53-33-47 164-167-38 55-33-20-35c-10-17-12-27-12-33s0-14 13-37l52-90zM717 42v65h58c18 0 28 11 35 23l57 99c-4-2-12-2-14-2H717v63L597 168 717 42zm-300 64h134v120H404l-28-50c-4-7-8-17-8-26 0-28 21-44 49-44z"/><glyph glyph-name="uniE569" unicode="" horiz-adv-x="1180" d="M590 877c-138 0-261-51-352-136C136 645 75 505 75 360S136 75 238-21c91-85 214-136 352-136s261 51 352 136c102 96 163 236 163 381s-61 285-163 381c-91 85-214 136-352 136zm258-390c0 129-91 213-235 213H434V566L297 703c80 67 185 104 293 104 117 0 230-43 311-121 82-79 134-194 134-326 0-114-39-216-103-292L722 278c84 38 126 122 126 209zM590-87C473-87 360-44 279 34c-82 79-134 194-134 326 0 115 40 217 104 294L884 18C804-50 699-87 590-87zm-58 703h81c88 0 137-62 137-132 0-71-36-122-96-138L532 468v148zm-98-225V0h98v257h36L434 391z"/><glyph glyph-name="uniE56A" unicode="" horiz-adv-x="1180" d="M590 877c-138 0-261-51-352-136C136 645 75 505 75 360S136 75 238-21c91-85 214-136 352-136s261 51 352 136c102 96 163 236 163 381s-61 285-163 381c-91 85-214 136-352 136zm162-439h113l51 35 12 57-164 33-24 65h-18l-61-193-83-13-281 281c80 67 185 104 293 104 117 0 230-43 311-121 82-79 134-194 134-326 0-114-39-216-103-292L795 205l-43 233zM590-87C473-87 360-44 279 34c-82 79-134 194-134 326 0 115 40 217 104 294L884 18C804-50 699-87 590-87zM430 234h43L431 85h77l42 149h40L426 398l-115 27-44-19-10-31 127-34-73-256h76l43 149zm209-48l2-101h98L639 186z"/><glyph glyph-name="uniE56B" unicode="" horiz-adv-x="1180" d="M590 877c-138 0-261-51-352-136C136 645 75 505 75 360S136 75 238-21c91-85 214-136 352-136s261 51 352 136c102 96 163 236 163 381s-61 285-163 381c-91 85-214 136-352 136zm137-475H598l-30 30h182c18 17 27 39 27 64 0 51-33 96-91 96 0 51-43 90-91 90-50 0-92-38-92-90-29 0-52-11-68-27L297 703c80 67 185 104 293 104 117 0 230-43 311-121 82-79 134-194 134-326 0-114-39-216-103-292L697 303l30 99zM590-87C473-87 360-44 279 34c-82 79-134 194-134 326 0 115 40 217 104 294L884 18C804-50 699-87 590-87zM473 351L585 0h22l50 167-184 184z"/><glyph glyph-name="uniE56C" unicode="" horiz-adv-x="1180" d="M590 877c-138 0-261-51-352-136C136 645 75 505 75 360S136 75 238-21c91-85 214-136 352-136s261 51 352 136c102 96 163 236 163 381s-61 285-163 381c-91 85-214 136-352 136zm205-354l-20 90h-74l13 137h-56l-13-137H419l-6-26-116 116c80 67 185 104 293 104 117 0 230-43 311-121 82-79 134-194 134-326 0-114-39-216-103-292L728 272l23 251h44zM590-87C473-87 360-44 279 34c-82 79-134 194-134 326 0 115 40 217 104 294L884 18C804-50 699-87 590-87zM458 367l31-328h216l7 74-254 254z"/><glyph glyph-name="uniE56D" unicode="" horiz-adv-x="1180" d="M590 877c-138 0-261-51-352-136C136 645 75 505 75 360S136 75 238-21c91-85 214-136 352-136s261 51 352 136c102 96 163 236 163 381s-61 285-163 381c-91 85-214 136-352 136zm324-728v381H562v98H372l-75 75c80 67 185 104 293 104 117 0 230-43 311-121 82-79 134-194 134-326 0-114-39-216-103-292l-81 81h63zM590-87C473-87 360-44 279 34c-82 79-134 194-134 326 0 115 40 217 104 294L884 18C804-50 699-87 590-87zm105 685v-45h145v45H695zm-181-12v-57h-43l-57 57h100zm110-385c-6-1-17-2-28-2-77 0-140 64-140 141 0 8 1 16 3 26L298 529h-32V149h410l-52 52zm-28 279c77 0 141-63 141-140 0-22-5-44-15-62L534 466c19 9 39 14 62 14z"/><glyph glyph-name="uniE588" unicode="" horiz-adv-x="1180" d="M641 45c167 0 264 104 264 233 0 128-97 233-264 233H405l116 125v58h-63L242 467l216-228h63v58L405 422h244c107 0 167-62 167-144s-60-144-167-144H410V45h231z"/><glyph glyph-name="uniE589" unicode="" horiz-adv-x="1180" d="M655 658c167 0 264-104 264-233 0-128-97-233-264-233H419L535 67V9h-63L256 236l216 228h63v-58L419 281h244c107 0 167 62 167 144s-60 144-167 144H424v89h231z"/><glyph glyph-name="uniE58A" unicode="" horiz-adv-x="1180" d="M516 55c-167 0-264 104-264 233 0 128 97 233 264 233h236L636 646v58h63l216-227-216-228h-63v58l116 125H508c-107 0-167-62-167-144s60-144 167-144h239V55H516z"/><glyph glyph-name="uniE58B" unicode="" horiz-adv-x="1180" d="M519 645c-167 0-264-104-264-233 0-128 97-233 264-233h236L639 54V-4h63l216 227-216 228h-63v-58l116-125H511c-107 0-167 62-167 144s60 144 167 144h239v89H519z"/><glyph glyph-name="uniE58C" unicode="" horiz-adv-x="1180" d="M889 409c0 167-104 264-233 264-128 0-233-97-233-264V173L298 289h-58v-63L467 10l228 216v63h-58L512 173v244c0 107 62 167 144 167s144-60 144-167V178h89v231z"/><glyph glyph-name="uniE592" unicode="" horiz-adv-x="1180" d="M422 179c45 0 57 24 109 24 53 0 64-24 109-24s56 24 109 24 64-24 109-24c22 0 34 5 49 12v372H447l-67-216H198v-45l91-100c8 1 16 1 24 1 53 0 64-24 109-24zm6 168l52 170h87V347H428zm184 68v102h103V415H612zm148 0v102h102V415H760zM422 101c57 0 63 24 109 24s52-24 109-24 63 24 109 24 52-24 109-24c23 0 37 4 49 8v52c-15-7-27-12-49-12-45 0-56 24-109 24s-64-24-109-24-56 24-109 24c-52 0-64-24-109-24s-56 24-109 24c-19 0-34-2-56-11v-51c21 9 37 14 56 14 46 0 52-24 109-24z"/><glyph glyph-name="uniE596" unicode="" horiz-adv-x="1180" d="M473 150l16 112h9l71-120L606 0h75l-53 183-69 140v89L786 0h56L676 301l1 1 13 42-117 223-37 25 39 11 23 74-32 62h-72l-23-48 10-84-80-27-82-83-16-169 22-24h36l14 155 57 58-31-352L355 0h75l43 150z"/><glyph glyph-name="uniE599" unicode="" horiz-adv-x="1180" d="M687 79L376 394H266v183h191l103-104 43 76-28 56 27 44h53l19-44-24-54 24-52V357l91-93h112V79H687zm135 55v75h-82L431 522H322v-73h80l310-315h110z"/><glyph glyph-name="uniE59C" unicode="" horiz-adv-x="1180" d="M893 88H735v123H613v121H492v121H371v121h-99v54h154V508h121V387h122V267h121V143h103V88z"/><glyph glyph-name="uniE5A0" unicode="" horiz-adv-x="1180" d="M285 409c0 167 104 264 233 264 128 0 233-97 233-264V173l125 116h58v-63L707 10 479 226v63h58l125-116v244c0 107-62 167-144 167s-144-60-144-167V178h-89v231z"/><glyph glyph-name="uniE5A1" unicode="" horiz-adv-x="1180" d="M895 281c0-167-104-264-233-264-128 0-233 97-233 264v236L304 401h-58v63l227 216 228-216v-63h-58L518 517V273c0-107 62-167 144-167s144 60 144 167v239h89V281z"/><glyph glyph-name="uniE5A2" unicode="" horiz-adv-x="1180" d="M289 281c0-167 104-264 233-264 128 0 233 97 233 264v236l125-116h58v63L711 680 483 464v-63h58l125 116V273c0-107-62-167-144-167s-144 60-144 167v239h-89V281z"/><glyph glyph-name="uniE5A3" unicode="" horiz-adv-x="1180" d="M492 72h382v578H492V483h77v90h228V149H569v87h-77V72zM371 192h55v50l-74 80h321v77H352l74 81v51h-55L206 360l165-168z"/><glyph glyph-name="uniE5A4" unicode="" horiz-adv-x="1180" d="M705 72H323v578h382V483h-77v90H400V149h228v87h77V72zm121 120h-55v50l74 80H524v77h321l-74 81v51h55l165-171-165-168z"/><glyph glyph-name="uniE5A5" unicode="" horiz-adv-x="1180" d="M879 468V86H301v382h167v-77h-90V163h424v228h-87v77h164zM759 589v-55h-50l-80 74V287h-77v321l-81-74h-51v55l171 165 168-165z"/><glyph glyph-name="uniE5A6" unicode="" horiz-adv-x="1190" d="M879 251v382H301V251h167v77h-90v228h424V328h-87v-77h164zM759 130v55h-50l-80-74v321h-77V111l-81 74h-51v-55L591-35l168 165z"/><glyph glyph-name="uniF50A" unicode="" horiz-adv-x="651" d="M494-124c0 52-45 77-98 84v27C538 9 614 97 614 220c0 88-48 152-131 174 68 28 107 91 107 164 0 135-107 210-270 210-181 0-261-92-277-177v-78h164c6 53 37 89 102 89 48 0 86-28 86-72 0-41-29-77-89-77h-84V304h101c66 0 97-34 97-76 0-48-37-79-101-79-77 0-115 45-122 95H33v-79C48 85 122 10 248-12v-61c37 0 71-7 71-34 0-29-29-37-75-37v-87h95c93 9 155 30 155 107z"/><glyph glyph-name="uniF50B" unicode="" horiz-adv-x="525" d="M430-124c0 52-45 77-98 84v27C435 4 493 57 493 145c0 64-34 109-103 127 62 19 83 59 83 110 0 91-76 145-209 145C87 527 41 423 36 415v-69h150c2 6 14 52 65 52 38 0 53-20 53-42 0-28-15-49-57-49h-63V202h69c53 0 68-22 68-46 0-25-17-47-62-47-63 0-71 47-74 53H31V93c5-7 34-82 153-104v-62c37 0 71-7 71-34 0-29-29-37-75-37v-87h95c93 9 155 30 155 107z"/><glyph glyph-name="uniF50E" unicode="" horiz-adv-x="722" d="M178 0l43 132h261L524 0h186v80L473 750H248L10 70V0h168zm253 298H273l80 252 78-252zM187 805h343v124H187V805z"/><glyph glyph-name="uniF50F" unicode="" horiz-adv-x="571" d="M194-18c77 0 121 33 146 76l8-58h173v305c0 146-80 222-248 222C96 527 56 408 56 408v-69h146s15 35 69 35c43 0 65-21 65-63v-17s-35 8-80 8c-150 0-227-59-227-161C29 54 83-18 194-18zm70 139c-31 0-53 12-53 43 0 27 17 46 62 46 37 0 63-4 63-4v-20c0-29-18-65-72-65zM136 604h309v132H136V604z"/><glyph glyph-name="uniF510" unicode="" horiz-adv-x="618" d="M72 0h499v175H275v131h257v158H275v111h296v175H72V0zm78 805h343v124H150V805z"/><glyph glyph-name="uniF511" unicode="" horiz-adv-x="599" d="M312-18C508-18 556 93 556 93v69H403s-12-36-87-36c-55 0-87 32-98 80h338s10 33 10 70c0 142-78 251-257 251-176 0-278-125-278-276 0-149 92-269 281-269zm-93 326c11 44 38 75 88 75 55 0 83-39 83-75H219zm-65 296h309v132H154V604z"/><glyph glyph-name="uniF518" unicode="" horiz-adv-x="816" d="M408-18c223 0 372 159 372 396 0 234-149 390-372 390S36 612 36 378C36 141 185-18 408-18zm0 174c-104 0-169 88-169 222 0 130 65 216 169 216 103 0 169-86 169-216 0-134-66-222-169-222zM236 805h343v124H236V805z"/><glyph glyph-name="uniF519" unicode="" horiz-adv-x="612" d="M306-18c173 0 275 123 275 273 0 151-102 272-275 272S31 406 31 255C31 105 133-18 306-18zm0 161c-62 0-90 51-90 112s28 111 90 111 91-50 91-111-29-112-91-112zM153 604h309v132H153V604z"/><glyph glyph-name="uniF51A" unicode="" horiz-adv-x="816" d="M408-18c223 0 372 159 372 396 0 234-149 390-372 390S36 612 36 378C36 141 185-18 408-18zm0 174c-104 0-169 88-169 222 0 130 65 216 169 216 103 0 169-86 169-216 0-134-66-222-169-222zm-2 645c106 0 170 41 186 79v66H446c0-22-17-49-40-49-25 0-41 27-40 49H220v-66c17-38 80-79 186-79z"/><glyph glyph-name="uniF51B" unicode="" horiz-adv-x="612" d="M306-18c173 0 275 123 275 273 0 151-102 272-275 272S31 406 31 255C31 105 133-18 306-18zm0 161c-62 0-90 51-90 112s28 111 90 111 91-50 91-111-29-112-91-112zm1 447c99 0 155 49 169 90v68H346c0-29-9-59-39-59-32 0-40 30-39 59H138v-68c13-41 71-90 169-90z"/><glyph glyph-name="uniF522" unicode="" horiz-adv-x="733" d="M339-18c225 0 357 151 357 395 0 237-139 391-356 391-193 0-282-104-300-180v-78h164c10 40 57 84 136 84 86 0 136-51 147-138H230V299h256c-12-94-61-142-150-142-76 0-126 47-137 88H34v-78C66 55 179-18 339-18zM168 805h343v124H168V805z"/><glyph glyph-name="uniF523" unicode="" horiz-adv-x="554" d="M253-18c181 0 270 122 270 269 0 151-99 276-270 276C76 527 35 401 35 401v-69h146s12 44 72 44c41 0 73-22 75-72H195v-99h134c-3-51-34-75-76-75-61 0-73 47-73 47H34v-69S78-18 253-18zM114 605h309v132H114V605z"/><glyph glyph-name="uniF524" unicode="" horiz-adv-x="733" d="M339-18c225 0 357 151 357 395 0 237-139 391-356 391-193 0-282-104-300-180v-78h164c10 40 57 84 136 84 86 0 136-51 147-138H230V299h256c-12-94-61-142-150-142-76 0-126 47-137 88H34v-78C66 55 179-18 339-18zm1 819c106 0 170 41 186 79v66H380c0-22-17-49-40-49-25 0-41 27-40 49H154v-66c17-38 80-79 186-79z"/><glyph glyph-name="uniF525" unicode="" horiz-adv-x="554" d="M253-18c181 0 270 122 270 269 0 151-99 276-270 276C76 527 35 401 35 401v-69h146s12 44 72 44c41 0 73-22 75-72H195v-99h134c-3-51-34-75-76-75-61 0-73 47-73 47H34v-69S78-18 253-18zm3 608c99 0 155 49 169 90v68H295c0-29-9-59-39-59-32 0-40 30-39 59H87v-68c13-41 71-90 169-90z"/><glyph glyph-name="uniF528" unicode="" horiz-adv-x="706" d="M431 246V0h203v750H350c-184 0-300-98-300-253 0-98 59-171 133-201L34 79V0h180l158 246h59zm-80 162c-61 0-98 36-98 89 0 52 37 83 98 83h84V408h-84zM206 805h343v124H206V805z"/><glyph glyph-name="uniF529" unicode="" horiz-adv-x="572" d="M332 159V0h184v508H263c-156 0-226-81-226-178 0-64 31-114 95-142L39 69V0h154l106 159h33zm-54 117c-38 0-60 18-60 52 0 37 23 55 61 55h53V276h-54zM147 604h309v132H147V604z"/><glyph glyph-name="uniF52C" unicode="" horiz-adv-x="1092" d="M695-18c217 0 360 161 360 396 0 232-143 390-360 390-187 0-318-116-352-296h-68v278H72V0h203v298h65C369 108 503-18 695-18zm0 174c-98 0-158 89-158 222 0 129 60 216 157 216 98 0 158-87 158-216 0-133-60-222-157-222zM317 805h343v124H317V805z"/><glyph glyph-name="uniF52D" unicode="" horiz-adv-x="849" d="M544-18c172 0 274 123 274 273 0 151-102 272-274 272-139 0-231-83-258-197h-45v178H56V0h185v182h45C313 67 404-18 544-18zm0 161c-62 0-90 51-90 112s28 110 90 110 90-49 90-110-28-112-90-112zM230 604h309v132H230V604z"/><glyph glyph-name="uniF536" unicode="" horiz-adv-x="976" d="M72 0h272c195 0 305 116 305 266 0 135-105 260-305 260h-69v224H72V0zm629 0h203v750H701V0zM271 170v185h72c64 0 103-38 103-91 0-60-40-94-103-94h-72zm220 631c106 0 170 41 186 79v66H531c0-22-17-49-40-49-25 0-41 27-40 49H305v-66c17-38 80-79 186-79z"/><glyph glyph-name="uniF537" unicode="" horiz-adv-x="797" d="M56 0h245c156 0 227 82 227 188 0 104-72 181-225 181h-62v139H56V0zm501 0h184v508H557V0zM241 135v99h45c35 0 56-17 56-48 0-34-22-51-57-51h-44zm148 455c99 0 155 49 169 90v68H428c0-29-9-59-39-59-32 0-40 30-39 59H220v-68c13-41 71-90 169-90z"/><glyph glyph-name="uniF53C" unicode="" horiz-adv-x="553" d="M72 0h203v296h249v158H275v121h279v175H72V0z"/><glyph glyph-name="uniF53D" unicode="" horiz-adv-x="461" d="M402 157v131H241v72h188v148H56V0h185v157h161z"/><glyph glyph-name="uniF53E" unicode="" horiz-adv-x="724" d="M570-124c0 52-45 77-98 84v27C598 7 677 81 698 167v78H534c-12-48-57-88-130-88-98 0-164 75-164 218 0 147 67 219 164 219 74 0 115-36 125-84h164v78c-19 82-101 180-290 180-220 0-366-147-366-394C37 162 147 21 324-11v-62c37 0 71-7 71-34 0-29-29-37-75-37v-87h95c93 9 155 30 155 107z"/><glyph glyph-name="uniF53F" unicode="" horiz-adv-x="554" d="M472-124c0 52-45 77-98 84v31c117 29 146 126 146 126v69H375s-9-43-74-43c-57 0-84 47-84 108 0 62 27 115 84 115 62 0 73-42 73-42h145v69s-37 134-218 134C132 527 32 402 32 251 32 126 96 19 226-10v-63c37 0 71-7 71-34 0-29-29-37-75-37v-87h95c93 9 155 30 155 107z"/><glyph glyph-name="commaaccent" unicode="" horiz-adv-x="297" d="M76-205h123l65 81v72H68l8-153z"/><glyph glyph-name="cyrbreve" unicode="" horiz-adv-x="456" d="M245 588c99 0 155 49 169 90v68H284c0-29-9-59-39-59-32 0-40 30-39 59H76v-68c13-41 71-90 169-90z"/><glyph glyph-name="f_f" unicode="ﬀ" horiz-adv-x="783" d="M294 0v360h129V0h184v360h161v148H607v39c0 41 14 60 46 60 31 0 40-17 40-30h142v69c-21 71-82 114-184 114-143 0-228-84-228-213v-39H294v29c0 49 20 69 61 69 26 0 44-11 46-12v154c-1 1-31 10-77 10-145 0-215-86-215-215v-35H27V360h82V0h185z"/><glyph glyph-name="fi" unicode="ﬁ" horiz-adv-x="663" d="M109 0h185v360h86v148h-86v17c0 56 26 82 86 82 61 0 77-31 77-52h150v69c-25 84-100 136-226 136-164 0-272-91-272-234v-18H27V360h82V0zm314 0h184v508H423V0z"/><glyph glyph-name="fl" unicode="ﬂ" horiz-adv-x="663" d="M294 360h86v148h-86v16c0 57 25 83 89 83 18 0 31-2 40-5V0h184v697c-44 36-121 63-224 63-168 0-274-92-274-236v-16H27V360h82V0h185v360z"/><glyph glyph-name="f_f_i" unicode="ﬃ" horiz-adv-x="977" d="M294 0v360h129V0h184v360h87v148h-87v17c0 56 27 82 87 82 61 0 77-31 77-52h149v69c-24 84-99 136-225 136-164 0-272-91-272-234v-18H294v29c0 49 20 69 61 69 26 0 44-11 46-12v154c-1 1-31 10-77 10-145 0-215-86-215-215v-35H27V360h82V0h185zm443 0h184v508H737V0z"/><glyph glyph-name="f_f_l" unicode="ﬄ" horiz-adv-x="977" d="M293 0v360h129V0h185v360h86v148h-86v16c0 57 26 83 90 83 17 0 30-2 39-5V0h185v697c-44 36-122 63-225 63-168 0-274-92-274-236v-16H293v29c0 49 20 69 61 69 27 0 44-11 47-12v154c-2 1-31 10-77 10-145 0-215-86-215-215v-35H27V360h82V0h184z"/><glyph glyph-name="u1F374" unicode="🍴" horiz-adv-x="1180" d="M639 0h112l-23 332 22 30-16 324h-33l-55-76-37-255 53-23L639 0zM439 0h108l-23 398 42 40v242h-35V522h-20v158h-36V521h-21v159h-36V437l44-39L439 0z"/><glyph glyph-name="u1F3DB" unicode="🏛" horiz-adv-x="1180" d="M298 138h-40V93h665v45h-40v45h-40v45h-30v235h70v45L590 678 298 508v-45h70V228h-30v-45h-40v-45zm170 90h-55v235h55V228zm100 0h-55v235h55V228zm100 0h-55v235h55V228zm100 0h-55v235h55V228z"/><glyph glyph-name="u1F4B1" unicode="💱" horiz-adv-x="1180" d="M227 190h726v320H227V190zm45 45v230h636V235H272zm118 33c49 0 82 38 82 82 0 45-33 83-82 83s-83-38-83-83c0-44 34-82 83-82zm201 0c49 0 82 38 82 82 0 45-32 83-82 83s-83-37-83-83c0-45 34-82 83-82zm200-1c50 0 82 39 82 83s-32 83-82 83c-48 0-82-39-82-83s34-83 82-83zm-206 21v13c-14 1-23 8-26 15v10h10c2-6 7-11 16-14v35c-17 5-25 14-25 28s9 24 25 27v12h12v-11c13-2 20-9 24-15v-10h-11c-2 5-6 10-13 11v-31c21-8 27-16 27-31 0-14-11-24-27-26v-13h-12zm209 12c-25 0-41 14-47 34h-15l6 13h6v8h-12l6 14h10c6 19 22 33 46 33 28 0 37-16 37-16v-9h-11s-4 13-25 13c-16 0-26-8-31-21h52l-6-14h-50v-8h45l-5-13h-37c5-12 16-22 32-22 21 0 26 14 26 14h10v-9s-9-17-37-17zm-426 1v16h-17v12h17v8h-17v12h17v51h27c21 0 34-12 34-30s-11-33-34-33h-12v-8h31v-12h-31v-16h-15zm217 62v26c-8-1-11-6-11-13s3-10 11-13zm-202-14h11c13 0 21 8 21 20 0 10-7 19-21 19h-11v-39zm214-37c9 3 14 9 14 15 0 8-5 12-14 15v-30z"/><glyph glyph-name="u1F4B3" unicode="💳" horiz-adv-x="1180" d="M277 140h626v420H277V140zm45 375h536v-59H322v59zm0-330v181h536V185H322zm181 83v-40h145v40H503zm-147 0v-40h105v40H356z"/><glyph glyph-name="u1F4F1" unicode="📱" horiz-adv-x="1180" d="M441 80h298v591H441V80zm100 521v25h98v-25h-98zm-60-400v357h218V201H481zm109-91c-17 0-31 14-31 31 0 16 15 30 31 30s31-14 31-30c0-17-14-31-31-31z"/><glyph glyph-name="u1F4F5" unicode="📵" horiz-adv-x="1180" d="M590 877c-138 0-261-51-352-136C136 645 75 505 75 360S136 75 238-21c91-85 214-136 352-136s261 51 352 136c102 96 163 236 163 381s-61 285-163 381c-91 85-214 136-352 136zm149-207H441V559L297 703c80 67 185 104 293 104 117 0 230-43 311-121 82-79 134-194 134-326 0-114-39-216-103-292L739 261v409zM590-87C473-87 360-44 279 34c-82 79-134 194-134 326 0 115 40 217 104 294L884 18C804-50 699-87 590-87zm49 688h-98v25h98v-25zm-158-43h218V301L481 519v39zm-40-174V80h298v6L624 201H481v143l-40 40zm180-243c0-17-14-31-31-31s-31 14-31 31c0 16 15 30 31 30s31-14 31-30z"/><glyph glyph-name="u1F4F7" unicode="📷" horiz-adv-x="1180" d="M266 149h648v381H562v98H357v-98h-91V149zm429 404h145v45H695v-45zm-288-24v57h107v-57H407zm189-330c-77 0-140 64-140 141s63 140 140 140 141-63 141-140c0-78-63-141-141-141zm0 30c61 0 110 50 110 111 0 60-50 110-110 110s-110-50-110-110 50-111 110-111z"/><glyph glyph-name="u1F681" unicode="🚁" horiz-adv-x="1180" d="M507 101h297v93h57l40 38v92L787 456H626v92h-45v-92l-129-75H314l-50 78h-52l35-112-35-112h52l51 78h136l56-82V101zM274 503h272v45H274v-45zm387 0h297v45H661v-45zm48-194v109h52l94-109H709zM552 146v47h207v-47H552z"/><glyph glyph-name="u1F687" unicode="🚇" horiz-adv-x="1180" d="M327 60h50l114 134v32h-70v370l169 13 169-13V226h-70v-32L803 60h50v400c0 160-100 274-263 274S327 620 327 460V60zm188 508h149v19H515v-19zm21-305h108v283l-54 2-54-2V263zm-86 150h61v131l-61-5V413zm219 0h61v126l-61 5V413zM556 282v131h68V282h-68zm-81-15c16 0 29 14 29 28 0 15-13 27-29 27-17 0-29-12-29-27 0-14 12-28 29-28zm230 0c17 0 29 14 29 28 0 15-12 27-29 27-16 0-29-12-29-27 0-14 13-28 29-28zm-166-76h102v20H539v-20zm-51-60h202l-26 37H514l-26-37zm-51-72h304l-35 49H472l-35-49z"/><glyph glyph-name="u1F688" unicode="🚈" horiz-adv-x="1180" d="M779 40h67L708 202v39h84v447l-204 17-201-17V241h85v-39L334 40h64l41 48h299l41-48zm-32 609V467H612v193l135-11zM567 467H432v182l135 11V467zm160-176c-19 0-35 16-35 34s16 33 35 33c21 0 36-15 36-33s-15-34-36-34zm-275 67c20 0 35-15 35-33s-15-34-35-34-35 16-35 34 15 33 35 33zm198-159H529v24h121v-24zm-178-73l30 35h174l30-35H472z"/><glyph glyph-name="u1F68C" unicode="🚌" horiz-adv-x="1180" d="M418 173h334c0 50 38 77 81 77 42 0 80-28 80-77h46v404H277l-65-203V173h45c0 50 38 77 81 77 42 0 80-28 80-77zM257 297v80l51 156h56V380l-31-83h-76zm152 236h65V380h-65v153zm110 0h65V380h-65v153zm110 0h65V380h-65v153zm110 0h65V380h-65v153zm175 0V380h-65v153h65zM338 224c-30 0-57-20-57-56 0-37 27-57 57-57 27 0 56 20 56 57 0 36-29 56-56 56zm495 0c-30 0-57-20-57-56 0-37 27-57 57-57 27 0 56 20 56 57 0 36-29 56-56 56z"/><glyph glyph-name="u1F68D" unicode="🚍" horiz-adv-x="1180" d="M325 39h115v81h300V39h115v637H325V39zm135 527v60h259v-60H460zm-75-250v200h410V316H385zm0-110v55h115v-55H385zm295 0v55h115v-55H680z"/><glyph glyph-name="u1F690" unicode="🚐" horiz-adv-x="1180" d="M428 213h314c0 50 38 77 81 77 42 0 80-28 80-77h56v344H301l-99-164V213h65c0 50 38 77 81 77 42 0 80-28 80-77zM278 420l51 93h105v-93H278zm201 0v93h115v-93H479zm160 0v93h115v-93H639zm275 93v-93H799v93h115zM348 264c-30 0-57-20-57-56 0-37 27-57 57-57 27 0 56 20 56 57 0 36-29 56-56 56zm475 0c-30 0-57-20-57-56 0-37 27-57 57-57 27 0 56 20 56 57 0 36-29 56-56 56z"/><glyph glyph-name="u1F695" unicode="🚕" horiz-adv-x="1180" d="M508 684v26H406v-26h35V579h32v105h35zm199-105h26v16l-34 52 33 49v14h-23l-28-42-26 42h-27v-15l34-49-36-52v-15h23l30 45 28-45zm44 0h31v131h-31V579zm-153 0h24v15l-45 116h-31l-45-118v-13h24l11 28h50l12-28zm-54 51l17 46 16-46h-33zM426 193h324c0 50 38 77 81 77 42 0 80-28 80-77h69l-19 173-62 34-94 137H523L356 399l-156-60V193h65c0 50 38 77 81 77 42 0 80-28 80-77zm343 300l65-93H434l113 93h222zM346 244c-30 0-57-20-57-56 0-37 27-57 57-57 27 0 56 20 56 57 0 36-29 56-56 56zm485 0c-30 0-57-20-57-56 0-37 27-57 57-57 27 0 56 20 56 57 0 36-29 56-56 56z"/><glyph glyph-name="u1F696" unicode="🚖" horiz-adv-x="1180" d="M495 694v26H393v-26h35V589h32v105h35zm199-105h26v16l-34 52 33 49v14h-23l-28-42-26 42h-27v-15l34-49-36-52v-15h23l30 45 28-45zm44 0h31v131h-31V589zm-153 0h24v15l-45 116h-31l-45-118v-13h24l11 28h50l12-28zm-54 51l17 46 16-46h-33zM289 87h120v60h367V87h120v60l38 18v130L752 539H433L251 295V165l38-18V87zm434 408l74-99H391l71 99h261zM367 285v-63h-76v63h76zm110 0v-63h-76v63h76zm307 0v-63h-76v63h76zm110 0v-63h-76v63h76z"/><glyph glyph-name="u1F697" unicode="🚗" horiz-adv-x="1180" d="M200 223h65c0 50 38 77 81 77 42 0 80-28 80-77h324c0 50 38 77 81 77 42 0 80-28 80-77h69l-19 173-62 34-94 137H523L356 429l-156-60V223zm234 207l113 93h222l65-93H434zm-88-269c27 0 56 20 56 57 0 36-29 56-56 56-30 0-57-20-57-56 0-37 27-57 57-57zm485 0c27 0 56 20 56 57 0 36-29 56-56 56-30 0-57-20-57-56 0-37 27-57 57-57z"/><glyph glyph-name="u1F698" unicode="🚘" horiz-adv-x="1180" d="M289 137h120v80h367v-80h120v80l38 18v130L752 609H433L251 365V235l38-18v-80zm102 329l71 99h261l74-99H391zM291 292v63h76v-63h-76zm110 0v63h76v-63h-76zm307 0v63h76v-63h-76zm110 0v63h76v-63h-76z"/><glyph glyph-name="u1F69A" unicode="🚚" horiz-adv-x="1180" d="M202 213h65c0 50 38 77 81 77 42 0 80-28 80-77h284c0 50 38 77 81 77 42 0 80-28 80-77h56v404H433V517H301l-99-163V213zm73 167l56 92h103v-92H275zm73-229c27 0 56 20 56 57 0 36-29 56-56 56-30 0-57-20-57-56 0-37 27-57 57-57zm445 0c27 0 56 20 56 57 0 36-29 56-56 56-30 0-57-20-57-56 0-37 27-57 57-57z"/><glyph glyph-name="u1F69B" unicode="🚛" horiz-adv-x="1180" d="M202 201h52c0 40 31 62 65 62s64-23 64-62h76c2 40 32 62 65 62 35 0 61-23 62-62h212c0 40 30 62 65 62 33 0 64-23 64-62h35v354H457V291h-29v154H281l-79-132V201zm59 134l45 74h82v-74H261zm58-184c22 0 45 16 45 46 0 29-23 45-45 45-24 0-46-16-46-45 0-30 22-46 46-46zm205 0c23 0 47 16 45 46 2 29-22 45-45 45-22 0-44-16-46-45 2-30 24-46 46-46zm339 0c21 0 45 16 45 46 0 29-24 45-45 45-24 0-46-16-46-45 0-30 22-46 46-46z"/><glyph glyph-name="u1F6A6" unicode="🚦" horiz-adv-x="1180" d="M547-20h81v147h82v623H465V127h82V-20zm40 582c-40 0-73 32-73 73s33 74 73 74c41 0 74-33 74-74s-33-73-74-73zm0-186c-40 0-73 33-73 74 0 40 33 74 73 74 41 0 74-34 74-74 0-41-33-74-74-74zm0 26c26 0 49 21 49 48 0 26-23 48-49 48s-48-22-48-48c0-27 22-48 48-48zm0-211c-40 0-73 33-73 73 0 41 33 74 73 74 41 0 74-33 74-74 0-40-33-73-74-73zm0 25c26 0 49 22 49 48 0 27-23 49-49 49s-48-22-48-49c0-26 22-48 48-48z"/><glyph glyph-name="u1F6A7" unicode="🚧" horiz-adv-x="1180" d="M425 194l32 131h7l68-114 40-150h326L748 310l-31-53-81 40-59 192 13 59-22 50 39 12 27 66-27 60h-71l-24-42 14-80-72-6-80-46-53-122v-27l72-35-9-23-29-141-54-154h78l46 134zm-22 324l59 32-55-138-39 20 35 86zm129-166l16 50 26-73-40 20-2 3zm70-128l-38 70 137-67-74-128-25 125z"/><glyph glyph-name="u1F6AB" unicode="🚫" horiz-adv-x="1180" d="M590-157c138 0 261 51 352 136 102 96 163 236 163 381s-61 285-163 381c-91 85-214 136-352 136s-261-51-352-136C136 645 75 505 75 360S136 75 238-21c91-85 214-136 352-136zm0 964c117 0 230-43 311-121 82-79 134-194 134-326 0-114-39-216-103-292L297 703c80 67 185 104 293 104zM279 34c-82 79-134 194-134 326 0 115 40 217 104 294L884 18C804-50 699-87 590-87 473-87 360-44 279 34z"/><glyph glyph-name="u1F6AC" unicode="🚬" horiz-adv-x="1180" d="M894 168v80H434c0 27 19 55 69 55h53c58 0 92 24 92 77v76c68 0 124 36 124 109 0 66-46 111-145 111v-50c69 0 96-22 96-61 0-36-27-58-95-58h-30V400c0-36-20-47-65-47h-48c-69 0-101-48-101-106h-32v18c0 104 31 144 139 144v50c-28 3-54 26-54 63 0 40 32 65 95 65v50c-96 0-145-41-145-114 0-17 4-45 28-70-63-15-113-61-113-153V168h592z"/><glyph glyph-name="u1F6AD" unicode="🚭" horiz-adv-x="1180" d="M590 877c-138 0-261-51-352-136C136 645 75 505 75 360S136 75 238-21c91-85 214-136 352-136s261 51 352 136c102 96 163 236 163 381s-61 285-163 381c-91 85-214 136-352 136zm304-709v80H752L645 355c2 7 3 16 3 25v76c68 0 124 36 124 109 0 66-46 111-145 111v-50c69 0 96-22 96-61 0-36-27-58-95-58h-30V402L446 554c13 21 42 33 86 33v50c-59 0-101-16-124-45L297 703c80 67 185 104 293 104 117 0 230-43 311-121 82-79 134-194 134-326 0-114-39-216-103-292L832 168h62zM590-87C473-87 360-44 279 34c-82 79-134 194-134 326 0 115 40 217 104 294L884 18C804-50 699-87 590-87zM383 443c-45-20-81-65-81-143V168h355l-80 80H434c0 27 19 55 69 55h20l-50 50c-62-8-89-53-89-106h-32v18c0 80 18 122 73 137l-42 41z"/><glyph glyph-name="u1F6AE" unicode="🚮" horiz-adv-x="1180" d="M381-1h60v247h45V-1h60v465l70-47h163v30l-27 26h-95l-112 91-58 25 22 25 11 56-28 38h-59l-28-36 10-58 23-25-89-47-14-241 46-39V-1zm285 337h54v51h-54v-51zm59-74h55v53h-55v-53zM817 0l30 246h-50L773 50h-79l-25 196h-50L650 0h167zM707 167h55v53h-55v-53z"/><glyph glyph-name="u1F6AF" unicode="🚯" horiz-adv-x="1180" d="M590 877c-138 0-261-51-352-136C136 645 75 505 75 360S136 75 238-21c91-85 214-136 352-136s261 51 352 136c102 96 163 236 163 381s-61 285-163 381c-91 85-214 136-352 136zm274-579h-50l-12-100-256 256v10l70-27h173v30l-27 26H657l-112 71-58 25 22 25 11 56-28 38h-59l-28-36 10-58 23-25-19-8-122 122c80 67 185 104 293 104 117 0 230-43 311-121 82-79 134-194 134-326 0-114-39-216-103-292l-86 86 18 144zM590-87C473-87 360-44 279 34c-82 79-134 194-134 326 0 115 40 217 104 294L884 18C804-50 699-87 590-87zM344 482l-9-183 46-37V-1h60v247h45V-1h60v280L344 482zm331-120h54v51h-54v-51zm55-68h55v53h-55v-53zm35-244h-81l-11 92-58 58L640 0h175l-50 50z"/><glyph glyph-name="u1F6B4" unicode="🚴" horiz-adv-x="1180" d="M568 175h47v130l134 59v62l-95 162-58 34 13 58-9 42h-62l-27-42 18-70h32l-66-105-98-30-13-25 13-20 123 25 57 54 67-111-95-63 19-160zM393 46c81 0 146 67 146 148 0 80-66 146-146 146-81 0-147-65-147-146S312 46 393 46zm400 0c81 0 146 67 146 148 0 80-66 146-146 146-81 0-147-65-147-146S712 46 793 46zM393 96c-51 0-92 44-92 98 0 52 42 96 92 96 48 0 91-45 91-96 0-55-43-98-91-98zm400 0c-51 0-92 44-92 98 0 52 42 96 92 96 48 0 91-45 91-96 0-55-43-98-91-98z"/><glyph glyph-name="u1F6B6" unicode="🚶" horiz-adv-x="1180" d="M412 0h74l37 142 77 136h20l26-128L724 0h84l-86 165-71 351 60-47 29-145h33l22 24-36 169-99 84-54 19 32 72-18 58h-78l-33-50 19-77 29-13-36-72 6-65-122-129v-38l21-22 110 114 8-75-79-140L412 0z"/><glyph glyph-name="u1F6B7" unicode="🚷" horiz-adv-x="1180" d="M590 877c-138 0-261-51-352-136C136 645 75 505 75 360S136 75 238-21c91-85 214-136 352-136s261 51 352 136c102 96 163 236 163 381s-61 285-163 381c-91 85-214 136-352 136zm0-70c117 0 230-43 311-121 82-79 134-194 134-326 0-114-39-216-103-292L694 306l-43 210 60-47 29-145h33l22 24-36 169-99 84-54 19 32 77-18 53h-78l-33-45 19-82 29-13-36-72 6-65-230 230c80 67 185 104 293 104zm0-894C473-87 360-44 279 34c-82 79-134 194-134 326 0 115 40 217 104 294L884 18C804-50 699-87 590-87zM441 384l-51-53v-38l21-22 71 72-41 41zm88-88l-64-113L412 0h74l37 142 58 102-52 52zm109-109l8-37L684 0h84l-22 79-108 108z"/><glyph glyph-name="u1F6BB" unicode="🚻" horiz-adv-x="1180" d="M573 0h45v750h-45V0zm171 52h36v156h22V52h35l13 156h42l-33 144 47 37-42 158-51 43 36 28-13 56-26 31h-39l-26-29-14-58 37-28-51-43-42-158 47-37-32-144h42l12-156zm-411 0h50v227h41V52h50v252l39 41-9 203-79 47 16 23 10 52-26 35h-45l-26-33 9-54 17-23-77-48-10-203 40-40V52z"/><glyph glyph-name="u1F7CA" unicode="🟊" horiz-adv-x="1180" d="M379 80l211 130L801 80l-77 229 181 146-230 10-85 197-85-197-230-10 181-146-77-229z"/></font>
</svg>
